KolarLatin-Bold.ufo
<glyph name="exclam" format="1">
  <advance width="390"/>
  <unicode hex="0021"/>
  <outline>
    <contour>
      <point x="231" y="255" type="line"/>
      <point x="231" y="414"/>
      <point x="320" y="473"/>
      <point x="320" y="590" type="curve"/>
      <point x="320" y="669"/>
      <point x="259" y="709"/>
      <point x="194" y="709" type="curve" smooth="yes"/>
      <point x="129" y="709"/>
      <point x="69" y="669"/>
      <point x="69" y="590" type="curve"/>
      <point x="69" y="477"/>
      <point x="158" y="417"/>
      <point x="158" y="255" type="curve"/>
    </contour>
    <contour>
      <point x="101" y="82" type="curve" smooth="yes"/>
      <point x="101" y="31"/>
      <point x="141" y="-9"/>
      <point x="192" y="-9" type="curve" smooth="yes"/>
      <point x="247" y="-9"/>
      <point x="288" y="31"/>
      <point x="288" y="82" type="curve" smooth="yes"/>
      <point x="288" y="135"/>
      <point x="247" y="177"/>
      <point x="192" y="177" type="curve" smooth="yes"/>
      <point x="141" y="177"/>
      <point x="101" y="135"/>
    </contour>
  </outline>
</glyph>
<glyph name="quotedbl" format="1">
  <advance width="387"/>
  <unicode hex="0022"/>
  <outline>
    <contour>
      <point x="124" y="525" type="line"/>
      <point x="136" y="592"/>
      <point x="164" y="704"/>
      <point x="164" y="732" type="curve" smooth="yes"/>
      <point x="164" y="769"/>
      <point x="137" y="795"/>
      <point x="101" y="795" type="curve" smooth="yes"/>
      <point x="67" y="795"/>
      <point x="40" y="769"/>
      <point x="40" y="733" type="curve" smooth="yes"/>
      <point x="40" y="705"/>
      <point x="67" y="592"/>
      <point x="79" y="525" type="curve"/>
    </contour>
    <contour>
      <point x="310" y="525" type="line"/>
      <point x="320" y="592"/>
      <point x="346" y="704"/>
      <point x="346" y="732" type="curve" smooth="yes"/>
      <point x="346" y="769"/>
      <point x="321" y="795"/>
      <point x="287" y="795" type="curve" smooth="yes"/>
      <point x="251" y="795"/>
      <point x="224" y="769"/>
      <point x="224" y="733" type="curve" smooth="yes"/>
      <point x="224" y="705"/>
      <point x="253" y="592"/>
      <point x="265" y="525" type="curve"/>
    </contour>
  </outline>
</glyph>
<glyph name="numbersign" format="1">
  <advance width="689"/>
  <unicode hex="0023"/>
  <outline>
    <contour>
      <point x="625" y="299" type="line"/>
      <point x="484" y="299" type="line"/>
      <point x="506" y="447" type="line"/>
      <point x="644" y="447" type="line"/>
      <point x="655" y="510" type="line"/>
      <point x="517" y="510" type="line"/>
      <point x="551" y="737" type="line"/>
      <point x="475" y="737" type="line"/>
      <point x="441" y="510" type="line"/>
      <point x="300" y="510" type="line"/>
      <point x="335" y="737" type="line"/>
      <point x="259" y="737" type="line"/>
      <point x="224" y="510" type="line"/>
      <point x="76" y="510" type="line"/>
      <point x="66" y="447" type="line"/>
      <point x="213" y="447" type="line"/>
      <point x="191" y="299" type="line"/>
      <point x="45" y="299" type="line"/>
      <point x="33" y="238" type="line"/>
      <point x="178" y="238" type="line"/>
      <point x="140" y="0" type="line"/>
      <point x="216" y="0" type="line"/>
      <point x="252" y="238" type="line"/>
      <point x="395" y="238" type="line"/>
      <point x="360" y="0" type="line"/>
      <point x="435" y="0" type="line"/>
      <point x="472" y="238" type="line"/>
      <point x="614" y="238" type="line"/>
    </contour>
    <contour>
      <point x="428" y="447" type="line"/>
      <point x="407" y="299" type="line"/>
      <point x="267" y="299" type="line"/>
      <point x="288" y="447" type="line"/>
    </contour>
  </outline>
</glyph>
<glyph name="asterisk" format="1">
  <advance width="460"/>
  <unicode hex="002A"/>
  <outline>
    <contour>
      <point x="283" y="412" type="curve" smooth="yes"/>
      <point x="283" y="449"/>
      <point x="253" y="460"/>
      <point x="252" y="514" type="curve"/>
      <point x="296" y="490"/>
      <point x="291" y="454"/>
      <point x="325" y="435" type="curve" smooth="yes"/>
      <point x="352" y="419"/>
      <point x="381" y="430"/>
      <point x="396" y="456" type="curve" smooth="yes"/>
      <point x="411" y="483"/>
      <point x="406" y="513"/>
      <point x="379" y="530" type="curve" smooth="yes"/>
      <point x="347" y="548"/>
      <point x="322" y="528"/>
      <point x="275" y="553" type="curve"/>
      <point x="318" y="580"/>
      <point x="345" y="558"/>
      <point x="379" y="578" type="curve" smooth="yes"/>
      <point x="406" y="594"/>
      <point x="411" y="624"/>
      <point x="396" y="649" type="curve" smooth="yes"/>
      <point x="381" y="676"/>
      <point x="352" y="687"/>
      <point x="325" y="670" type="curve" smooth="yes"/>
      <point x="292" y="652"/>
      <point x="297" y="621"/>
      <point x="252" y="593" type="curve"/>
      <point x="250" y="643"/>
      <point x="283" y="656"/>
      <point x="283" y="695" type="curve" smooth="yes"/>
      <point x="283" y="728"/>
      <point x="259" y="747"/>
      <point x="229" y="747" type="curve" smooth="yes"/>
      <point x="199" y="747"/>
      <point x="174" y="728"/>
      <point x="174" y="695" type="curve" smooth="yes"/>
      <point x="174" y="658"/>
      <point x="204" y="645"/>
      <point x="206" y="593" type="curve"/>
      <point x="161" y="615"/>
      <point x="166" y="651"/>
      <point x="133" y="670" type="curve" smooth="yes"/>
      <point x="105" y="687"/>
      <point x="76" y="676"/>
      <point x="61" y="649" type="curve" smooth="yes"/>
      <point x="46" y="624"/>
      <point x="51" y="594"/>
      <point x="78" y="577" type="curve" smooth="yes"/>
      <point x="111" y="559"/>
      <point x="136" y="578"/>
      <point x="183" y="553" type="curve"/>
      <point x="140" y="525"/>
      <point x="112" y="549"/>
      <point x="79" y="529" type="curve" smooth="yes"/>
      <point x="51" y="513"/>
      <point x="46" y="483"/>
      <point x="61" y="456" type="curve" smooth="yes"/>
      <point x="76" y="430"/>
      <point x="106" y="418"/>
      <point x="133" y="435" type="curve" smooth="yes"/>
      <point x="165" y="453"/>
      <point x="162" y="486"/>
      <point x="206" y="514" type="curve"/>
      <point x="208" y="462"/>
      <point x="175" y="451"/>
      <point x="175" y="412" type="curve" smooth="yes"/>
      <point x="175" y="379"/>
      <point x="199" y="359"/>
      <point x="229" y="359" type="curve" smooth="yes"/>
      <point x="259" y="359"/>
      <point x="283" y="379"/>
    </contour>
  </outline>
</glyph>
<glyph name="plus" format="1">
  <advance width="541"/>
  <unicode hex="002B"/>
  <outline>
    <contour>
      <point x="307" y="74" type="line"/>
      <point x="307" y="292" type="line"/>
      <point x="511" y="292" type="line"/>
      <point x="511" y="356" type="line"/>
      <point x="307" y="356" type="line"/>
      <point x="307" y="573" type="line"/>
      <point x="234" y="573" type="line"/>
      <point x="234" y="356" type="line"/>
      <point x="29" y="356" type="line"/>
      <point x="29" y="292" type="line"/>
      <point x="234" y="292" type="line"/>
      <point x="234" y="74" type="line"/>
    </contour>
  </outline>
</glyph>
<glyph name="zero" format="1">
  <advance width="782"/>
  <unicode hex="0030"/>
  <outline>
    <contour>
      <point x="392" y="747" type="curve" smooth="yes"/>
      <point x="211" y="747"/>
      <point x="38" y="580"/>
      <point x="38" y="362" type="curve" smooth="yes"/>
      <point x="38" y="156"/>
      <point x="211" y="-9"/>
      <point x="392" y="-9" type="curve" smooth="yes"/>
      <point x="575" y="-9"/>
      <point x="744" y="156"/>
      <point x="744" y="362" type="curve" smooth="yes"/>
      <point x="744" y="580"/>
      <point x="575" y="747"/>
    </contour>
    <contour>
      <point x="392" y="50" type="curve"/>
      <point x="308" y="50"/>
      <point x="260" y="121"/>
      <point x="260" y="361" type="curve" smooth="yes"/>
      <point x="260" y="610"/>
      <point x="308" y="687"/>
      <point x="392" y="687" type="curve"/>
      <point x="475" y="687"/>
      <point x="522" y="610"/>
      <point x="522" y="361" type="curve" smooth="yes"/>
      <point x="522" y="121"/>
      <point x="475" y="50"/>
    </contour>
  </outline>
</glyph>
<glyph name="one" format="1">
  <advance width="447"/>
  <unicode hex="0031"/>
  <outline>
    <contour>
      <point x="334" y="710" type="line"/>
      <point x="264" y="688"/>
      <point x="81" y="673"/>
      <point x="11" y="670" type="curve"/>
      <point x="11" y="630" type="line"/>
      <point x="88" y="630"/>
      <point x="125" y="627"/>
      <point x="132" y="600" type="curve" smooth="yes"/>
      <point x="138" y="584"/>
      <point x="138" y="534"/>
      <point x="138" y="459" type="curve" smooth="yes"/>
      <point x="138" y="151" type="line"/>
      <point x="138" y="61"/>
      <point x="121" y="43"/>
      <point x="16" y="40" type="curve"/>
      <point x="16" y="0" type="line"/>
      <point x="441" y="0" type="line"/>
      <point x="441" y="40" type="line"/>
      <point x="349" y="43"/>
      <point x="334" y="60"/>
      <point x="334" y="159" type="curve" smooth="yes"/>
    </contour>
  </outline>
</glyph>
<glyph name="three" format="1">
  <advance width="641"/>
  <unicode hex="0033"/>
  <outline>
    <contour>
      <point x="390" y="191" type="curve" smooth="yes"/>
      <point x="390.0" y="278.0"/>
      <point x="372.855175962" y="322.377210674"/>
      <point x="286" y="340" type="curve"/>
      <point x="259" y="322"/>
      <point x="233" y="316"/>
      <point x="218" y="316" type="curve" smooth="yes"/>
      <point x="178" y="316"/>
      <point x="155" y="340"/>
      <point x="155" y="370" type="curve" smooth="yes"/>
      <point x="155" y="396"/>
      <point x="177" y="419"/>
      <point x="216" y="419" type="curve" smooth="yes"/>
      <point x="245" y="419"/>
      <point x="260" y="410"/>
      <point x="278" y="400" type="curve"/>
      <point x="351.6" y="400.0"/>
      <point x="370.0" y="434.0"/>
      <point x="370" y="513" type="curve"/>
      <point x="370.0" y="605.0"/>
      <point x="336.490566038" y="655.0"/>
      <point x="274" y="655" type="curve"/>
      <point x="221.428571429" y="655.0"/>
      <point x="194.0" y="630.0"/>
      <point x="194" y="581" type="curve" smooth="yes"/>
      <point x="194" y="550"/>
      <point x="211" y="524"/>
      <point x="233" y="524" type="curve"/>
      <point x="223" y="483"/>
      <point x="185" y="459"/>
      <point x="137" y="459" type="curve" smooth="yes"/>
      <point x="75" y="459"/>
      <point x="35" y="494"/>
      <point x="35" y="555" type="curve" smooth="yes"/>
      <point x="35" y="636"/>
      <point x="137" y="710"/>
      <point x="284" y="710" type="curve"/>
      <point x="487.60754717" y="710.0"/>
      <point x="571.0" y="615.0"/>
      <point x="571" y="533" type="curve"/>
      <point x="571" y="460"/>
      <point x="526" y="404"/>
      <point x="419" y="382" type="curve"/>
      <point x="419" y="377" type="line"/>
      <point x="536" y="341"/>
      <point x="601" y="277"/>
      <point x="601" y="191" type="curve"/>
      <point x="601.0" y="69.0"/>
      <point x="485.158415842" y="-9.0"/>
      <point x="276" y="-9" type="curve"/>
      <point x="120" y="-9"/>
      <point x="2" y="57"/>
      <point x="2" y="165" type="curve"/>
      <point x="2" y="229"/>
      <point x="48" y="279"/>
      <point x="128" y="279" type="curve" smooth="yes"/>
      <point x="179" y="279"/>
      <point x="218" y="252"/>
      <point x="227" y="208" type="curve"/>
      <point x="193" y="208"/>
      <point x="166" y="180"/>
      <point x="166" y="135" type="curve"/>
      <point x="166" y="81"/>
      <point x="206" y="49"/>
      <point x="265" y="49" type="curve"/>
      <point x="349.951456311" y="49.0"/>
      <point x="390.0" y="100.0"/>
    </contour>
  </outline>
</glyph>
<glyph name="four" format="1">
  <advance width="720"/>
  <unicode hex="0034"/>
  <outline>
    <contour>
      <point x="24" y="275" type="line"/>
      <point x="372" y="709" type="line"/>
      <point x="526" y="709" type="line"/>
      <point x="526" y="280" type="line"/>
      <point x="626" y="282"/>
      <point x="652" y="299"/>
      <point x="652" y="374" type="curve"/>
      <point x="688" y="374" type="line"/>
      <point x="688" y="132" type="line"/>
      <point x="652" y="132" type="line"/>
      <point x="652" y="202"/>
      <point x="626" y="214"/>
      <point x="526" y="217" type="curve"/>
      <point x="526" y="183" type="line"/>
      <point x="526" y="98"/>
      <point x="543" y="44"/>
      <point x="622" y="40" type="curve"/>
      <point x="622" y="0" type="line"/>
      <point x="232" y="0" type="line"/>
      <point x="232" y="40" type="line"/>
      <point x="325" y="44"/>
      <point x="335" y="100"/>
      <point x="335" y="175" type="curve" smooth="yes"/>
      <point x="335" y="212" type="line"/>
      <point x="24" y="212" type="line"/>
    </contour>
    <contour>
      <point x="335" y="538" type="line"/>
      <point x="331" y="538" type="line"/>
      <point x="121" y="279" type="line"/>
      <point x="335" y="279" type="line"/>
    </contour>
  </outline>
</glyph>
<glyph name="five" format="1">
  <advance width="630"/>
  <unicode hex="0035"/>
  <outline>
    <contour>
      <point x="237" y="533" type="line"/>
      <point x="404" y="528" type="line" smooth="yes"/>
      <point x="549" y="524"/>
      <point x="585" y="582"/>
      <point x="605" y="710" type="curve"/>
      <point x="598" y="710" type="line"/>
      <point x="568" y="699"/>
      <point x="510" y="693"/>
      <point x="433" y="693" type="curve" smooth="yes"/>
      <point x="369" y="693"/>
      <point x="252" y="698"/>
      <point x="213" y="710" type="curve"/>
      <point x="100" y="294" type="line" smooth="yes"/>
      <point x="94" y="273"/>
      <point x="101" y="253"/>
      <point x="126" y="253" type="curve" smooth="yes"/>
      <point x="146" y="253"/>
      <point x="161" y="262"/>
      <point x="174" y="294" type="curve" smooth="yes"/>
      <point x="195" y="353"/>
      <point x="228" y="378"/>
      <point x="274" y="378" type="curve" smooth="yes"/>
      <point x="334" y="378"/>
      <point x="360" y="330"/>
      <point x="360" y="239" type="curve" smooth="yes"/>
      <point x="360" y="118"/>
      <point x="326.0" y="46.0"/>
      <point x="229" y="46" type="curve" smooth="yes"/>
      <point x="98" y="46"/>
      <point x="181" y="205"/>
      <point x="75" y="205" type="curve" smooth="yes"/>
      <point x="30" y="205"/>
      <point x="4" y="179"/>
      <point x="4" y="137" type="curve" smooth="yes"/>
      <point x="4" y="46"/>
      <point x="100" y="-9"/>
      <point x="225" y="-9" type="curve" smooth="yes"/>
      <point x="409.0" y="-9.0"/>
      <point x="574" y="69"/>
      <point x="574" y="242" type="curve"/>
      <point x="574" y="338"/>
      <point x="514" y="441"/>
      <point x="337" y="441" type="curve" smooth="yes"/>
      <point x="274" y="441"/>
      <point x="225" y="419"/>
      <point x="199" y="395" type="curve"/>
      <point x="197" y="398" type="line"/>
    </contour>
  </outline>
</glyph>
<glyph name="six" format="1">
  <advance width="713"/>
  <unicode hex="0036"/>
  <outline>
    <contour>
      <point x="676" y="242" type="curve" smooth="yes"/>
      <point x="676" y="371"/>
      <point x="580" y="457"/>
      <point x="440" y="457" type="curve"/>
      <point x="357" y="457"/>
      <point x="310" y="430"/>
      <point x="268" y="399" type="curve"/>
      <point x="266" y="401" type="line"/>
      <point x="266" y="544"/>
      <point x="320" y="653"/>
      <point x="411" y="653" type="curve"/>
      <point x="506" y="653"/>
      <point x="484" y="531"/>
      <point x="564" y="531" type="curve" smooth="yes"/>
      <point x="610" y="531"/>
      <point x="628" y="559"/>
      <point x="628" y="593" type="curve"/>
      <point x="628" y="660"/>
      <point x="539" y="710"/>
      <point x="427" y="710" type="curve"/>
      <point x="217" y="710"/>
      <point x="50" y="543"/>
      <point x="50" y="307" type="curve"/>
      <point x="50" y="123"/>
      <point x="159" y="-9"/>
      <point x="362" y="-9" type="curve" smooth="yes"/>
      <point x="563" y="-9"/>
      <point x="676" y="101"/>
    </contour>
    <contour>
      <point x="264" y="337" type="line"/>
      <point x="297" y="371"/>
      <point x="336" y="395"/>
      <point x="378" y="395" type="curve" smooth="yes"/>
      <point x="450" y="395"/>
      <point x="469" y="337"/>
      <point x="469" y="227" type="curve" smooth="yes"/>
      <point x="469" y="105"/>
      <point x="442" y="47"/>
      <point x="366" y="47" type="curve" smooth="yes"/>
      <point x="288" y="47"/>
      <point x="264" y="99"/>
      <point x="264" y="204" type="curve"/>
    </contour>
  </outline>
</glyph>
<glyph name="seven" format="1">
  <advance width="569"/>
  <unicode hex="0037"/>
  <outline>
    <contour>
      <point x="175" y="204" type="line" smooth="yes"/>
      <point x="132" y="142"/>
      <point x="112" y="99"/>
      <point x="112" y="64" type="curve" smooth="yes"/>
      <point x="112" y="20"/>
      <point x="140" y="-9"/>
      <point x="195" y="-9" type="curve"/>
      <point x="248" y="-9"/>
      <point x="284" y="21"/>
      <point x="306" y="75" type="curve" smooth="yes"/>
      <point x="400" y="309"/>
      <point x="427" y="363"/>
      <point x="573" y="652" type="curve"/>
      <point x="573" y="700" type="line"/>
      <point x="208" y="700" type="line"/>
      <point x="150" y="700"/>
      <point x="130" y="708"/>
      <point x="130" y="730" type="curve" smooth="yes"/>
      <point x="130" y="738"/>
      <point x="132" y="743"/>
      <point x="136" y="758" type="curve"/>
      <point x="94" y="758" type="line"/>
      <point x="3" y="446" type="line"/>
      <point x="42" y="446" type="line"/>
      <point x="59" y="484" type="line"/>
      <point x="78" y="527"/>
      <point x="99" y="533"/>
      <point x="207" y="533" type="curve" smooth="yes"/>
      <point x="405" y="533" type="line"/>
    </contour>
  </outline>
</glyph>
<glyph name="eight" format="1">
  <advance width="671"/>
  <unicode hex="0038"/>
  <outline>
    <contour>
      <point x="465" y="139" type="curve" smooth="yes"/>
      <point x="465" y="89"/>
      <point x="428" y="44"/>
      <point x="336" y="44" type="curve" smooth="yes"/>
      <point x="236" y="44"/>
      <point x="183" y="101"/>
      <point x="183" y="164" type="curve" smooth="yes"/>
      <point x="183" y="234"/>
      <point x="217" y="293"/>
      <point x="254" y="338" type="curve"/>
      <point x="189" y="353" type="line"/>
      <point x="95" y="312"/>
      <point x="34" y="251"/>
      <point x="34" y="173" type="curve" smooth="yes"/>
      <point x="34" y="50"/>
      <point x="169" y="-9"/>
      <point x="315" y="-9" type="curve" smooth="yes"/>
      <point x="485" y="-9"/>
      <point x="597" y="79"/>
      <point x="597" y="209" type="curve"/>
      <point x="597" y="323"/>
      <point x="519" y="390"/>
      <point x="428" y="427" type="curve" smooth="yes"/>
      <point x="311" y="474" type="line" smooth="yes"/>
      <point x="238" y="503"/>
      <point x="188" y="527"/>
      <point x="188" y="581" type="curve"/>
      <point x="188" y="625"/>
      <point x="241" y="654"/>
      <point x="319" y="654" type="curve" smooth="yes"/>
      <point x="409" y="654"/>
      <point x="446" y="602"/>
      <point x="446" y="552" type="curve" smooth="yes"/>
      <point x="446" y="506"/>
      <point x="413" y="461"/>
      <point x="367" y="417" type="curve"/>
      <point x="441" y="389" type="line"/>
      <point x="512" y="414"/>
      <point x="583" y="462"/>
      <point x="583" y="537" type="curve" smooth="yes"/>
      <point x="583" y="626"/>
      <point x="488" y="709"/>
      <point x="331" y="709" type="curve"/>
      <point x="165" y="709"/>
      <point x="57" y="617"/>
      <point x="57" y="506" type="curve" smooth="yes"/>
      <point x="57" y="392"/>
      <point x="135" y="335"/>
      <point x="228" y="298" type="curve" smooth="yes"/>
      <point x="336" y="255" type="line" smooth="yes"/>
      <point x="408" y="226"/>
      <point x="465" y="196"/>
    </contour>
  </outline>
</glyph>
<glyph name="nine" format="1">
  <advance width="713"/>
  <unicode hex="0039"/>
  <outline>
    <contour>
      <point x="40" y="459" type="curve" smooth="yes"/>
      <point x="40" y="330"/>
      <point x="136" y="244"/>
      <point x="276" y="244" type="curve"/>
      <point x="359" y="244"/>
      <point x="406" y="271"/>
      <point x="448" y="302" type="curve"/>
      <point x="450" y="300" type="line"/>
      <point x="450" y="157"/>
      <point x="396" y="48"/>
      <point x="305" y="48" type="curve"/>
      <point x="210" y="48"/>
      <point x="235" y="170"/>
      <point x="155" y="170" type="curve" smooth="yes"/>
      <point x="109" y="170"/>
      <point x="88" y="142"/>
      <point x="88" y="108" type="curve"/>
      <point x="88" y="41"/>
      <point x="177" y="-9"/>
      <point x="289" y="-9" type="curve"/>
      <point x="499" y="-9"/>
      <point x="666" y="158"/>
      <point x="666" y="394" type="curve"/>
      <point x="666" y="578"/>
      <point x="557" y="710"/>
      <point x="354" y="710" type="curve" smooth="yes"/>
      <point x="153" y="710"/>
      <point x="40" y="600"/>
    </contour>
    <contour>
      <point x="452" y="364" type="line"/>
      <point x="419" y="330"/>
      <point x="380" y="306"/>
      <point x="338" y="306" type="curve" smooth="yes"/>
      <point x="266" y="306"/>
      <point x="247" y="364"/>
      <point x="247" y="474" type="curve" smooth="yes"/>
      <point x="247" y="596"/>
      <point x="281" y="654"/>
      <point x="357" y="654" type="curve" smooth="yes"/>
      <point x="435" y="654"/>
      <point x="452" y="602"/>
      <point x="452" y="497" type="curve"/>
    </contour>
  </outline>
</glyph>
<glyph name="less" format="1">
  <advance width="573"/>
  <unicode hex="003C"/>
  <outline>
    <contour>
      <point x="98" y="322" type="line"/>
      <point x="503" y="503" type="line"/>
      <point x="503" y="575" type="line"/>
      <point x="33" y="352" type="line"/>
      <point x="33" y="292" type="line"/>
      <point x="503" y="69" type="line"/>
      <point x="503" y="142" type="line"/>
    </contour>
  </outline>
</glyph>
<glyph name="greater" format="1">
  <advance width="573"/>
  <unicode hex="003E"/>
  <outline>
    <contour>
      <point x="71" y="142" type="line"/>
      <point x="71" y="69" type="line"/>
      <point x="540" y="292" type="line"/>
      <point x="540" y="352" type="line"/>
      <point x="71" y="575" type="line"/>
      <point x="71" y="503" type="line"/>
      <point x="476" y="322" type="line"/>
    </contour>
  </outline>
</glyph>
<glyph name="A" format="1">
  <advance width="820"/>
  <unicode hex="0041"/>
  <outline>
    <contour>
      <point x="486" y="167" type="line" smooth="yes"/>
      <point x="503" y="129"/>
      <point x="513" y="95"/>
      <point x="513" y="80" type="curve" smooth="yes"/>
      <point x="513" y="49"/>
      <point x="489" y="44"/>
      <point x="431" y="41" type="curve"/>
      <point x="431" y="0" type="line"/>
      <point x="845" y="0" type="line"/>
      <point x="845" y="41" type="line"/>
      <point x="749" y="53"/>
      <point x="744" y="63"/>
      <point x="688" y="184" type="curve" smooth="yes"/>
      <point x="446" y="709" type="line"/>
      <point x="357" y="709" type="line"/>
      <point x="104" y="117" type="line" smooth="yes"/>
      <point x="80" y="61"/>
      <point x="57" y="46"/>
      <point x="-6" y="40" type="curve"/>
      <point x="-6" y="0" type="line"/>
      <point x="271" y="0" type="line"/>
      <point x="271" y="40" type="line"/>
      <point x="212" y="40"/>
      <point x="179" y="42"/>
      <point x="179" y="76" type="curve"/>
      <point x="179" y="94"/>
      <point x="186" y="115"/>
      <point x="220" y="203" type="curve"/>
      <point x="470" y="203" type="line"/>
    </contour>
    <contour>
      <point x="348" y="520" type="line"/>
      <point x="443" y="264" type="line"/>
      <point x="245" y="264" type="line"/>
    </contour>
    <contour>
      <point x="389" y="795" type="move" name="topcap"/>
    </contour>
    <contour>
      <point x="650" y="0" type="move" name="bottom"/>
    </contour>
  </outline>
</glyph>
<glyph name="B" format="1">
  <advance width="830"/>
  <unicode hex="0042"/>
  <outline>
    <contour>
      <point x="29" y="0" type="line"/>
      <point x="29" y="40" type="line"/>
      <point x="110" y="43"/>
      <point x="124" y="59"/>
      <point x="124" y="148" type="curve" smooth="yes"/>
      <point x="124" y="552" type="line"/>
      <point x="124" y="641"/>
      <point x="113" y="658"/>
      <point x="50" y="660" type="curve"/>
      <point x="50" y="700" type="line"/>
      <point x="405" y="700" type="line"/>
      <point x="603" y="700"/>
      <point x="718" y="646"/>
      <point x="718" y="531" type="curve" smooth="yes"/>
      <point x="718" y="449"/>
      <point x="654" y="402"/>
      <point x="528" y="382" type="curve"/>
      <point x="528" y="380" type="line"/>
      <point x="667" y="375"/>
      <point x="767" y="311"/>
      <point x="767" y="200" type="curve" smooth="yes"/>
      <point x="767" y="57"/>
      <point x="624" y="0"/>
      <point x="419" y="0" type="curve" smooth="yes"/>
    </contour>
    <contour>
      <point x="422" y="67" type="curve"/>
      <point x="520.0" y="67.0"/>
      <point x="560.0" y="107.325203252"/>
      <point x="560" y="191" type="curve"/>
      <point x="560.0" y="297.711409396"/>
      <point x="489.0" y="341.0"/>
      <point x="382" y="341" type="curve"/>
      <point x="321" y="341" type="line"/>
      <point x="321" y="182" type="line"/>
      <point x="321.0" y="94.5619834711"/>
      <point x="362.0" y="67.0"/>
    </contour>
    <contour>
      <point x="392" y="401" type="line"/>
      <point x="476.0" y="401.0"/>
      <point x="513.0" y="450.426086957"/>
      <point x="513" y="517" type="curve" smooth="yes"/>
      <point x="513.0" y="600.697478992"/>
      <point x="485.0" y="637"/>
      <point x="376" y="637" type="curve" smooth="yes"/>
      <point x="343" y="637" type="line" smooth="yes"/>
      <point x="329" y="637"/>
      <point x="321" y="630"/>
      <point x="321" y="617" type="curve" smooth="yes"/>
      <point x="321" y="401" type="line"/>
    </contour>
  </outline>
</glyph>
<glyph name="C" format="1">
  <advance width="821"/>
  <unicode hex="0043"/>
  <outline>
    <contour>
      <point x="479" y="641" type="curve"/>
      <point x="595" y="641"/>
      <point x="663" y="561"/>
      <point x="704" y="448" type="curve"/>
      <point x="737" y="448" type="line"/>
      <point x="760" y="700" type="line"/>
      <point x="707" y="700" type="line"/>
      <point x="689" y="641" type="line"/>
      <point x="621" y="684"/>
      <point x="559" y="710"/>
      <point x="470" y="710" type="curve"/>
      <point x="233" y="710"/>
      <point x="64" y="558"/>
      <point x="64" y="335" type="curve"/>
      <point x="64" y="128"/>
      <point x="223" y="-9"/>
      <point x="438" y="-9" type="curve"/>
      <point x="550" y="-9"/>
      <point x="623" y="19"/>
      <point x="695" y="75" type="curve"/>
      <point x="704" y="0" type="line"/>
      <point x="754" y="0" type="line"/>
      <point x="754" y="270" type="line"/>
      <point x="711" y="270" type="line"/>
      <point x="675" y="131"/>
      <point x="602" y="60"/>
      <point x="474" y="60" type="curve"/>
      <point x="337" y="60"/>
      <point x="284" y="151"/>
      <point x="284" y="337" type="curve"/>
      <point x="284" y="538"/>
      <point x="340" y="641"/>
    </contour>
    <contour>
      <point x="467.0" y="795.0" type="move" name="topcap"/>
    </contour>
    <contour>
      <point x="451.0" y="0.0" type="move" name="bottom"/>
    </contour>
  </outline>
</glyph>
<glyph name="K" format="1">
  <advance width="830"/>
  <unicode hex="004B"/>
  <outline>
    <contour>
      <point x="324" y="274" type="line"/>
      <point x="324" y="156" type="line"/>
      <point x="324" y="60"/>
      <point x="336" y="44"/>
      <point x="409" y="40" type="curve"/>
      <point x="409" y="0" type="line"/>
      <point x="29" y="0" type="line"/>
      <point x="29" y="40" type="line"/>
      <point x="113" y="44"/>
      <point x="127" y="59"/>
      <point x="127" y="148" type="curve" smooth="yes"/>
      <point x="127" y="552" type="line"/>
      <point x="127" y="636"/>
      <point x="117" y="656"/>
      <point x="40" y="660" type="curve"/>
      <point x="40" y="700" type="line"/>
      <point x="426" y="700" type="line"/>
      <point x="426" y="660" type="line"/>
      <point x="336" y="657"/>
      <point x="324" y="640"/>
      <point x="324" y="545" type="curve" smooth="yes"/>
      <point x="324" y="371" type="line"/>
      <point x="588" y="600" type="line" smooth="yes"/>
      <point x="608" y="617"/>
      <point x="613" y="627"/>
      <point x="613" y="637" type="curve" smooth="yes"/>
      <point x="613" y="651"/>
      <point x="594" y="660"/>
      <point x="540" y="660" type="curve"/>
      <point x="540" y="700" type="line"/>
      <point x="817" y="700" type="line"/>
      <point x="817" y="661" type="line"/>
      <point x="757" y="658"/>
      <point x="740" y="640"/>
      <point x="652" y="562" type="curve" smooth="yes"/>
    </contour>
    <contour>
      <point x="531" y="495" type="line"/>
      <point x="748" y="90" type="line" smooth="yes"/>
      <point x="768.364636678" y="51.9922679519"/>
      <point x="801.319816244" y="42.2674390718"/>
      <point x="841" y="40" type="curve"/>
      <point x="841" y="0" type="line"/>
      <point x="465" y="0" type="line"/>
      <point x="465" y="40" type="line"/>
      <point x="500" y="40"/>
      <point x="512" y="48"/>
      <point x="512" y="67" type="curve"/>
      <point x="512" y="81"/>
      <point x="505" y="98"/>
      <point x="495" y="118" type="curve" smooth="yes"/>
      <point x="369" y="382" type="line"/>
    </contour>
    <contour>
      <point x="469.0" y="0.0" type="move" name="bottom"/>
    </contour>
  </outline>
</glyph>
<glyph name="L" format="1">
  <advance width="755"/>
  <unicode hex="004C"/>
  <outline>
    <contour>
      <point x="698" y="0" type="line"/>
      <point x="29" y="0" type="line"/>
      <point x="29" y="40" type="line"/>
      <point x="112" y="43"/>
      <point x="127" y="59"/>
      <point x="127" y="148" type="curve" smooth="yes"/>
      <point x="127" y="552" type="line"/>
      <point x="127" y="641"/>
      <point x="114" y="658"/>
      <point x="40" y="660" type="curve"/>
      <point x="40" y="700" type="line"/>
      <point x="426" y="700" type="line"/>
      <point x="426" y="660" type="line"/>
      <point x="339" y="659"/>
      <point x="324" y="643"/>
      <point x="324" y="545" type="curve" smooth="yes"/>
      <point x="324" y="186" type="line"/>
      <point x="324.0" y="80.0"/>
      <point x="363.6" y="58.0"/>
      <point x="489" y="58" type="curve" smooth="yes"/>
      <point x="606" y="58"/>
      <point x="645" y="91"/>
      <point x="675" y="231" type="curve"/>
      <point x="715" y="231" type="line"/>
    </contour>
    <contour>
      <point x="263" y="795" type="move" name="topcap"/>
    </contour>
    <contour>
      <point x="443" y="0" type="move" name="bottom"/>
    </contour>
  </outline>
</glyph>
<glyph name="N" format="1">
  <advance width="922"/>
  <unicode hex="004E"/>
  <outline>
    <contour>
      <point x="648" y="-9" type="line"/>
      <point x="241" y="548" type="line"/>
      <point x="237" y="548" type="line"/>
      <point x="237" y="184" type="line"/>
      <point x="237" y="58"/>
      <point x="251" y="43"/>
      <point x="339" y="40" type="curve"/>
      <point x="339" y="0" type="line"/>
      <point x="42" y="0" type="line"/>
      <point x="42" y="40" type="line"/>
      <point x="138" y="43"/>
      <point x="155" y="59"/>
      <point x="155" y="178" type="curve" smooth="yes"/>
      <point x="155" y="524" type="line"/>
      <point x="155" y="631"/>
      <point x="140" y="658"/>
      <point x="52" y="660" type="curve"/>
      <point x="52" y="700" type="line"/>
      <point x="370" y="700" type="line"/>
      <point x="693" y="240" type="line"/>
      <point x="697" y="240" type="line"/>
      <point x="697" y="516" type="line"/>
      <point x="697" y="642"/>
      <point x="681" y="659"/>
      <point x="595" y="660" type="curve"/>
      <point x="595" y="700" type="line"/>
      <point x="892" y="700" type="line"/>
      <point x="892" y="660" type="line"/>
      <point x="795" y="659"/>
      <point x="779" y="643"/>
      <point x="779" y="524" type="curve" smooth="yes"/>
      <point x="779" y="-9" type="line"/>
    </contour>
    <contour>
      <point x="493" y="795" type="move" name="topcap"/>
    </contour>
    <contour>
      <point x="486" y="0" type="move" name="bottom"/>
    </contour>
  </outline>
</glyph>
<glyph name="Q" format="1">
  <advance width="904"/>
  <unicode hex="0051"/>
  <outline>
    <contour>
      <point x="754" y="-264" type="curve"/>
      <point x="854" y="-264"/>
      <point x="895" y="-193"/>
      <point x="895" y="-110" type="curve" smooth="yes"/>
      <point x="895" y="-97"/>
      <point x="894" y="-84"/>
      <point x="891" y="-69" type="curve"/>
      <point x="870" y="-69" type="line"/>
      <point x="853" y="-104"/>
      <point x="799" y="-115"/>
      <point x="723" y="-115" type="curve"/>
      <point x="608" y="-115"/>
      <point x="487" y="-92"/>
      <point x="385" y="-93" type="curve"/>
      <point x="730.27907359" y="3.98850381735"/>
      <point x="879.0" y="149.0"/>
      <point x="879" y="339" type="curve"/>
      <point x="879.0" y="549.0"/>
      <point x="687.859122402" y="710.0"/>
      <point x="461" y="710" type="curve" smooth="yes"/>
      <point x="235.29787234" y="710.0"/>
      <point x="53.0" y="552.0"/>
      <point x="53" y="339" type="curve"/>
      <point x="53.0" y="159.0"/>
      <point x="172.945457848" y="4.86337624594"/>
      <point x="408" y="-22" type="curve"/>
      <point x="269" y="-91" type="line" smooth="yes"/>
      <point x="214" y="-118"/>
      <point x="193" y="-136"/>
      <point x="193" y="-161" type="curve"/>
      <point x="193" y="-183"/>
      <point x="211" y="-197"/>
      <point x="237" y="-197" type="curve" smooth="yes"/>
      <point x="288" y="-197"/>
      <point x="316" y="-148"/>
      <point x="385" y="-148" type="curve" smooth="yes"/>
      <point x="514" y="-148"/>
      <point x="632" y="-264"/>
    </contour>
    <contour>
      <point x="460" y="33" type="curve" smooth="yes"/>
      <point x="331.373134328" y="33.0"/>
      <point x="274.0" y="155.0"/>
      <point x="274" y="346" type="curve"/>
      <point x="274.0" y="531.0"/>
      <point x="330.447761194" y="643.0"/>
      <point x="460" y="643" type="curve" smooth="yes"/>
      <point x="592.929577465" y="643.0"/>
      <point x="658.0" y="526.0"/>
      <point x="658" y="346" type="curve"/>
      <point x="658.0" y="161.0"/>
      <point x="592.0" y="33.0"/>
    </contour>
  </outline>
</glyph>
<glyph name="R" format="1">
  <advance width="834"/>
  <unicode hex="0052"/>
  <outline>
    <contour>
      <point x="739" y="509" type="curve" smooth="yes"/>
      <point x="739" y="635"/>
      <point x="624" y="700"/>
      <point x="413" y="700" type="curve" smooth="yes"/>
      <point x="40" y="700" type="line"/>
      <point x="40" y="660" type="line"/>
      <point x="117" y="658"/>
      <point x="127" y="641"/>
      <point x="127" y="552" type="curve" smooth="yes"/>
      <point x="127" y="148" type="line"/>
      <point x="127" y="59"/>
      <point x="111" y="38"/>
      <point x="29" y="40" type="curve"/>
      <point x="29" y="0" type="line"/>
      <point x="436" y="0" type="line"/>
      <point x="436" y="40" type="line"/>
      <point x="343" y="40"/>
      <point x="324" y="59"/>
      <point x="324" y="153" type="curve" smooth="yes"/>
      <point x="324" y="330" type="line"/>
      <point x="328" y="325"/>
      <point x="334" y="319"/>
      <point x="360" y="282" type="curve" smooth="yes"/>
      <point x="561" y="0" type="line"/>
      <point x="861" y="0" type="line"/>
      <point x="861" y="40" type="line"/>
      <point x="815" y="40"/>
      <point x="783" y="49"/>
      <point x="748" y="88" type="curve" smooth="yes"/>
      <point x="522" y="337" type="line"/>
      <point x="667" y="353"/>
      <point x="739" y="407"/>
    </contour>
    <contour>
      <point x="324" y="626" type="line"/>
      <point x="324" y="636"/>
      <point x="329" y="642"/>
      <point x="342" y="642" type="curve" smooth="yes"/>
      <point x="399" y="642" type="line"/>
      <point x="493" y="642"/>
      <point x="526" y="583"/>
      <point x="526" y="518" type="curve" smooth="yes"/>
      <point x="526" y="417"/>
      <point x="490" y="380"/>
      <point x="374" y="380" type="curve" smooth="yes"/>
      <point x="324" y="380" type="line"/>
    </contour>
    <contour>
      <point x="430" y="795" type="move" name="topcap"/>
    </contour>
    <contour>
      <point x="469" y="0" type="move" name="bottom"/>
    </contour>
  </outline>
</glyph>
<glyph name="S" format="1">
  <advance width="670"/>
  <unicode hex="0053"/>
  <outline>
    <contour>
      <point x="56" y="-5" type="line"/>
      <point x="93" y="-5" type="line"/>
      <point x="109" y="63" type="line"/>
      <point x="169.792647723" y="21.7846456116"/>
      <point x="260" y="-9"/>
      <point x="354" y="-9" type="curve"/>
      <point x="510" y="-9"/>
      <point x="631" y="81"/>
      <point x="631" y="204" type="curve" smooth="yes"/>
      <point x="631" y="299"/>
      <point x="583" y="360"/>
      <point x="437" y="425" type="curve" smooth="yes"/>
      <point x="351" y="463" type="line" smooth="yes"/>
      <point x="237" y="513"/>
      <point x="203" y="532"/>
      <point x="203" y="576" type="curve"/>
      <point x="203" y="620"/>
      <point x="245" y="647"/>
      <point x="304" y="647" type="curve"/>
      <point x="401" y="647"/>
      <point x="491" y="591"/>
      <point x="521" y="480" type="curve"/>
      <point x="560" y="480" type="line"/>
      <point x="560" y="694" type="line"/>
      <point x="526" y="694" type="line"/>
      <point x="504" y="642" type="line"/>
      <point x="455" y="680"/>
      <point x="394" y="710"/>
      <point x="297" y="710" type="curve"/>
      <point x="156" y="710"/>
      <point x="43" y="618"/>
      <point x="43" y="494" type="curve"/>
      <point x="43" y="392"/>
      <point x="95" y="340"/>
      <point x="200" y="292" type="curve" smooth="yes"/>
      <point x="358" y="219" type="line" smooth="yes"/>
      <point x="435" y="183"/>
      <point x="472" y="166"/>
      <point x="472" y="120" type="curve"/>
      <point x="472" y="78"/>
      <point x="438" y="53"/>
      <point x="372" y="53" type="curve"/>
      <point x="245" y="53"/>
      <point x="110.011221305" y="120.912869866"/>
      <point x="93" y="253" type="curve"/>
      <point x="56" y="253" type="line"/>
    </contour>
    <contour>
      <point x="315.0" y="795.0" type="move" name="topcap"/>
    </contour>
    <contour>
      <point x="356.0" y="-72.0" type="move" name="bottom"/>
    </contour>
  </outline>
</glyph>
<glyph name="U" format="1">
  <advance width="881"/>
  <unicode hex="0055"/>
  <outline>
    <contour>
      <point x="760" y="467" type="line"/>
      <point x="760" y="574"/>
      <point x="769" y="615"/>
      <point x="788" y="638" type="curve" smooth="yes"/>
      <point x="802" y="653"/>
      <point x="822" y="660"/>
      <point x="874" y="660" type="curve"/>
      <point x="874" y="700" type="line"/>
      <point x="547" y="700" type="line"/>
      <point x="547" y="660" type="line"/>
      <point x="602" y="660"/>
      <point x="628" y="651"/>
      <point x="644" y="632" type="curve" smooth="yes"/>
      <point x="664" y="607"/>
      <point x="671" y="570"/>
      <point x="671" y="467" type="curve" smooth="yes"/>
      <point x="671" y="294" type="line"/>
      <point x="671.0" y="144.0"/>
      <point x="616.169398907" y="81.0"/>
      <point x="498" y="81" type="curve"/>
      <point x="377.246073298" y="81.0"/>
      <point x="312" y="142.0"/>
      <point x="312" y="303" type="curve" smooth="yes"/>
      <point x="312" y="492" type="line"/>
      <point x="312" y="594"/>
      <point x="316" y="620"/>
      <point x="334" y="639" type="curve" smooth="yes"/>
      <point x="346" y="654"/>
      <point x="368" y="660"/>
      <point x="426" y="660" type="curve"/>
      <point x="426" y="700" type="line"/>
      <point x="29" y="700" type="line"/>
      <point x="29" y="660" type="line"/>
      <point x="76" y="660"/>
      <point x="92" y="655"/>
      <point x="101" y="637" type="curve" smooth="yes"/>
      <point x="110" y="619"/>
      <point x="115" y="592"/>
      <point x="115" y="492" type="curve" smooth="yes"/>
      <point x="115" y="303" type="line"/>
      <point x="115.0" y="96.0"/>
      <point x="223.41954023" y="-9.0"/>
      <point x="458" y="-9" type="curve" smooth="yes"/>
      <point x="648.685897436" y="-9.0"/>
      <point x="760" y="80.0"/>
      <point x="760" y="303" type="curve" smooth="yes"/>
    </contour>
    <contour>
      <point x="502.0" y="795.0" type="move" name="topcap"/>
    </contour>
    <contour>
      <point x="493.0" y="0.0" type="move" name="bottom"/>
    </contour>
  </outline>
</glyph>
<glyph name="V" format="1">
  <advance width="849"/>
  <unicode hex="0056"/>
  <outline>
    <contour>
      <point x="334" y="550" type="line" smooth="yes"/>
      <point x="321" y="580"/>
      <point x="316" y="600"/>
      <point x="316" y="617" type="curve" smooth="yes"/>
      <point x="316" y="645"/>
      <point x="335" y="658"/>
      <point x="400" y="659" type="curve"/>
      <point x="400" y="700" type="line"/>
      <point x="-9" y="700" type="line"/>
      <point x="-9" y="659" type="line"/>
      <point x="58" y="659"/>
      <point x="72" y="631"/>
      <point x="139" y="494" type="curve" smooth="yes"/>
      <point x="383" y="-9" type="line"/>
      <point x="485" y="-9" type="line"/>
      <point x="743" y="583" type="line" smooth="yes"/>
      <point x="766" y="636"/>
      <point x="805" y="664"/>
      <point x="856" y="660" type="curve"/>
      <point x="856" y="700" type="line"/>
      <point x="551" y="700" type="line"/>
      <point x="551" y="660" type="line"/>
      <point x="620" y="660"/>
      <point x="649" y="646"/>
      <point x="649" y="604" type="curve" smooth="yes"/>
      <point x="649" y="566"/>
      <point x="624" y="505"/>
      <point x="582" y="411" type="curve" smooth="yes"/>
      <point x="487" y="200" type="line"/>
    </contour>
  </outline>
</glyph>
<glyph name="X" format="1">
  <advance width="1024"/>
  <unicode hex="0058"/>
  <outline>
    <contour>
      <point x="481" y="307" type="line"/>
      <point x="610" y="144" type="line" smooth="yes"/>
      <point x="639" y="107"/>
      <point x="655" y="79"/>
      <point x="655" y="63" type="curve" smooth="yes"/>
      <point x="655" y="47"/>
      <point x="640" y="40"/>
      <point x="593" y="40" type="curve"/>
      <point x="593" y="0" type="line"/>
      <point x="977" y="0" type="line"/>
      <point x="977" y="40" type="line"/>
      <point x="928.475728155" y="40.0"/>
      <point x="902.033128153" y="73.2275488681"/>
      <point x="875" y="108" type="curve" smooth="yes"/>
      <point x="627" y="427" type="line"/>
      <point x="611" y="442" type="line"/>
      <point x="510" y="567" type="line" smooth="yes"/>
      <point x="492.824016033" y="588.257405899"/>
      <point x="481.0" y="610.032258065"/>
      <point x="481" y="625" type="curve" smooth="yes"/>
      <point x="481" y="648"/>
      <point x="498" y="660"/>
      <point x="542" y="660" type="curve"/>
      <point x="542" y="700" type="line"/>
      <point x="130" y="700" type="line"/>
      <point x="130" y="660" type="line"/>
      <point x="168" y="660"/>
      <point x="189" y="655"/>
      <point x="225" y="611" type="curve" smooth="yes"/>
      <point x="466" y="319" type="line"/>
    </contour>
    <contour>
      <point x="478" y="383" type="line"/>
      <point x="232" y="84" type="line" smooth="yes"/>
      <point x="200" y="46"/>
      <point x="182" y="40"/>
      <point x="112" y="40" type="curve"/>
      <point x="112" y="0" type="line"/>
      <point x="430" y="0" type="line"/>
      <point x="430" y="40" type="line"/>
      <point x="379" y="40"/>
      <point x="357" y="49"/>
      <point x="357" y="69" type="curve" smooth="yes"/>
      <point x="357" y="86"/>
      <point x="368" y="105"/>
      <point x="397" y="142" type="curve" smooth="yes"/>
      <point x="537" y="317" type="line"/>
    </contour>
    <contour>
      <point x="638" y="348" type="line"/>
      <point x="842" y="605" type="line" smooth="yes"/>
      <point x="878" y="650"/>
      <point x="910" y="660"/>
      <point x="958" y="660" type="curve"/>
      <point x="958" y="700" type="line"/>
      <point x="664" y="700" type="line"/>
      <point x="664" y="660" type="line"/>
      <point x="719" y="660"/>
      <point x="737" y="647"/>
      <point x="737" y="628" type="curve" smooth="yes"/>
      <point x="737" y="617"/>
      <point x="734" y="606"/>
      <point x="720" y="588" type="curve" smooth="yes"/>
      <point x="587" y="415" type="line"/>
    </contour>
  </outline>
</glyph>
<glyph name="Y" format="1">
  <advance width="784"/>
  <unicode hex="0059"/>
  <outline>
    <contour>
      <point x="106" y="578" type="line" smooth="yes"/>
      <point x="67" y="645"/>
      <point x="45" y="660"/>
      <point x="-3" y="660" type="curve"/>
      <point x="-3" y="700" type="line"/>
      <point x="372" y="700" type="line"/>
      <point x="372" y="660" type="line"/>
      <point x="325" y="660"/>
      <point x="312" y="646"/>
      <point x="312" y="628" type="curve" smooth="yes"/>
      <point x="312" y="616"/>
      <point x="313" y="605"/>
      <point x="331" y="571" type="curve" smooth="yes"/>
      <point x="444" y="352" type="line"/>
      <point x="448" y="352" type="line"/>
      <point x="557" y="543" type="line" smooth="yes"/>
      <point x="580" y="583"/>
      <point x="592" y="614"/>
      <point x="592" y="628" type="curve" smooth="yes"/>
      <point x="592" y="652"/>
      <point x="572" y="660"/>
      <point x="531" y="660" type="curve"/>
      <point x="531" y="700" type="line"/>
      <point x="783" y="700" type="line"/>
      <point x="783" y="660" type="line"/>
      <point x="726" y="660"/>
      <point x="692" y="631"/>
      <point x="603" y="471" type="curve" smooth="yes"/>
      <point x="492" y="271" type="line"/>
      <point x="492" y="184" type="line"/>
      <point x="492" y="56"/>
      <point x="513" y="40"/>
      <point x="590" y="40" type="curve"/>
      <point x="590" y="0" type="line"/>
      <point x="197" y="0" type="line"/>
      <point x="197" y="40" type="line"/>
      <point x="270" y="40"/>
      <point x="295" y="55"/>
      <point x="295" y="178" type="curve" smooth="yes"/>
      <point x="295" y="251" type="line"/>
    </contour>
    <contour>
      <point x="411" y="795" type="move" name="topcap"/>
    </contour>
  </outline>
</glyph>
<glyph name="bracketleft" format="1">
  <advance width="419"/>
  <unicode hex="005B"/>
  <outline>
    <contour>
      <point x="410" y="733" type="line"/>
      <point x="410" y="785" type="line"/>
      <point x="88" y="785" type="line"/>
      <point x="88" y="-143" type="line"/>
      <point x="410" y="-143" type="line"/>
      <point x="410" y="-91" type="line"/>
      <point x="254" y="-91" type="line"/>
      <point x="254" y="733" type="line"/>
    </contour>
  </outline>
</glyph>
<glyph name="bracketright" format="1">
  <advance width="419"/>
  <unicode hex="005D"/>
  <outline>
    <contour>
      <point x="164" y="733" type="line"/>
      <point x="164" y="-91" type="line"/>
      <point x="8" y="-91" type="line"/>
      <point x="8" y="-143" type="line"/>
      <point x="331" y="-143" type="line"/>
      <point x="331" y="785" type="line"/>
      <point x="8" y="785" type="line"/>
      <point x="8" y="733" type="line"/>
    </contour>
  </outline>
</glyph>
<glyph name="a" format="1">
  <advance width="613"/>
  <unicode hex="0061"/>
  <outline>
    <contour>
      <point x="327" y="169" type="line" smooth="yes"/>
      <point x="327" y="133"/>
      <point x="316" y="93"/>
      <point x="270" y="93" type="curve" smooth="yes"/>
      <point x="238" y="93"/>
      <point x="215" y="117"/>
      <point x="215" y="155" type="curve"/>
      <point x="215" y="198"/>
      <point x="250" y="236"/>
      <point x="327" y="255" type="curve"/>
    </contour>
    <contour>
      <point x="225" y="285" type="line" smooth="yes"/>
      <point x="95" y="253"/>
      <point x="41" y="199"/>
      <point x="41" y="124" type="curve" smooth="yes"/>
      <point x="41" y="33"/>
      <point x="103" y="-9"/>
      <point x="180" y="-9" type="curve"/>
      <point x="256" y="-9"/>
      <point x="304.712138842" y="24.492455326"/>
      <point x="343" y="92" type="curve"/>
      <point x="348" y="92" type="line"/>
      <point x="348" y="27"/>
      <point x="389" y="-9"/>
      <point x="464" y="-9" type="curve"/>
      <point x="512" y="-9"/>
      <point x="558" y="8"/>
      <point x="595" y="42" type="curve"/>
      <point x="580" y="73" type="line"/>
      <point x="575" y="70"/>
      <point x="563" y="65"/>
      <point x="553" y="65" type="curve"/>
      <point x="538" y="65"/>
      <point x="522" y="70"/>
      <point x="522" y="98" type="curve"/>
      <point x="522" y="306" type="line"/>
      <point x="522" y="459"/>
      <point x="426" y="517"/>
      <point x="276" y="517" type="curve" smooth="yes"/>
      <point x="147" y="517"/>
      <point x="66" y="475"/>
      <point x="66" y="402" type="curve" smooth="yes"/>
      <point x="66" y="357"/>
      <point x="100" y="332"/>
      <point x="140" y="332" type="curve"/>
      <point x="188" y="332"/>
      <point x="217" y="370"/>
      <point x="229" y="400" type="curve" smooth="yes"/>
      <point x="247" y="444"/>
      <point x="258" y="468"/>
      <point x="286" y="468" type="curve"/>
      <point x="330" y="468"/>
      <point x="327" y="435"/>
      <point x="327" y="363" type="curve" smooth="yes"/>
      <point x="327" y="310" type="line"/>
    </contour>
    <contour>
      <point x="242.0" y="623.0" type="move" name="top"/>
    </contour>
    <contour>
      <point x="428.0" y="0.0" type="move" name="bottom"/>
    </contour>
  </outline>
</glyph>
<glyph name="c" format="1">
  <advance width="569"/>
  <unicode hex="0063"/>
  <outline>
    <contour>
      <point x="514" y="114" type="line"/>
      <point x="463" y="82"/>
      <point x="416" y="62"/>
      <point x="353" y="62" type="curve"/>
      <point x="254.0" y="62.0"/>
      <point x="239.0" y="136.192893401"/>
      <point x="239" y="265" type="curve" smooth="yes"/>
      <point x="239" y="384"/>
      <point x="247" y="457"/>
      <point x="300" y="457" type="curve" smooth="yes"/>
      <point x="331" y="457"/>
      <point x="347" y="451"/>
      <point x="377" y="377" type="curve" smooth="yes"/>
      <point x="401" y="317"/>
      <point x="439" y="306"/>
      <point x="470" y="306" type="curve"/>
      <point x="519" y="306"/>
      <point x="546" y="341"/>
      <point x="546" y="384" type="curve" smooth="yes"/>
      <point x="546" y="461"/>
      <point x="444" y="517"/>
      <point x="320" y="517" type="curve" smooth="yes"/>
      <point x="140" y="517"/>
      <point x="33" y="409"/>
      <point x="33" y="253" type="curve" smooth="yes"/>
      <point x="33.0" y="83.109375"/>
      <point x="131.0" y="-9.0"/>
      <point x="303" y="-9" type="curve"/>
      <point x="388" y="-9"/>
      <point x="480" y="20"/>
      <point x="536" y="73" type="curve"/>
    </contour>
    <contour>
      <point x="316.0" y="623.0" type="move" name="top"/>
    </contour>
    <contour>
      <point x="288.0" y="0.0" type="move" name="bottom"/>
    </contour>
  </outline>
</glyph>
<glyph name="h" format="1">
  <advance width="755"/>
  <unicode hex="0068"/>
  <outline>
    <contour>
      <point x="449" y="517" type="curve"/>
      <point x="376" y="517"/>
      <point x="321" y="489"/>
      <point x="296" y="465" type="curve"/>
      <point x="294" y="465" type="line"/>
      <point x="294" y="795" type="line"/>
      <point x="18" y="758" type="line"/>
      <point x="18" y="721" type="line"/>
      <point x="75" y="721"/>
      <point x="86" y="716"/>
      <point x="92" y="683" type="curve" smooth="yes"/>
      <point x="97" y="661"/>
      <point x="99" y="618"/>
      <point x="99" y="543" type="curve" smooth="yes"/>
      <point x="99" y="153" type="line"/>
      <point x="99" y="56"/>
      <point x="92" y="45"/>
      <point x="13" y="41" type="curve"/>
      <point x="13" y="0" type="line"/>
      <point x="366" y="0" type="line"/>
      <point x="366" y="41" type="line"/>
      <point x="289" y="45"/>
      <point x="296" y="56"/>
      <point x="296" y="160" type="curve" smooth="yes"/>
      <point x="296" y="320" type="line"/>
      <point x="297" y="397"/>
      <point x="316" y="450"/>
      <point x="387" y="450" type="curve"/>
      <point x="446" y="450"/>
      <point x="470" y="408"/>
      <point x="470" y="309" type="curve"/>
      <point x="470" y="153" type="line"/>
      <point x="470" y="56"/>
      <point x="475" y="44"/>
      <point x="397" y="41" type="curve"/>
      <point x="397" y="0" type="line"/>
      <point x="750" y="0" type="line"/>
      <point x="750" y="41" type="line"/>
      <point x="673" y="45"/>
      <point x="667" y="52"/>
      <point x="667" y="160" type="curve" smooth="yes"/>
      <point x="667" y="295" type="line"/>
      <point x="667" y="467"/>
      <point x="558" y="517"/>
    </contour>
    <contour>
      <point x="423.0" y="623.0" type="move" name="top"/>
    </contour>
    <contour>
      <point x="382.0" y="0.0" type="move" name="bottom"/>
    </contour>
  </outline>
</glyph>
<glyph name="k" format="1">
  <advance width="738"/>
  <unicode hex="006B"/>
  <outline>
    <contour>
      <point x="343" y="0" type="line"/>
      <point x="343" y="41" type="line"/>
      <point x="307" y="40"/>
      <point x="294" y="59"/>
      <point x="294" y="160" type="curve"/>
      <point x="294" y="186" type="line"/>
      <point x="539" y="409" type="line"/>
      <point x="585" y="449"/>
      <point x="634" y="467"/>
      <point x="683" y="467" type="curve"/>
      <point x="683" y="508" type="line"/>
      <point x="388" y="508" type="line"/>
      <point x="388" y="467" type="line"/>
      <point x="459" y="467"/>
      <point x="475" y="462"/>
      <point x="474" y="442" type="curve" smooth="yes"/>
      <point x="473" y="428"/>
      <point x="461" y="402"/>
      <point x="394" y="346" type="curve" smooth="yes"/>
      <point x="294" y="265" type="line"/>
      <point x="294" y="795" type="line"/>
      <point x="20" y="758" type="line"/>
      <point x="20" y="721" type="line"/>
      <point x="56" y="721"/>
      <point x="74" y="718"/>
      <point x="86" y="694" type="curve" smooth="yes"/>
      <point x="96" y="669"/>
      <point x="97" y="630"/>
      <point x="97" y="561" type="curve" smooth="yes"/>
      <point x="97" y="153" type="line"/>
      <point x="97" y="58"/>
      <point x="85" y="43"/>
      <point x="15" y="41" type="curve"/>
      <point x="15" y="0" type="line"/>
    </contour>
    <contour>
      <point x="313" y="264" type="line"/>
      <point x="399" y="137" type="line"/>
      <point x="429" y="95"/>
      <point x="451" y="58"/>
      <point x="451" y="51" type="curve" smooth="yes"/>
      <point x="451" y="42"/>
      <point x="435" y="41"/>
      <point x="387" y="41" type="curve"/>
      <point x="387" y="0" type="line"/>
      <point x="748" y="0" type="line"/>
      <point x="748" y="41" type="line"/>
      <point x="704" y="41"/>
      <point x="684" y="53"/>
      <point x="656" y="93" type="curve" smooth="yes"/>
      <point x="464" y="364" type="line"/>
    </contour>
    <contour>
      <point x="379" y="0" type="move" name="bottom"/>
    </contour>
  </outline>
</glyph>
<glyph name="m" format="1">
  <advance width="1147"/>
  <unicode hex="006D"/>
  <outline>
    <contour>
      <point x="855" y="335" type="curve"/>
      <point x="855" y="153" type="line"/>
      <point x="855" y="59"/>
      <point x="846" y="45"/>
      <point x="782" y="41" type="curve"/>
      <point x="782" y="0" type="line"/>
      <point x="1138" y="0" type="line"/>
      <point x="1138" y="41" type="line"/>
      <point x="1061" y="46"/>
      <point x="1052" y="56"/>
      <point x="1052" y="162" type="curve" smooth="yes"/>
      <point x="1052" y="308" type="line"/>
      <point x="1052" y="465"/>
      <point x="955" y="517"/>
      <point x="829" y="517" type="curve"/>
      <point x="740" y="517"/>
      <point x="686" y="487"/>
      <point x="641" y="441" type="curve"/>
      <point x="637" y="441" type="line"/>
      <point x="603" y="488"/>
      <point x="543" y="517"/>
      <point x="461" y="517" type="curve"/>
      <point x="386" y="517"/>
      <point x="320" y="490"/>
      <point x="281" y="439" type="curve"/>
      <point x="274" y="439" type="line"/>
      <point x="263" y="517" type="line"/>
      <point x="22" y="480" type="line"/>
      <point x="22" y="447" type="line"/>
      <point x="85" y="447"/>
      <point x="97" y="442"/>
      <point x="105" y="410" type="curve" smooth="yes"/>
      <point x="109" y="393"/>
      <point x="111" y="341"/>
      <point x="111" y="268" type="curve" smooth="yes"/>
      <point x="111" y="154" type="line"/>
      <point x="111" y="57"/>
      <point x="102" y="45"/>
      <point x="22" y="42" type="curve"/>
      <point x="22" y="0" type="line"/>
      <point x="379" y="0" type="line"/>
      <point x="379" y="41" type="line"/>
      <point x="315" y="45"/>
      <point x="308" y="54"/>
      <point x="308" y="162" type="curve" smooth="yes"/>
      <point x="308" y="334" type="line"/>
      <point x="308" y="381"/>
      <point x="316" y="449"/>
      <point x="396" y="449" type="curve"/>
      <point x="463" y="449"/>
      <point x="483" y="408"/>
      <point x="483" y="335" type="curve"/>
      <point x="483" y="153" type="line"/>
      <point x="483" y="56"/>
      <point x="469" y="45"/>
      <point x="408" y="41" type="curve"/>
      <point x="408" y="0" type="line"/>
      <point x="753" y="0" type="line"/>
      <point x="753" y="41" type="line"/>
      <point x="690" y="45"/>
      <point x="680" y="55"/>
      <point x="680" y="162" type="curve" smooth="yes"/>
      <point x="680" y="334" type="line"/>
      <point x="680" y="381"/>
      <point x="688" y="449"/>
      <point x="768" y="449" type="curve"/>
      <point x="835" y="449"/>
      <point x="855" y="408"/>
    </contour>
  </outline>
</glyph>
<glyph name="o" format="1">
  <advance width="681"/>
  <unicode hex="006F"/>
  <outline>
    <contour>
      <point x="339" y="517" type="curve" smooth="yes"/>
      <point x="169.0" y="517.0"/>
      <point x="31.0" y="409.0"/>
      <point x="31" y="258" type="curve" smooth="yes"/>
      <point x="31.0" y="102.0"/>
      <point x="169.0" y="-9.0"/>
      <point x="339" y="-9" type="curve" smooth="yes"/>
      <point x="508.0" y="-9.0"/>
      <point x="650.0" y="103.0"/>
      <point x="650" y="258" type="curve" smooth="yes"/>
      <point x="650.0" y="408.0"/>
      <point x="508.0" y="517.0"/>
    </contour>
    <contour>
      <point x="339" y="458" type="curve" smooth="yes"/>
      <point x="410" y="458"/>
      <point x="445" y="385"/>
      <point x="445" y="257" type="curve" smooth="yes"/>
      <point x="445" y="124"/>
      <point x="411" y="53"/>
      <point x="339" y="53" type="curve" smooth="yes"/>
      <point x="268" y="53"/>
      <point x="236" y="123"/>
      <point x="236" y="257" type="curve" smooth="yes"/>
      <point x="236" y="386"/>
      <point x="269" y="458"/>
    </contour>
    <contour>
      <point x="341.0" y="623.0" type="move" name="top"/>
    </contour>
    <contour>
      <point x="341.0" y="0.0" type="move" name="bottom"/>
    </contour>
  </outline>
</glyph>
<glyph name="r" format="1">
  <advance width="554"/>
  <unicode hex="0072"/>
  <outline>
    <contour>
      <point x="309" y="275" type="line"/>
      <point x="309" y="353"/>
      <point x="314" y="397"/>
      <point x="347" y="397" type="curve"/>
      <point x="388" y="397"/>
      <point x="418" y="337"/>
      <point x="468" y="337" type="curve"/>
      <point x="516" y="337"/>
      <point x="555" y="377"/>
      <point x="555" y="436" type="curve"/>
      <point x="555" y="481"/>
      <point x="514" y="517"/>
      <point x="450" y="517" type="curve" smooth="yes"/>
      <point x="377" y="517"/>
      <point x="325" y="479"/>
      <point x="290" y="416" type="curve"/>
      <point x="287" y="416" type="line"/>
      <point x="271" y="522" type="line"/>
      <point x="21" y="487" type="line"/>
      <point x="21" y="453" type="line"/>
      <point x="96" y="453"/>
      <point x="112" y="422"/>
      <point x="112" y="272" type="curve" smooth="yes"/>
      <point x="112" y="153" type="line"/>
      <point x="112" y="56"/>
      <point x="105" y="45"/>
      <point x="25" y="41" type="curve"/>
      <point x="25" y="0" type="line"/>
      <point x="412" y="0" type="line"/>
      <point x="412" y="41" type="line"/>
      <point x="323" y="40"/>
      <point x="309" y="51"/>
      <point x="309" y="147" type="curve" smooth="yes"/>
    </contour>
    <contour>
      <point x="330" y="623" type="move" name="top"/>
    </contour>
    <contour>
      <point x="234" y="0" type="move" name="bottom"/>
    </contour>
  </outline>
</glyph>
<glyph name="s" format="1">
  <advance width="522"/>
  <unicode hex="0073"/>
  <outline>
    <contour>
      <point x="114" y="34" type="line"/>
      <point x="159" y="12"/>
      <point x="227" y="-9"/>
      <point x="294" y="-9" type="curve"/>
      <point x="423" y="-9"/>
      <point x="503" y="61"/>
      <point x="503" y="154" type="curve"/>
      <point x="503" y="225"/>
      <point x="447" y="265"/>
      <point x="408" y="290" type="curve" smooth="yes"/>
      <point x="330" y="339" type="line" smooth="yes"/>
      <point x="254" y="387"/>
      <point x="222" y="404"/>
      <point x="222" y="435" type="curve" smooth="yes"/>
      <point x="222" y="454"/>
      <point x="240" y="461"/>
      <point x="258" y="461" type="curve" smooth="yes"/>
      <point x="310" y="461"/>
      <point x="388" y="426"/>
      <point x="416" y="360" type="curve"/>
      <point x="459" y="360" type="line"/>
      <point x="459" y="508" type="line"/>
      <point x="432" y="508" type="line"/>
      <point x="410" y="462" type="line"/>
      <point x="388" y="480"/>
      <point x="334" y="517"/>
      <point x="258" y="517" type="curve"/>
      <point x="116" y="517"/>
      <point x="61" y="438"/>
      <point x="61" y="364" type="curve"/>
      <point x="61" y="300"/>
      <point x="98" y="254"/>
      <point x="155" y="220" type="curve" smooth="yes"/>
      <point x="262" y="156" type="line" smooth="yes"/>
      <point x="311" y="127"/>
      <point x="347" y="106"/>
      <point x="347" y="78" type="curve"/>
      <point x="347" y="60"/>
      <point x="327" y="48"/>
      <point x="287" y="48" type="curve"/>
      <point x="211" y="48"/>
      <point x="120" y="83"/>
      <point x="107" y="180" type="curve"/>
      <point x="58" y="180" type="line"/>
      <point x="58" y="0" type="line"/>
      <point x="92" y="0" type="line"/>
    </contour>
    <contour>
      <point x="277.0" y="623.0" type="move" name="top"/>
    </contour>
    <contour>
      <point x="294.0" y="1.0" type="move" name="bottom"/>
    </contour>
  </outline>
</glyph>
<glyph name="t" format="1">
  <advance width="425"/>
  <unicode hex="0074"/>
  <outline>
    <contour>
      <point x="86" y="459" type="line"/>
      <point x="86" y="161" type="line"/>
      <point x="86" y="45"/>
      <point x="142" y="-9"/>
      <point x="247" y="-9" type="curve"/>
      <point x="312" y="-9"/>
      <point x="377" y="13"/>
      <point x="415" y="57" type="curve"/>
      <point x="397" y="89" type="line"/>
      <point x="383" y="83"/>
      <point x="354" y="75"/>
      <point x="335" y="75" type="curve" smooth="yes"/>
      <point x="307" y="75"/>
      <point x="283" y="91"/>
      <point x="283" y="137" type="curve"/>
      <point x="283" y="459" type="line"/>
      <point x="398" y="459" type="line"/>
      <point x="398" y="515" type="line"/>
      <point x="283" y="515" type="line"/>
      <point x="283" y="628" type="line"/>
      <point x="236" y="628" type="line"/>
      <point x="180" y="570"/>
      <point x="112" y="532"/>
      <point x="18" y="505" type="curve"/>
      <point x="18" y="459" type="line"/>
    </contour>
    <contour>
      <point x="285.0" y="12.0" type="move" name="bottom"/>
    </contour>
  </outline>
</glyph>
<glyph name="u" format="1">
  <advance width="756"/>
  <unicode hex="0075"/>
  <outline>
    <contour>
      <point x="461" y="188" type="line"/>
      <point x="460" y="111"/>
      <point x="441" y="58"/>
      <point x="370" y="58" type="curve"/>
      <point x="311" y="58"/>
      <point x="287" y="100"/>
      <point x="287" y="199" type="curve"/>
      <point x="287" y="508" type="line"/>
      <point x="8" y="508" type="line"/>
      <point x="8" y="467" type="line"/>
      <point x="86" y="458"/>
      <point x="90" y="455"/>
      <point x="90" y="348" type="curve" smooth="yes"/>
      <point x="90" y="213" type="line"/>
      <point x="90" y="41"/>
      <point x="190" y="-9"/>
      <point x="301" y="-9" type="curve"/>
      <point x="383" y="-9"/>
      <point x="453" y="21"/>
      <point x="489" y="70" type="curve"/>
      <point x="494" y="70" type="line"/>
      <point x="506" y="-10" type="line"/>
      <point x="749" y="27" type="line"/>
      <point x="749" y="60" type="line"/>
      <point x="689" y="60"/>
      <point x="672" y="67"/>
      <point x="664" y="100" type="curve"/>
      <point x="661" y="116"/>
      <point x="657" y="163"/>
      <point x="658" y="239" type="curve"/>
      <point x="658" y="508" type="line"/>
      <point x="376" y="508" type="line"/>
      <point x="376" y="467" type="line"/>
      <point x="455" y="460"/>
      <point x="461" y="452"/>
      <point x="461" y="348" type="curve" smooth="yes"/>
    </contour>
    <contour>
      <point x="346.0" y="623.0" type="move" name="top"/>
    </contour>
    <contour>
      <point x="325.0" y="0.0" type="move" name="bottom"/>
    </contour>
  </outline>
</glyph>
<glyph name="v" format="1">
  <advance width="669"/>
  <unicode hex="0076"/>
  <outline>
    <contour>
      <point x="298" y="-9" type="line"/>
      <point x="402" y="-9" type="line"/>
      <point x="597" y="412" type="line"/>
      <point x="620" y="462"/>
      <point x="648" y="471"/>
      <point x="678" y="467" type="curve"/>
      <point x="678" y="508" type="line"/>
      <point x="457" y="508" type="line"/>
      <point x="457" y="467" type="line"/>
      <point x="506" y="465"/>
      <point x="522" y="461"/>
      <point x="522" y="433" type="curve" smooth="yes"/>
      <point x="522" y="424"/>
      <point x="519" y="409"/>
      <point x="517" y="407" type="curve" smooth="yes"/>
      <point x="409" y="165" type="line"/>
      <point x="404" y="165" type="line"/>
      <point x="314" y="375" type="line" smooth="yes"/>
      <point x="305" y="396"/>
      <point x="298" y="413"/>
      <point x="298" y="429" type="curve" smooth="yes"/>
      <point x="298" y="452"/>
      <point x="314" y="468"/>
      <point x="369" y="467" type="curve"/>
      <point x="369" y="508" type="line"/>
      <point x="8" y="508" type="line"/>
      <point x="8" y="467" type="line"/>
      <point x="49" y="468"/>
      <point x="75" y="448"/>
      <point x="107" y="382" type="curve" smooth="yes"/>
    </contour>
  </outline>
</glyph>
<glyph name="x" format="1">
  <advance width="659"/>
  <unicode hex="0078"/>
  <outline>
    <contour>
      <point x="385" y="312" type="line"/>
      <point x="299" y="420" type="line" smooth="yes"/>
      <point x="292" y="429"/>
      <point x="289" y="437"/>
      <point x="289" y="444" type="curve"/>
      <point x="289" y="461"/>
      <point x="311" y="467"/>
      <point x="346" y="467" type="curve"/>
      <point x="346" y="508" type="line"/>
      <point x="-1" y="508" type="line"/>
      <point x="-1" y="467" type="line"/>
      <point x="28" y="467"/>
      <point x="36" y="465"/>
      <point x="57" y="441" type="curve" smooth="yes"/>
      <point x="252" y="210" type="line"/>
      <point x="267" y="205" type="line"/>
      <point x="345" y="114" type="line" smooth="yes"/>
      <point x="363" y="93"/>
      <point x="373" y="78"/>
      <point x="373" y="67" type="curve" smooth="yes"/>
      <point x="373" y="51"/>
      <point x="358" y="41"/>
      <point x="310" y="41" type="curve"/>
      <point x="310" y="0" type="line"/>
      <point x="660" y="0" type="line"/>
      <point x="660" y="41" type="line"/>
      <point x="629" y="41"/>
      <point x="607" y="62"/>
      <point x="591" y="79" type="curve" smooth="yes"/>
      <point x="402" y="305" type="line"/>
    </contour>
    <contour>
      <point x="265" y="253" type="line"/>
      <point x="87" y="72" type="line" smooth="yes"/>
      <point x="61" y="46"/>
      <point x="39" y="41"/>
      <point x="8" y="41" type="curve"/>
      <point x="8" y="0" type="line"/>
      <point x="258" y="0" type="line"/>
      <point x="258" y="41" type="line"/>
      <point x="214" y="41"/>
      <point x="188" y="52"/>
      <point x="188" y="80" type="curve" smooth="yes"/>
      <point x="188" y="96"/>
      <point x="203" y="118"/>
      <point x="236" y="148" type="curve" smooth="yes"/>
      <point x="303" y="210" type="line"/>
    </contour>
    <contour>
      <point x="386" y="263" type="line"/>
      <point x="527" y="394" type="line" smooth="yes"/>
      <point x="575" y="438"/>
      <point x="600" y="462"/>
      <point x="647" y="467" type="curve"/>
      <point x="647" y="508" type="line"/>
      <point x="407" y="508" type="line"/>
      <point x="407" y="467" type="line"/>
      <point x="453" y="467"/>
      <point x="474" y="459"/>
      <point x="474" y="441" type="curve" smooth="yes"/>
      <point x="474" y="429"/>
      <point x="469" y="415"/>
      <point x="439" y="387" type="curve" smooth="yes"/>
      <point x="353" y="304" type="line"/>
    </contour>
  </outline>
</glyph>
<glyph name="z" format="1">
  <advance width="583"/>
  <unicode hex="007A"/>
  <outline>
    <contour>
      <point x="551" y="168" type="line"/>
      <point x="511" y="168" type="line"/>
      <point x="486" y="72"/>
      <point x="460" y="54"/>
      <point x="324" y="54" type="curve" smooth="yes"/>
      <point x="252" y="54" type="line"/>
      <point x="538" y="462" type="line"/>
      <point x="538" y="508" type="line"/>
      <point x="63" y="508" type="line"/>
      <point x="54" y="352" type="line"/>
      <point x="95" y="352" type="line"/>
      <point x="111" y="439"/>
      <point x="130" y="454"/>
      <point x="239" y="454" type="curve" smooth="yes"/>
      <point x="317" y="454" type="line"/>
      <point x="30" y="46" type="line"/>
      <point x="30" y="0" type="line"/>
      <point x="541" y="0" type="line"/>
    </contour>
    <contour>
      <point x="324" y="623" type="move" name="top"/>
    </contour>
    <contour>
      <point x="336" y="0" type="move" name="bottom"/>
    </contour>
  </outline>
</glyph>
<glyph name="bar" format="1">
  <advance width="285"/>
  <unicode hex="007C"/>
  <outline>
    <contour>
      <point x="86" y="785" type="line"/>
      <point x="86" y="-240" type="line"/>
      <point x="201" y="-240" type="line"/>
      <point x="201" y="785" type="line"/>
    </contour>
  </outline>
</glyph>
<glyph name="asciitilde" format="1">
  <advance width="542"/>
  <unicode hex="007E"/>
  <outline>
    <contour>
      <point x="114" y="224" type="line"/>
      <point x="127" y="257"/>
      <point x="134" y="263"/>
      <point x="161" y="263" type="curve" smooth="yes"/>
      <point x="233" y="263"/>
      <point x="292" y="217"/>
      <point x="354" y="217" type="curve" smooth="yes"/>
      <point x="421" y="217"/>
      <point x="465" y="294"/>
      <point x="481" y="387" type="curve"/>
      <point x="433" y="387" type="line"/>
      <point x="423" y="358"/>
      <point x="408" y="346"/>
      <point x="379" y="346" type="curve" smooth="yes"/>
      <point x="325" y="346"/>
      <point x="245" y="391"/>
      <point x="189" y="391" type="curve" smooth="yes"/>
      <point x="126" y="391"/>
      <point x="78" y="309"/>
      <point x="65" y="224" type="curve"/>
    </contour>
  </outline>
</glyph>
<glyph name="exclamdown" format="1">
  <advance width="299"/>
  <unicode hex="00A1"/>
  <outline>
    <contour>
      <point x="226" y="482" type="curve"/>
      <point x="163" y="482" type="line"/>
      <point x="163" y="280"/>
      <point x="69" y="246"/>
      <point x="69" y="135" type="curve" smooth="yes"/>
      <point x="69" y="24"/>
      <point x="139" y="-9"/>
      <point x="194" y="-9" type="curve" smooth="yes"/>
      <point x="249" y="-9"/>
      <point x="320" y="24"/>
      <point x="320" y="135" type="curve" smooth="yes"/>
      <point x="320" y="251"/>
      <point x="226" y="285"/>
    </contour>
    <contour>
      <point x="101" y="656" type="curve" smooth="yes"/>
      <point x="101" y="602"/>
      <point x="141" y="560"/>
      <point x="192" y="560" type="curve" smooth="yes"/>
      <point x="247" y="560"/>
      <point x="288" y="602"/>
      <point x="288" y="656" type="curve" smooth="yes"/>
      <point x="288" y="707"/>
      <point x="247" y="747"/>
      <point x="192" y="747" type="curve" smooth="yes"/>
      <point x="141" y="747"/>
      <point x="101" y="707"/>
    </contour>
  </outline>
</glyph>
<glyph name="cent" format="1">
  <advance width="574"/>
  <unicode hex="00A2"/>
  <outline>
    <contour>
      <point x="287" y="456" type="curve"/>
      <point x="287" y="82" type="line"/>
      <point x="244" y="105"/>
      <point x="222" y="189"/>
      <point x="222" y="272" type="curve" smooth="yes"/>
      <point x="222" y="361"/>
      <point x="244" y="435"/>
    </contour>
    <contour>
      <point x="354" y="0" type="line"/>
      <point x="422" y="10"/>
      <point x="488" y="37"/>
      <point x="533" y="79" type="curve"/>
      <point x="511" y="120" type="line"/>
      <point x="463" y="89"/>
      <point x="418" y="67"/>
      <point x="354" y="68" type="curve"/>
      <point x="354" y="456" type="line"/>
      <point x="396" y="413"/>
      <point x="382" y="303"/>
      <point x="468" y="303" type="curve" smooth="yes"/>
      <point x="513" y="303"/>
      <point x="542" y="337"/>
      <point x="542" y="384" type="curve" smooth="yes"/>
      <point x="542" y="453"/>
      <point x="458" y="507"/>
      <point x="354" y="515" type="curve"/>
      <point x="354" y="654" type="line"/>
      <point x="287" y="654" type="line"/>
      <point x="287" y="516" type="line"/>
      <point x="139" y="498"/>
      <point x="38" y="396"/>
      <point x="38" y="253" type="curve" smooth="yes"/>
      <point x="38" y="93"/>
      <point x="137" y="7"/>
      <point x="287" y="-3" type="curve"/>
      <point x="287" y="-141" type="line"/>
      <point x="354" y="-141" type="line"/>
    </contour>
  </outline>
</glyph>
<glyph name="sterling" format="1">
  <advance width="782"/>
  <unicode hex="00A3"/>
  <outline>
    <contour>
      <point x="273" y="151" type="curve"/>
      <point x="258" y="167"/>
      <point x="212" y="193"/>
      <point x="153" y="193" type="curve"/>
      <point x="85" y="193"/>
      <point x="32" y="154"/>
      <point x="32" y="95" type="curve" smooth="yes"/>
      <point x="32" y="22"/>
      <point x="87" y="-10"/>
      <point x="153" y="-10" type="curve"/>
      <point x="221" y="-10"/>
      <point x="274" y="13"/>
      <point x="312" y="55" type="curve"/>
      <point x="410" y="15"/>
      <point x="505" y="-17"/>
      <point x="581" y="-17" type="curve"/>
      <point x="732" y="-17"/>
      <point x="773" y="60"/>
      <point x="729" y="191" type="curve"/>
      <point x="719" y="193" type="line"/>
      <point x="670" y="144"/>
      <point x="601" y="126"/>
      <point x="408" y="128" type="curve"/>
      <point x="438" y="158"/>
      <point x="466" y="206"/>
      <point x="466" y="271" type="curve" smooth="yes"/>
      <point x="466" y="305"/>
      <point x="458" y="349"/>
      <point x="439" y="386" type="curve" smooth="yes"/>
      <point x="404" y="454" type="line" smooth="yes"/>
      <point x="380" y="501"/>
      <point x="359" y="556"/>
      <point x="359" y="601" type="curve" smooth="yes"/>
      <point x="359" y="650"/>
      <point x="383" y="687"/>
      <point x="452" y="687" type="curve"/>
      <point x="571" y="687"/>
      <point x="528" y="551"/>
      <point x="625" y="551" type="curve" smooth="yes"/>
      <point x="670" y="551"/>
      <point x="694" y="575"/>
      <point x="694" y="618" type="curve" smooth="yes"/>
      <point x="694" y="691"/>
      <point x="586" y="747"/>
      <point x="449" y="747" type="curve" smooth="yes"/>
      <point x="266" y="747"/>
      <point x="153" y="644"/>
      <point x="153" y="533" type="curve"/>
      <point x="153" y="486"/>
      <point x="168" y="441"/>
      <point x="191" y="402" type="curve" smooth="yes"/>
      <point x="229" y="337" type="line" smooth="yes"/>
      <point x="260" y="285"/>
      <point x="288" y="234"/>
      <point x="288" y="194" type="curve" smooth="yes"/>
      <point x="288" y="178"/>
      <point x="283" y="163"/>
    </contour>
    <contour>
      <point x="250" y="85" type="curve"/>
      <point x="227" y="71"/>
      <point x="196" y="65"/>
      <point x="168" y="65" type="curve" smooth="yes"/>
      <point x="144" y="65"/>
      <point x="126" y="74"/>
      <point x="126" y="95" type="curve"/>
      <point x="126" y="113"/>
      <point x="143" y="122"/>
      <point x="166" y="122" type="curve"/>
      <point x="194" y="122"/>
      <point x="224" y="109"/>
    </contour>
    <contour>
      <point x="623" y="354" type="line"/>
      <point x="623" y="412" type="line"/>
      <point x="119" y="412" type="line"/>
      <point x="119" y="354" type="line"/>
    </contour>
  </outline>
</glyph>
<glyph name="currency" format="1">
  <advance width="582"/>
  <unicode hex="00A4"/>
  <outline>
    <contour>
      <point x="44" y="55" type="line"/>
      <point x="79" y="23" type="line"/>
      <point x="152" y="91" type="line"/>
      <point x="191" y="60"/>
      <point x="237" y="44"/>
      <point x="292" y="44" type="curve" smooth="yes"/>
      <point x="345" y="44"/>
      <point x="393" y="59"/>
      <point x="431" y="90" type="curve"/>
      <point x="504" y="22" type="line"/>
      <point x="540" y="55" type="line"/>
      <point x="468" y="123" type="line"/>
      <point x="499" y="159"/>
      <point x="517" y="202"/>
      <point x="517" y="252" type="curve" smooth="yes"/>
      <point x="517" y="302"/>
      <point x="499" y="345"/>
      <point x="465" y="382" type="curve"/>
      <point x="540" y="451" type="line"/>
      <point x="504" y="484" type="line"/>
      <point x="431" y="415" type="line"/>
      <point x="392" y="445"/>
      <point x="345" y="461"/>
      <point x="292" y="461" type="curve" smooth="yes"/>
      <point x="238" y="461"/>
      <point x="190" y="445"/>
      <point x="153" y="415" type="curve"/>
      <point x="79" y="484" type="line"/>
      <point x="43" y="451" type="line"/>
      <point x="117" y="382" type="line"/>
      <point x="86" y="345"/>
      <point x="69" y="302"/>
      <point x="69" y="252" type="curve" smooth="yes"/>
      <point x="69" y="202"/>
      <point x="87" y="159"/>
      <point x="117" y="123" type="curve"/>
    </contour>
    <contour>
      <point x="135" y="252" type="curve" smooth="yes"/>
      <point x="135" y="333"/>
      <point x="205" y="399"/>
      <point x="292" y="399" type="curve" smooth="yes"/>
      <point x="378" y="399"/>
      <point x="449" y="333"/>
      <point x="449" y="252" type="curve" smooth="yes"/>
      <point x="449" y="173"/>
      <point x="378" y="106"/>
      <point x="292" y="106" type="curve" smooth="yes"/>
      <point x="205" y="106"/>
      <point x="135" y="173"/>
    </contour>
  </outline>
</glyph>
<glyph name="brokenbar" format="1">
  <advance width="294"/>
  <unicode hex="00A6"/>
  <outline>
    <contour>
      <point x="88" y="718" type="line"/>
      <point x="88" y="349" type="line"/>
      <point x="205" y="349" type="line"/>
      <point x="205" y="718" type="line"/>
    </contour>
    <contour>
      <point x="88" y="196" type="line"/>
      <point x="88" y="-173" type="line"/>
      <point x="205" y="-173" type="line"/>
      <point x="205" y="196" type="line"/>
    </contour>
  </outline>
</glyph>
<glyph name="section" format="1">
  <advance width="496"/>
  <unicode hex="00A7"/>
  <outline>
    <contour>
      <point x="223" y="270" type="line" smooth="yes"/>
      <point x="158" y="321"/>
      <point x="136" y="346"/>
      <point x="136" y="372" type="curve" smooth="yes"/>
      <point x="136" y="386"/>
      <point x="145" y="398"/>
      <point x="163" y="409" type="curve"/>
      <point x="265" y="328" type="line" smooth="yes"/>
      <point x="305" y="296"/>
      <point x="347" y="263"/>
      <point x="347" y="235" type="curve" smooth="yes"/>
      <point x="347" y="220"/>
      <point x="338" y="207"/>
      <point x="316" y="196" type="curve"/>
    </contour>
    <contour>
      <point x="257" y="743" type="curve"/>
      <point x="308" y="743"/>
      <point x="319" y="730"/>
      <point x="320" y="709" type="curve" smooth="yes"/>
      <point x="319" y="694"/>
      <point x="313" y="675"/>
      <point x="314" y="654" type="curve" smooth="yes"/>
      <point x="313" y="619"/>
      <point x="340" y="595"/>
      <point x="379" y="595" type="curve" smooth="yes"/>
      <point x="418" y="595"/>
      <point x="450" y="621"/>
      <point x="451" y="664" type="curve" smooth="yes"/>
      <point x="450" y="741"/>
      <point x="366" y="795"/>
      <point x="256" y="795" type="curve"/>
      <point x="115" y="795"/>
      <point x="13" y="722"/>
      <point x="13" y="617" type="curve" smooth="yes"/>
      <point x="13" y="540"/>
      <point x="55" y="488"/>
      <point x="112" y="445" type="curve"/>
      <point x="37" y="405"/>
      <point x="-14" y="366"/>
      <point x="-14" y="294" type="curve" smooth="yes"/>
      <point x="-14" y="229"/>
      <point x="29" y="179"/>
      <point x="115" y="110" type="curve" smooth="yes"/>
      <point x="199" y="47" type="line" smooth="yes"/>
      <point x="282" y="-16"/>
      <point x="317" y="-44"/>
      <point x="317" y="-76" type="curve"/>
      <point x="317" y="-108"/>
      <point x="283" y="-130"/>
      <point x="227" y="-130" type="curve" smooth="yes"/>
      <point x="176" y="-130"/>
      <point x="165" y="-117"/>
      <point x="165" y="-96" type="curve" smooth="yes"/>
      <point x="165" y="-81"/>
      <point x="171" y="-62"/>
      <point x="171" y="-41" type="curve" smooth="yes"/>
      <point x="171" y="-6"/>
      <point x="144" y="18"/>
      <point x="106" y="18" type="curve" smooth="yes"/>
      <point x="66" y="18"/>
      <point x="34" y="-8"/>
      <point x="34" y="-51" type="curve" smooth="yes"/>
      <point x="34" y="-128"/>
      <point x="118" y="-182"/>
      <point x="229" y="-182" type="curve" smooth="yes"/>
      <point x="361" y="-182"/>
      <point x="469" y="-113"/>
      <point x="469" y="-13" type="curve" smooth="yes"/>
      <point x="469" y="56"/>
      <point x="426" y="107"/>
      <point x="375" y="150" type="curve"/>
      <point x="453" y="194"/>
      <point x="496" y="240"/>
      <point x="496" y="307" type="curve" smooth="yes"/>
      <point x="496" y="361"/>
      <point x="456" y="425"/>
      <point x="367" y="492" type="curve" smooth="yes"/>
      <point x="283" y="554" type="line" smooth="yes"/>
      <point x="197" y="617"/>
      <point x="163" y="652"/>
      <point x="163" y="688" type="curve" smooth="yes"/>
      <point x="163" y="720"/>
      <point x="192" y="743"/>
    </contour>
  </outline>
</glyph>
<glyph name="dieresis" format="1">
  <advance width="368"/>
  <unicode hex="00A8"/>
  <outline>
    <contour>
      <point x="20" y="723" type="curve" smooth="yes"/>
      <point x="20" y="687"/>
      <point x="47" y="658"/>
      <point x="83" y="658" type="curve" smooth="yes"/>
      <point x="120" y="658"/>
      <point x="150" y="687"/>
      <point x="150" y="723" type="curve" smooth="yes"/>
      <point x="150" y="760"/>
      <point x="120" y="788"/>
      <point x="83" y="788" type="curve" smooth="yes"/>
      <point x="47" y="788"/>
      <point x="20" y="760"/>
    </contour>
    <contour>
      <point x="221" y="723" type="curve" smooth="yes"/>
      <point x="221" y="687"/>
      <point x="248" y="658"/>
      <point x="284" y="658" type="curve" smooth="yes"/>
      <point x="322" y="658"/>
      <point x="349" y="687"/>
      <point x="349" y="723" type="curve" smooth="yes"/>
      <point x="349" y="760"/>
      <point x="322" y="788"/>
      <point x="284" y="788" type="curve" smooth="yes"/>
      <point x="248" y="788"/>
      <point x="221" y="760"/>
    </contour>
    <contour>
      <point x="188" y="623" type="move" name="_top"/>
    </contour>
  </outline>
</glyph>
<glyph name="copyright" format="1">
  <advance width="870"/>
  <unicode hex="00A9"/>
  <outline>
    <contour>
      <point x="832" y="370" type="curve" smooth="yes"/>
      <point x="832" y="580"/>
      <point x="655" y="747"/>
      <point x="431" y="747" type="curve" smooth="yes"/>
      <point x="212" y="747"/>
      <point x="37" y="577"/>
      <point x="37" y="369" type="curve" smooth="yes"/>
      <point x="37" y="160"/>
      <point x="213" y="-9"/>
      <point x="433" y="-9" type="curve" smooth="yes"/>
      <point x="655" y="-9"/>
      <point x="832" y="160"/>
    </contour>
    <contour>
      <point x="770" y="370" type="curve" smooth="yes"/>
      <point x="770" y="195"/>
      <point x="618" y="50"/>
      <point x="433" y="50" type="curve" smooth="yes"/>
      <point x="247" y="50"/>
      <point x="101" y="195"/>
      <point x="101" y="369" type="curve" smooth="yes"/>
      <point x="101" y="544"/>
      <point x="246" y="687"/>
      <point x="431" y="687" type="curve" smooth="yes"/>
      <point x="618" y="687"/>
      <point x="770" y="545"/>
    </contour>
    <contour>
      <point x="593" y="293" type="line"/>
      <point x="574" y="235"/>
      <point x="535" y="204"/>
      <point x="469" y="204" type="curve" smooth="yes"/>
      <point x="381" y="204"/>
      <point x="349" y="260"/>
      <point x="349" y="362" type="curve" smooth="yes"/>
      <point x="349" y="468"/>
      <point x="382" y="530"/>
      <point x="467" y="530" type="curve" smooth="yes"/>
      <point x="533" y="530"/>
      <point x="578" y="501"/>
      <point x="595" y="452" type="curve"/>
      <point x="622" y="452" type="line"/>
      <point x="617" y="578" type="line"/>
      <point x="595" y="578" type="line"/>
      <point x="586" y="529" type="line"/>
      <point x="551" y="558"/>
      <point x="508" y="583"/>
      <point x="441" y="583" type="curve" smooth="yes"/>
      <point x="307" y="583"/>
      <point x="204" y="496"/>
      <point x="204" y="363" type="curve" smooth="yes"/>
      <point x="204" y="236"/>
      <point x="299" y="150"/>
      <point x="430" y="150" type="curve"/>
      <point x="541" y="150"/>
      <point x="607" y="208"/>
      <point x="627" y="293" type="curve"/>
    </contour>
  </outline>
</glyph>
<glyph name="registered" format="1">
  <advance width="870"/>
  <unicode hex="00AE"/>
  <outline>
    <contour>
      <point x="832" y="370" type="curve" smooth="yes"/>
      <point x="832" y="580"/>
      <point x="655" y="747"/>
      <point x="431" y="747" type="curve" smooth="yes"/>
      <point x="212" y="747"/>
      <point x="37" y="577"/>
      <point x="37" y="369" type="curve" smooth="yes"/>
      <point x="37" y="160"/>
      <point x="213" y="-9"/>
      <point x="433" y="-9" type="curve" smooth="yes"/>
      <point x="655" y="-9"/>
      <point x="832" y="160"/>
    </contour>
    <contour>
      <point x="770" y="370" type="curve" smooth="yes"/>
      <point x="770" y="195"/>
      <point x="618" y="50"/>
      <point x="433" y="50" type="curve" smooth="yes"/>
      <point x="247" y="50"/>
      <point x="101" y="195"/>
      <point x="101" y="369" type="curve" smooth="yes"/>
      <point x="101" y="544"/>
      <point x="246" y="687"/>
      <point x="431" y="687" type="curve" smooth="yes"/>
      <point x="618" y="687"/>
      <point x="770" y="545"/>
    </contour>
    <contour>
      <point x="601" y="485" type="curve" smooth="yes"/>
      <point x="601" y="549"/>
      <point x="533" y="589"/>
      <point x="414" y="589" type="curve" smooth="yes"/>
      <point x="234" y="589" type="line"/>
      <point x="234" y="558" type="line"/>
      <point x="267" y="556"/>
      <point x="273" y="546"/>
      <point x="273" y="497" type="curve" smooth="yes"/>
      <point x="273" y="263" type="line"/>
      <point x="273" y="214"/>
      <point x="266" y="206"/>
      <point x="228" y="203" type="curve"/>
      <point x="228" y="176" type="line"/>
      <point x="431" y="176" type="line"/>
      <point x="431" y="203" type="line"/>
      <point x="386" y="203"/>
      <point x="379" y="214"/>
      <point x="379" y="266" type="curve" smooth="yes"/>
      <point x="379" y="367" type="line"/>
      <point x="381" y="367"/>
      <point x="388" y="362"/>
      <point x="405" y="339" type="curve" smooth="yes"/>
      <point x="519" y="176" type="line"/>
      <point x="671" y="176" type="line"/>
      <point x="671" y="203" type="line"/>
      <point x="638" y="209"/>
      <point x="619" y="218"/>
      <point x="601" y="240" type="curve" smooth="yes"/>
      <point x="485" y="377" type="line"/>
      <point x="565" y="388"/>
      <point x="601" y="429"/>
    </contour>
    <contour>
      <point x="379" y="544" type="line"/>
      <point x="379" y="549"/>
      <point x="381" y="553"/>
      <point x="388" y="553" type="curve" smooth="yes"/>
      <point x="414" y="553" type="line"/>
      <point x="471" y="553"/>
      <point x="483" y="533"/>
      <point x="483" y="482" type="curve" smooth="yes"/>
      <point x="483" y="424"/>
      <point x="465" y="398"/>
      <point x="398" y="398" type="curve" smooth="yes"/>
      <point x="379" y="398" type="line"/>
    </contour>
  </outline>
</glyph>
<glyph name="degree" format="1">
  <advance width="314"/>
  <unicode hex="00B0"/>
  <outline>
    <contour>
      <point x="157" y="747" type="curve"/>
      <point x="89" y="747"/>
      <point x="34" y="696"/>
      <point x="34" y="631" type="curve" smooth="yes"/>
      <point x="34" y="568"/>
      <point x="89" y="517"/>
      <point x="157" y="517" type="curve"/>
      <point x="225" y="517"/>
      <point x="280" y="568"/>
      <point x="280" y="631" type="curve" smooth="yes"/>
      <point x="280" y="696"/>
      <point x="225" y="747"/>
    </contour>
    <contour>
      <point x="157" y="564" type="curve"/>
      <point x="114.0" y="564.0"/>
      <point x="87.0" y="590.171875"/>
      <point x="87" y="631" type="curve" smooth="yes"/>
      <point x="87.0" y="673.892307692"/>
      <point x="114.0" y="699.0"/>
      <point x="157" y="699" type="curve"/>
      <point x="200.0" y="699.0"/>
      <point x="227.0" y="673.892307692"/>
      <point x="227" y="631" type="curve" smooth="yes"/>
      <point x="227.0" y="590.171875"/>
      <point x="200.0" y="564.0"/>
    </contour>
  </outline>
</glyph>
<glyph name="plusminus" format="1">
  <advance width="598"/>
  <unicode hex="00B1"/>
  <outline>
    <contour>
      <point x="335" y="214" type="line"/>
      <point x="335" y="414" type="line"/>
      <point x="540" y="414" type="line"/>
      <point x="540" y="481" type="line"/>
      <point x="335" y="481" type="line"/>
      <point x="335" y="683" type="line"/>
      <point x="263" y="683" type="line"/>
      <point x="263" y="481" type="line"/>
      <point x="58" y="481" type="line"/>
      <point x="58" y="414" type="line"/>
      <point x="263" y="414" type="line"/>
      <point x="263" y="214" type="line"/>
    </contour>
    <contour>
      <point x="540" y="148" type="line"/>
      <point x="58" y="148" type="line"/>
      <point x="58" y="81" type="line"/>
      <point x="540" y="81" type="line"/>
    </contour>
  </outline>
</glyph>
<glyph name="twosuperior" format="1">
  <advance width="272"/>
  <unicode hex="00B2"/>
  <outline>
    <contour>
      <point x="104" y="497" type="line"/>
      <point x="181" y="548"/>
      <point x="242" y="604"/>
      <point x="242" y="664" type="curve" smooth="yes"/>
      <point x="242" y="713"/>
      <point x="196" y="747"/>
      <point x="131" y="747" type="curve" smooth="yes"/>
      <point x="69" y="747"/>
      <point x="22" y="714"/>
      <point x="22" y="667" type="curve" smooth="yes"/>
      <point x="22" y="633"/>
      <point x="48" y="610"/>
      <point x="81" y="610" type="curve" smooth="yes"/>
      <point x="102" y="610"/>
      <point x="116" y="620"/>
      <point x="119" y="634" type="curve"/>
      <point x="100" y="634"/>
      <point x="88" y="651"/>
      <point x="88" y="676" type="curve" smooth="yes"/>
      <point x="88" y="694"/>
      <point x="104" y="710"/>
      <point x="124" y="710" type="curve" smooth="yes"/>
      <point x="150" y="710"/>
      <point x="166" y="694"/>
      <point x="166" y="664" type="curve" smooth="yes"/>
      <point x="166" y="613"/>
      <point x="140" y="567"/>
      <point x="25" y="467" type="curve"/>
      <point x="25" y="448" type="line"/>
      <point x="232" y="448" type="line"/>
      <point x="246" y="529" type="line"/>
      <point x="219" y="529" type="line"/>
      <point x="211" y="499"/>
      <point x="199" y="493"/>
      <point x="178" y="493" type="curve" smooth="yes"/>
      <point x="104" y="493" type="line"/>
    </contour>
  </outline>
</glyph>
<glyph name="threesuperior" format="1">
  <advance width="273"/>
  <unicode hex="00B3"/>
  <outline>
    <contour>
      <point x="170" y="532" type="curve" smooth="yes"/>
      <point x="170" y="565"/>
      <point x="156" y="587"/>
      <point x="132" y="587" type="curve"/>
      <point x="122" y="583"/>
      <point x="111" y="580"/>
      <point x="104" y="580" type="curve" smooth="yes"/>
      <point x="89" y="580"/>
      <point x="79" y="590"/>
      <point x="79" y="602" type="curve" smooth="yes"/>
      <point x="79" y="615"/>
      <point x="89" y="623"/>
      <point x="103" y="623" type="curve" smooth="yes"/>
      <point x="110" y="623"/>
      <point x="119" y="621"/>
      <point x="129" y="618" type="curve"/>
      <point x="149" y="618"/>
      <point x="163" y="639"/>
      <point x="163" y="674" type="curve" smooth="yes"/>
      <point x="163" y="698"/>
      <point x="152" y="713"/>
      <point x="129" y="713" type="curve" smooth="yes"/>
      <point x="108" y="713"/>
      <point x="95" y="701"/>
      <point x="95" y="684" type="curve" smooth="yes"/>
      <point x="95" y="671"/>
      <point x="103" y="663"/>
      <point x="116" y="663" type="curve"/>
      <point x="114" y="653"/>
      <point x="94" y="644"/>
      <point x="77" y="644" type="curve" smooth="yes"/>
      <point x="51" y="644"/>
      <point x="34" y="659"/>
      <point x="34" y="685" type="curve" smooth="yes"/>
      <point x="34" y="717"/>
      <point x="73" y="747"/>
      <point x="140" y="747" type="curve"/>
      <point x="197" y="747"/>
      <point x="239" y="717"/>
      <point x="239" y="675" type="curve"/>
      <point x="239" y="636"/>
      <point x="214" y="616"/>
      <point x="179" y="609" type="curve"/>
      <point x="179" y="605" type="line"/>
      <point x="222" y="594"/>
      <point x="250" y="562"/>
      <point x="250" y="528" type="curve" smooth="yes"/>
      <point x="250" y="478"/>
      <point x="198" y="444"/>
      <point x="129" y="444" type="curve" smooth="yes"/>
      <point x="68" y="444"/>
      <point x="22" y="473"/>
      <point x="22" y="512" type="curve" smooth="yes"/>
      <point x="22" y="543"/>
      <point x="46" y="561"/>
      <point x="74" y="561" type="curve" smooth="yes"/>
      <point x="93" y="561"/>
      <point x="110" y="552"/>
      <point x="113" y="539" type="curve"/>
      <point x="101" y="539"/>
      <point x="92" y="527"/>
      <point x="92" y="514" type="curve"/>
      <point x="92" y="490"/>
      <point x="110" y="478"/>
      <point x="131" y="478" type="curve"/>
      <point x="157" y="478"/>
      <point x="170" y="498"/>
    </contour>
  </outline>
</glyph>
<glyph name="paragraph" format="1">
  <advance width="700"/>
  <unicode hex="00B6"/>
  <outline>
    <contour>
      <point x="585" y="542" type="line"/>
      <point x="585" y="611"/>
      <point x="588" y="639"/>
      <point x="597" y="660" type="curve" smooth="yes"/>
      <point x="605" y="686"/>
      <point x="622" y="694"/>
      <point x="676" y="694" type="curve"/>
      <point x="676" y="737" type="line"/>
      <point x="296" y="737" type="line"/>
      <point x="111" y="737"/>
      <point x="10" y="664"/>
      <point x="10" y="533" type="curve" smooth="yes"/>
      <point x="10" y="405"/>
      <point x="82" y="328"/>
      <point x="204" y="328" type="curve" smooth="yes"/>
      <point x="220" y="328"/>
      <point x="228" y="329"/>
      <point x="240" y="329" type="curve"/>
      <point x="240" y="67" type="line"/>
      <point x="240" y="6"/>
      <point x="236" y="-61"/>
      <point x="229" y="-77" type="curve" smooth="yes"/>
      <point x="220" y="-105"/>
      <point x="189" y="-115"/>
      <point x="117" y="-115" type="curve"/>
      <point x="117" y="-159" type="line"/>
      <point x="375" y="-159" type="line"/>
      <point x="375" y="681" type="line"/>
      <point x="450" y="681" type="line"/>
      <point x="450" y="-159" type="line"/>
      <point x="676" y="-159" type="line"/>
      <point x="676" y="-115" type="line"/>
      <point x="628" y="-115"/>
      <point x="605" y="-106"/>
      <point x="599" y="-80" type="curve" smooth="yes"/>
      <point x="589" y="-60"/>
      <point x="585" y="-5"/>
      <point x="585" y="67" type="curve" smooth="yes"/>
    </contour>
  </outline>
</glyph>
<glyph name="periodcentered" format="1">
  <advance width="300"/>
  <unicode hex="00B7"/>
  <outline>
    <contour>
      <point x="57" y="262" type="curve" smooth="yes"/>
      <point x="57" y="212"/>
      <point x="97" y="172"/>
      <point x="148" y="172" type="curve" smooth="yes"/>
      <point x="203" y="172"/>
      <point x="244" y="212"/>
      <point x="244" y="262" type="curve" smooth="yes"/>
      <point x="244" y="317"/>
      <point x="203" y="358"/>
      <point x="148" y="358" type="curve" smooth="yes"/>
      <point x="97" y="358"/>
      <point x="57" y="317"/>
    </contour>
  </outline>
</glyph>
<glyph name="cedilla" format="1">
  <advance width="238"/>
  <unicode hex="00B8"/>
  <outline>
    <contour>
      <point x="169" y="11" type="line"/>
      <point x="97" y="11" type="line"/>
      <point x="43" y="-108" type="line"/>
      <point x="44" y="-109" type="line"/>
      <point x="53" y="-109"/>
      <point x="73" y="-109"/>
      <point x="84" y="-109" type="curve" smooth="yes"/>
      <point x="131" y="-109"/>
      <point x="157" y="-124"/>
      <point x="157" y="-158" type="curve" smooth="yes"/>
      <point x="157" y="-183"/>
      <point x="138" y="-205"/>
      <point x="114" y="-205" type="curve"/>
      <point x="94" y="-205"/>
      <point x="84" y="-190"/>
      <point x="72" y="-158" type="curve" smooth="yes"/>
      <point x="61" y="-130"/>
      <point x="49" y="-120"/>
      <point x="28" y="-120" type="curve" smooth="yes"/>
      <point x="6" y="-120"/>
      <point x="-9" y="-134"/>
      <point x="-9" y="-159" type="curve" smooth="yes"/>
      <point x="-9" y="-209"/>
      <point x="48" y="-249"/>
      <point x="125" y="-249" type="curve" smooth="yes"/>
      <point x="207" y="-249"/>
      <point x="268" y="-207"/>
      <point x="268" y="-144" type="curve"/>
      <point x="268" y="-90"/>
      <point x="217" y="-54"/>
      <point x="137" y="-54" type="curve"/>
    </contour>
    <contour>
      <point x="126.0" y="0.0" type="move" name="_bottom"/>
    </contour>
  </outline>
</glyph>
<glyph name="ordmasculine" format="1">
  <advance width="367"/>
  <unicode hex="00BA"/>
  <outline>
    <contour>
      <point x="182" y="747" type="curve" smooth="yes"/>
      <point x="102" y="747"/>
      <point x="35" y="692"/>
      <point x="35" y="617" type="curve" smooth="yes"/>
      <point x="35" y="541"/>
      <point x="102" y="485"/>
      <point x="182" y="485" type="curve" smooth="yes"/>
      <point x="263" y="485"/>
      <point x="334" y="541"/>
      <point x="334" y="617" type="curve" smooth="yes"/>
      <point x="334" y="692"/>
      <point x="263" y="747"/>
    </contour>
    <contour>
      <point x="182" y="708" type="curve" smooth="yes"/>
      <point x="215" y="708"/>
      <point x="239" y="670"/>
      <point x="239" y="617" type="curve" smooth="yes"/>
      <point x="239" y="562"/>
      <point x="215" y="525"/>
      <point x="182" y="525" type="curve" smooth="yes"/>
      <point x="149" y="525"/>
      <point x="128" y="562"/>
      <point x="128" y="617" type="curve" smooth="yes"/>
      <point x="128" y="670"/>
      <point x="150" y="708"/>
    </contour>
  </outline>
</glyph>
<glyph name="guillemotright" format="1">
  <advance width="558"/>
  <unicode hex="00BB"/>
  <outline>
    <contour>
      <point x="516" y="251" type="line"/>
      <point x="316" y="441" type="line"/>
      <point x="280" y="417" type="line"/>
      <point x="366" y="251" type="line"/>
      <point x="283" y="86" type="line"/>
      <point x="322" y="62" type="line"/>
    </contour>
    <contour>
      <point x="284" y="251" type="line"/>
      <point x="84" y="441" type="line"/>
      <point x="48" y="417" type="line"/>
      <point x="132" y="251" type="line"/>
      <point x="51" y="86" type="line"/>
      <point x="90" y="62" type="line"/>
    </contour>
  </outline>
</glyph>
<glyph name="threequarters" format="1">
  <advance width="703"/>
  <unicode hex="00BE"/>
  <outline>
    <contour>
      <point x="677" y="737" type="line"/>
      <point x="598" y="737" type="line"/>
      <point x="31" y="0" type="line"/>
      <point x="119" y="0" type="line"/>
    </contour>
    <component base="fourinferior" xOffset="358"/>
    <component base="threesuperior" xOffset="70"/>
  </outline>
</glyph>
<glyph name="questiondown" format="1">
  <advance width="383"/>
  <unicode hex="00BF"/>
  <outline>
    <contour>
      <point x="237" y="508" type="line"/>
      <point x="237" y="422" type="line"/>
      <point x="131" y="435"/>
      <point x="45" y="374"/>
      <point x="45" y="244" type="curve" smooth="yes"/>
      <point x="45" y="90"/>
      <point x="166" y="-9"/>
      <point x="296" y="-9" type="curve" smooth="yes"/>
      <point x="351" y="-9"/>
      <point x="396" y="11"/>
      <point x="396" y="57" type="curve" smooth="yes"/>
      <point x="396" y="100"/>
      <point x="360" y="126"/>
      <point x="318" y="126" type="curve" smooth="yes"/>
      <point x="281" y="126"/>
      <point x="252" y="116"/>
      <point x="227" y="116" type="curve" smooth="yes"/>
      <point x="178" y="116"/>
      <point x="114" y="144"/>
      <point x="114" y="196" type="curve" smooth="yes"/>
      <point x="114" y="244"/>
      <point x="183" y="271"/>
      <point x="272" y="271" type="curve" smooth="yes"/>
      <point x="308" y="271" type="line"/>
      <point x="308" y="508" type="line"/>
    </contour>
    <contour>
      <point x="366" y="656" type="curve" smooth="yes"/>
      <point x="366" y="707"/>
      <point x="325" y="747"/>
      <point x="274" y="747" type="curve" smooth="yes"/>
      <point x="219" y="747"/>
      <point x="178" y="707"/>
      <point x="178" y="656" type="curve" smooth="yes"/>
      <point x="178" y="602"/>
      <point x="219" y="560"/>
      <point x="274" y="560" type="curve" smooth="yes"/>
      <point x="325" y="560"/>
      <point x="366" y="602"/>
    </contour>
  </outline>
</glyph>
<glyph name="ae" format="1">
  <advance width="898"/>
  <unicode hex="00E6"/>
  <outline>
    <contour>
      <point x="863" y="69" type="line"/>
      <point x="807" y="18"/>
      <point x="719" y="-9"/>
      <point x="634" y="-9" type="curve"/>
      <point x="531.0" y="-9.0"/>
      <point x="461" y="21"/>
      <point x="412" y="91" type="curve"/>
      <point x="362" y="21"/>
      <point x="279" y="-9"/>
      <point x="191" y="-9" type="curve"/>
      <point x="98" y="-9"/>
      <point x="29.0" y="38.3430656934"/>
      <point x="29" y="129" type="curve" smooth="yes"/>
      <point x="29" y="200"/>
      <point x="85" y="259"/>
      <point x="223" y="285" type="curve" smooth="yes"/>
      <point x="355" y="310" type="line"/>
      <point x="355" y="363" type="line"/>
      <point x="355" y="435"/>
      <point x="333" y="468"/>
      <point x="278" y="468" type="curve"/>
      <point x="244" y="468"/>
      <point x="235" y="444"/>
      <point x="217" y="400" type="curve" smooth="yes"/>
      <point x="205" y="370"/>
      <point x="176" y="332"/>
      <point x="128" y="332" type="curve"/>
      <point x="89" y="332"/>
      <point x="54" y="357"/>
      <point x="54" y="402" type="curve" smooth="yes"/>
      <point x="54" y="475"/>
      <point x="170" y="517"/>
      <point x="301" y="517" type="curve"/>
      <point x="380" y="517"/>
      <point x="435" y="495"/>
      <point x="480" y="463" type="curve"/>
      <point x="516" y="493"/>
      <point x="569" y="517"/>
      <point x="642" y="517" type="curve"/>
      <point x="794" y="517"/>
      <point x="868" y="436"/>
      <point x="868" y="304" type="curve" smooth="yes"/>
      <point x="868" y="282"/>
      <point x="867" y="280"/>
      <point x="836" y="280" type="curve" smooth="yes"/>
      <point x="560" y="280" type="line"/>
      <point x="560" y="274"/>
      <point x="561" y="272"/>
      <point x="561" y="267" type="curve"/>
      <point x="561.0" y="136.170854271"/>
      <point x="584.0" y="62.0"/>
      <point x="686" y="62" type="curve"/>
      <point x="748" y="62"/>
      <point x="791" y="81"/>
      <point x="839" y="111" type="curve"/>
    </contour>
    <contour>
      <point x="629" y="458" type="curve"/>
      <point x="573" y="458"/>
      <point x="564" y="405"/>
      <point x="562" y="338" type="curve"/>
      <point x="625" y="338" type="line"/>
      <point x="677" y="338"/>
      <point x="686" y="341"/>
      <point x="686" y="361" type="curve" smooth="yes"/>
      <point x="686" y="416"/>
      <point x="669" y="458"/>
    </contour>
    <contour>
      <point x="355" y="198" type="curve" smooth="yes"/>
      <point x="355" y="252" type="line"/>
      <point x="247" y="241"/>
      <point x="203" y="201"/>
      <point x="203" y="139" type="curve"/>
      <point x="203" y="108"/>
      <point x="220" y="82"/>
      <point x="258" y="82" type="curve" smooth="yes"/>
      <point x="304" y="82"/>
      <point x="355" y="115"/>
    </contour>
    <contour>
      <point x="447" y="623" type="move" name="top"/>
    </contour>
  </outline>
</glyph>
<glyph name="eth" format="1">
  <advance width="702"/>
  <unicode hex="00F0"/>
  <outline>
    <contour>
      <point x="188" y="700" type="line"/>
      <point x="223" y="687"/>
      <point x="265" y="666"/>
      <point x="305" y="642" type="curve"/>
      <point x="199" y="586" type="line"/>
      <point x="227" y="537" type="line"/>
      <point x="356" y="606" type="line"/>
      <point x="421" y="551"/>
      <point x="464" y="482"/>
      <point x="494" y="396" type="curve"/>
      <point x="490" y="395" type="line"/>
      <point x="451" y="460"/>
      <point x="393" y="498"/>
      <point x="303" y="498" type="curve" smooth="yes"/>
      <point x="134" y="498"/>
      <point x="33" y="396"/>
      <point x="33" y="262" type="curve" smooth="yes"/>
      <point x="33" y="75"/>
      <point x="155" y="-9"/>
      <point x="341" y="-9" type="curve" smooth="yes"/>
      <point x="540" y="-9"/>
      <point x="672" y="117"/>
      <point x="672" y="294" type="curve" smooth="yes"/>
      <point x="672" y="476"/>
      <point x="569" y="580"/>
      <point x="446" y="653" type="curve"/>
      <point x="547" y="708" type="line"/>
      <point x="518" y="753" type="line"/>
      <point x="387" y="684" type="line"/>
      <point x="324" y="715"/>
      <point x="265" y="735"/>
      <point x="206" y="747" type="curve"/>
    </contour>
    <contour>
      <point x="239" y="232" type="curve" smooth="yes"/>
      <point x="239" y="361"/>
      <point x="278" y="437"/>
      <point x="343" y="437" type="curve" smooth="yes"/>
      <point x="418" y="437"/>
      <point x="463" y="360"/>
      <point x="463" y="234" type="curve" smooth="yes"/>
      <point x="463" y="119"/>
      <point x="417" y="47"/>
      <point x="342" y="47" type="curve" smooth="yes"/>
      <point x="278" y="47"/>
      <point x="239" y="114"/>
    </contour>
  </outline>
</glyph>
<glyph name="divide" format="1">
  <advance width="554"/>
  <unicode hex="00F7"/>
  <outline>
    <contour>
      <point x="202" y="139" type="curve" smooth="yes"/>
      <point x="202" y="99"/>
      <point x="237" y="65"/>
      <point x="279" y="65" type="curve" smooth="yes"/>
      <point x="325" y="65"/>
      <point x="358" y="99"/>
      <point x="358" y="139" type="curve" smooth="yes"/>
      <point x="358" y="184"/>
      <point x="325" y="218"/>
      <point x="279" y="218" type="curve" smooth="yes"/>
      <point x="237" y="218"/>
      <point x="202" y="184"/>
    </contour>
    <contour>
      <point x="202" y="503" type="curve" smooth="yes"/>
      <point x="202" y="462"/>
      <point x="237" y="429"/>
      <point x="279" y="429" type="curve" smooth="yes"/>
      <point x="325" y="429"/>
      <point x="358" y="462"/>
      <point x="358" y="503" type="curve" smooth="yes"/>
      <point x="358" y="547"/>
      <point x="325" y="582"/>
      <point x="279" y="582" type="curve" smooth="yes"/>
      <point x="237" y="582"/>
      <point x="202" y="547"/>
    </contour>
    <contour>
      <point x="518" y="358" type="line"/>
      <point x="36" y="358" type="line"/>
      <point x="36" y="291" type="line"/>
      <point x="518" y="291" type="line"/>
    </contour>
  </outline>
</glyph>
<glyph name="Dcroat" format="1">
  <advance width="960"/>
  <unicode hex="0110"/>
  <outline>
    <contour>
      <point x="35" y="0" type="line"/>
      <point x="35" y="40" type="line"/>
      <point x="113" y="43"/>
      <point x="128" y="58"/>
      <point x="128" y="148" type="curve" smooth="yes"/>
      <point x="128" y="589" type="line"/>
      <point x="128" y="678"/>
      <point x="117" y="695"/>
      <point x="48" y="697" type="curve"/>
      <point x="48" y="737" type="line"/>
      <point x="463" y="737" type="line"/>
      <point x="724" y="737"/>
      <point x="921" y="572"/>
      <point x="921" y="357" type="curve" smooth="yes"/>
      <point x="921" y="151"/>
      <point x="738" y="0"/>
      <point x="484" y="0" type="curve"/>
    </contour>
    <contour>
      <point x="341" y="674" type="line"/>
      <point x="331" y="674"/>
      <point x="325" y="667"/>
      <point x="325" y="658" type="curve" smooth="yes"/>
      <point x="325" y="173" type="line"/>
      <point x="325" y="99"/>
      <point x="373" y="65"/>
      <point x="472" y="65" type="curve"/>
      <point x="617" y="65"/>
      <point x="700" y="172"/>
      <point x="700" y="354" type="curve" smooth="yes"/>
      <point x="700" y="550"/>
      <point x="610" y="674"/>
      <point x="453" y="674" type="curve"/>
    </contour>
    <contour>
      <point x="42" y="349" type="line"/>
      <point x="42" y="408" type="line"/>
      <point x="443" y="408" type="line"/>
      <point x="443" y="349" type="line"/>
    </contour>
  </outline>
</glyph>
<glyph name="dcroat" format="1">
  <advance width="717"/>
  <unicode hex="0111"/>
  <outline>
    <contour>
      <point x="658" y="577" type="line"/>
      <point x="658" y="623" type="line"/>
      <point x="340" y="623" type="line"/>
      <point x="340" y="577" type="line"/>
    </contour>
    <component base="d"/>
  </outline>
</glyph>
<glyph name="gcommaaccent" format="1">
  <advance width="675"/>
  <unicode hex="0123"/>
  <outline>
    <contour>
      <point x="311" y="823" type="line"/>
      <point x="245" y="785"/>
      <point x="221" y="746"/>
      <point x="221" y="701" type="curve" smooth="yes"/>
      <point x="221" y="651"/>
      <point x="243" y="623"/>
      <point x="285" y="623" type="curve" smooth="yes"/>
      <point x="330" y="623"/>
      <point x="360" y="654"/>
      <point x="360" y="683" type="curve" smooth="yes"/>
      <point x="360" y="714"/>
      <point x="338" y="734"/>
      <point x="316" y="734" type="curve" smooth="yes"/>
      <point x="303" y="734"/>
      <point x="295" y="731"/>
      <point x="288" y="725" type="curve"/>
      <point x="288" y="748"/>
      <point x="305" y="772"/>
      <point x="341" y="792" type="curve"/>
    </contour>
    <component base="g" xOffset="-4"/>
  </outline>
</glyph>
<glyph name="hbar" format="1">
  <advance width="755"/>
  <unicode hex="0127"/>
  <outline>
    <contour>
      <point x="347" y="577" type="line"/>
      <point x="347" y="623" type="line"/>
      <point x="19" y="623" type="line"/>
      <point x="19" y="577" type="line"/>
    </contour>
    <component base="h"/>
  </outline>
</glyph>
<glyph name="dotlessi" format="1">
  <advance width="400"/>
  <unicode hex="0131"/>
  <outline>
    <contour>
      <point x="305" y="517" type="line"/>
      <point x="22" y="480" type="line"/>
      <point x="22" y="448" type="line"/>
      <point x="77" y="448"/>
      <point x="94" y="442"/>
      <point x="101" y="409" type="curve" smooth="yes"/>
      <point x="104" y="392"/>
      <point x="107" y="342"/>
      <point x="107" y="268" type="curve" smooth="yes"/>
      <point x="107" y="153" type="line"/>
      <point x="107" y="62"/>
      <point x="95" y="44"/>
      <point x="25" y="41" type="curve"/>
      <point x="25" y="0" type="line"/>
      <point x="385" y="0" type="line"/>
      <point x="385" y="41" type="line"/>
      <point x="312" y="44"/>
      <point x="305" y="57"/>
      <point x="305" y="160" type="curve" smooth="yes"/>
    </contour>
    <contour>
      <point x="183" y="623" type="move" name="top"/>
    </contour>
  </outline>
</glyph>
<glyph name="Lslash" format="1">
  <advance width="780"/>
  <unicode hex="0141"/>
  <outline>
    <contour>
      <point x="69" y="246" type="line"/>
      <point x="69" y="323" type="line"/>
      <point x="444" y="517" type="line"/>
      <point x="444" y="441" type="line"/>
    </contour>
    <component base="L" xOffset="7"/>
  </outline>
</glyph>
<glyph name="lslash" format="1">
  <advance width="398"/>
  <unicode hex="0142"/>
  <outline>
    <contour>
      <point x="341" y="429" type="line"/>
      <point x="341" y="493" type="line"/>
      <point x="26" y="327" type="line"/>
      <point x="26" y="266" type="line"/>
    </contour>
    <component base="l" xOffset="1"/>
  </outline>
</glyph>
<glyph name="eng" format="1">
  <advance width="742"/>
  <unicode hex="014B"/>
  <outline>
    <contour>
      <point x="679" y="295" type="line"/>
      <point x="679" y="467"/>
      <point x="579" y="517"/>
      <point x="468" y="517" type="curve"/>
      <point x="386" y="517"/>
      <point x="316" y="486"/>
      <point x="280" y="437" type="curve"/>
      <point x="275" y="437" type="line"/>
      <point x="263" y="517" type="line"/>
      <point x="20" y="480" type="line"/>
      <point x="20" y="447" type="line"/>
      <point x="80" y="447"/>
      <point x="97" y="440"/>
      <point x="105" y="407" type="curve"/>
      <point x="108" y="391"/>
      <point x="112" y="344"/>
      <point x="111" y="268" type="curve"/>
      <point x="111" y="152" type="line"/>
      <point x="112" y="57"/>
      <point x="101" y="45"/>
      <point x="24" y="42" type="curve"/>
      <point x="24" y="0" type="line"/>
      <point x="379" y="0" type="line"/>
      <point x="379" y="41" type="line"/>
      <point x="315" y="45"/>
      <point x="309" y="56"/>
      <point x="308" y="159" type="curve"/>
      <point x="308" y="320" type="line"/>
      <point x="309" y="397"/>
      <point x="328" y="450"/>
      <point x="399" y="450" type="curve"/>
      <point x="458" y="450"/>
      <point x="482" y="408"/>
      <point x="482" y="309" type="curve"/>
      <point x="482" y="-80" type="line"/>
      <point x="482" y="-161"/>
      <point x="453" y="-203"/>
      <point x="413" y="-203" type="curve" smooth="yes"/>
      <point x="392" y="-203"/>
      <point x="382" y="-183"/>
      <point x="379" y="-168" type="curve" smooth="yes"/>
      <point x="373" y="-137"/>
      <point x="368" y="-85"/>
      <point x="305" y="-85" type="curve"/>
      <point x="254" y="-85"/>
      <point x="225" y="-119"/>
      <point x="225" y="-154" type="curve"/>
      <point x="225" y="-222"/>
      <point x="296" y="-259"/>
      <point x="406" y="-259" type="curve" smooth="yes"/>
      <point x="582" y="-259"/>
      <point x="679" y="-172"/>
      <point x="679" y="13" type="curve"/>
    </contour>
  </outline>
</glyph>
<glyph name="tbar" format="1">
  <advance width="409"/>
  <unicode hex="0167"/>
  <outline>
    <contour>
      <point x="358" y="318" type="line"/>
      <point x="358" y="364" type="line"/>
      <point x="20" y="364" type="line"/>
      <point x="20" y="318" type="line"/>
    </contour>
    <component base="t" xOffset="3"/>
  </outline>
</glyph>
<glyph name="aringacute" format="1">
  <advance width="613"/>
  <unicode hex="01FB"/>
  <outline>
    <contour>
      <point x="136" y="707" type="curve" smooth="yes"/>
      <point x="136" y="699"/>
      <point x="135" y="694"/>
      <point x="138" y="686" type="curve"/>
      <point x="71" y="632" type="line"/>
      <point x="139" y="632" type="line"/>
      <point x="166" y="646" type="line"/>
      <point x="181" y="637"/>
      <point x="199" y="630"/>
      <point x="216" y="630" type="curve" smooth="yes"/>
      <point x="266" y="630"/>
      <point x="300" y="664"/>
      <point x="300" y="707" type="curve" smooth="yes"/>
      <point x="300" y="712"/>
      <point x="300" y="715"/>
      <point x="299" y="720" type="curve"/>
      <point x="333" y="734"/>
      <point x="356" y="751"/>
      <point x="356" y="769" type="curve" smooth="yes"/>
      <point x="356" y="794"/>
      <point x="339" y="809"/>
      <point x="312" y="809" type="curve" smooth="yes"/>
      <point x="294" y="809"/>
      <point x="280" y="801"/>
      <point x="260" y="774" type="curve"/>
      <point x="248" y="781"/>
      <point x="233" y="785"/>
      <point x="216" y="785" type="curve" smooth="yes"/>
      <point x="171" y="785"/>
      <point x="136" y="752"/>
    </contour>
    <contour>
      <point x="185" y="707" type="curve" smooth="yes"/>
      <point x="185" y="724"/>
      <point x="199" y="735"/>
      <point x="216" y="735" type="curve" smooth="yes"/>
      <point x="236" y="735"/>
      <point x="248" y="724"/>
      <point x="248" y="707" type="curve" smooth="yes"/>
      <point x="248" y="691"/>
      <point x="236" y="679"/>
      <point x="216" y="679" type="curve" smooth="yes"/>
      <point x="199" y="679"/>
      <point x="185" y="691"/>
    </contour>
    <component base="a"/>
  </outline>
</glyph>
<glyph name="Oslashacute" format="1">
  <advance width="922"/>
  <unicode hex="01FE"/>
  <outline>
    <contour>
      <point x="461" y="747" type="curve" smooth="yes"/>
      <point x="229" y="747"/>
      <point x="36" y="580"/>
      <point x="36" y="362" type="curve" smooth="yes"/>
      <point x="36" y="156"/>
      <point x="232" y="-9"/>
      <point x="461" y="-9" type="curve" smooth="yes"/>
      <point x="693" y="-9"/>
      <point x="887" y="156"/>
      <point x="887" y="362" type="curve" smooth="yes"/>
      <point x="887" y="580"/>
      <point x="693" y="747"/>
    </contour>
    <contour>
      <point x="461" y="58" type="curve" smooth="yes"/>
      <point x="321" y="58"/>
      <point x="257" y="175"/>
      <point x="257" y="361" type="curve" smooth="yes"/>
      <point x="257" y="557"/>
      <point x="321" y="680"/>
      <point x="461" y="680" type="curve" smooth="yes"/>
      <point x="601" y="680"/>
      <point x="667" y="557"/>
      <point x="667" y="361" type="curve" smooth="yes"/>
      <point x="667" y="175"/>
      <point x="600" y="58"/>
    </contour>
    <contour>
      <point x="874" y="795" type="line"/>
      <point x="779" y="795" type="line"/>
      <point x="40" y="-77" type="line"/>
      <point x="134" y="-77" type="line"/>
    </contour>
    <component base="acute.cap" xOffset="356"/>
  </outline>
</glyph>
<glyph name="oslashacute" format="1">
  <advance width="632"/>
  <unicode hex="01FF"/>
  <outline>
    <contour>
      <point x="628" y="566" type="line"/>
      <point x="544" y="566" type="line"/>
      <point x="13" y="-59" type="line"/>
      <point x="96" y="-59" type="line"/>
    </contour>
    <contour>
      <point x="326" y="517" type="curve" smooth="yes"/>
      <point x="156" y="517"/>
      <point x="18" y="409"/>
      <point x="18" y="258" type="curve" smooth="yes"/>
      <point x="18" y="102"/>
      <point x="156" y="-9"/>
      <point x="326" y="-9" type="curve" smooth="yes"/>
      <point x="495" y="-9"/>
      <point x="637" y="103"/>
      <point x="637" y="258" type="curve" smooth="yes"/>
      <point x="637" y="408"/>
      <point x="495" y="517"/>
    </contour>
    <contour>
      <point x="326" y="458" type="curve" smooth="yes"/>
      <point x="397" y="458"/>
      <point x="432" y="375"/>
      <point x="432" y="257" type="curve" smooth="yes"/>
      <point x="432" y="134"/>
      <point x="398" y="53"/>
      <point x="326" y="53" type="curve" smooth="yes"/>
      <point x="255" y="53"/>
      <point x="223" y="133"/>
      <point x="223" y="257" type="curve" smooth="yes"/>
      <point x="223" y="376"/>
      <point x="256" y="458"/>
    </contour>
    <component base="acute" xOffset="234"/>
  </outline>
</glyph>
<glyph name="schwa" format="1">
  <advance width="576"/>
  <unicode hex="0259"/>
  <outline>
    <contour>
      <point x="410" y="177" type="line"/>
      <point x="407" y="236" type="line"/>
      <point x="63" y="236" type="line"/>
      <point x="32" y="236"/>
      <point x="31" y="234"/>
      <point x="31" y="212" type="curve" smooth="yes"/>
      <point x="31" y="79"/>
      <point x="108" y="-3"/>
      <point x="257" y="-3" type="curve"/>
      <point x="441" y="-3"/>
      <point x="544" y="107"/>
      <point x="544" y="260" type="curve"/>
      <point x="544" y="424"/>
      <point x="438" y="517"/>
      <point x="266" y="517" type="curve"/>
      <point x="182" y="517"/>
      <point x="92" y="490"/>
      <point x="38" y="439" type="curve"/>
      <point x="60" y="397" type="line"/>
      <point x="108" y="427"/>
      <point x="153" y="447"/>
      <point x="214" y="447" type="curve"/>
      <point x="315" y="447"/>
      <point x="338" y="374"/>
      <point x="338" y="247" type="curve"/>
      <point x="338" y="144"/>
      <point x="343" y="58"/>
      <point x="270" y="58" type="curve"/>
      <point x="232" y="58"/>
      <point x="213" y="100"/>
      <point x="213" y="153" type="curve" smooth="yes"/>
      <point x="213" y="175"/>
      <point x="222" y="177"/>
      <point x="274" y="177" type="curve" smooth="yes"/>
    </contour>
  </outline>
</glyph>
<glyph name="circumflex" format="1">
  <advance width="378"/>
  <unicode hex="02C6"/>
  <outline>
    <contour>
      <point x="136" y="774" type="line"/>
      <point x="21" y="623" type="line"/>
      <point x="74" y="623" type="line"/>
      <point x="189" y="688" type="line"/>
      <point x="304" y="623" type="line"/>
      <point x="357" y="623" type="line"/>
      <point x="242" y="774" type="line"/>
    </contour>
    <contour>
      <point x="189" y="623" type="move" name="_top"/>
    </contour>
  </outline>
</glyph>
<glyph name="caron" format="1">
  <advance width="378"/>
  <unicode hex="02C7"/>
  <outline>
    <contour>
      <point x="242" y="623" type="line"/>
      <point x="357" y="774" type="line"/>
      <point x="304" y="774" type="line"/>
      <point x="189" y="710" type="line"/>
      <point x="74" y="774" type="line"/>
      <point x="21" y="774" type="line"/>
      <point x="136" y="623" type="line"/>
    </contour>
    <contour>
      <point x="189" y="623" type="move" name="_top"/>
    </contour>
  </outline>
</glyph>
<glyph name="dotaccent" format="1">
  <advance width="201"/>
  <unicode hex="02D9"/>
  <outline>
    <contour>
      <point x="20" y="724" type="curve" smooth="yes"/>
      <point x="20" y="680"/>
      <point x="55" y="644"/>
      <point x="99" y="644" type="curve" smooth="yes"/>
      <point x="146" y="644"/>
      <point x="182" y="680"/>
      <point x="182" y="724" type="curve" smooth="yes"/>
      <point x="182" y="771"/>
      <point x="146" y="806"/>
      <point x="99" y="806" type="curve" smooth="yes"/>
      <point x="55" y="806"/>
      <point x="20" y="771"/>
    </contour>
    <contour>
      <point x="99" y="623" type="move" name="_top"/>
    </contour>
  </outline>
</glyph>
<glyph name="ogonek" format="1">
  <advance width="272"/>
  <unicode hex="02DB"/>
  <outline>
    <contour>
      <point x="224" y="-98" type="line"/>
      <point x="203" y="-130"/>
      <point x="175" y="-149"/>
      <point x="146" y="-149" type="curve" smooth="yes"/>
      <point x="120" y="-149"/>
      <point x="101" y="-129"/>
      <point x="101" y="-108" type="curve" smooth="yes"/>
      <point x="101" y="-68"/>
      <point x="145" y="-22"/>
      <point x="215" y="7" type="curve"/>
      <point x="215" y="13" type="line"/>
      <point x="151" y="13" type="line"/>
      <point x="46" y="-25"/>
      <point x="-14" y="-74"/>
      <point x="-14" y="-132" type="curve" smooth="yes"/>
      <point x="-14" y="-189"/>
      <point x="33" y="-221"/>
      <point x="95" y="-221" type="curve" smooth="yes"/>
      <point x="160" y="-221"/>
      <point x="221" y="-187"/>
      <point x="261" y="-135" type="curve"/>
    </contour>
    <contour>
      <point x="170.0" y="0.0" type="move" name="_bottom"/>
    </contour>
  </outline>
</glyph>
<glyph name="tilde" format="1">
  <advance width="393"/>
  <unicode hex="02DC"/>
  <outline>
    <contour>
      <point x="57" y="627" type="line"/>
      <point x="66" y="657"/>
      <point x="77" y="665"/>
      <point x="97" y="665" type="curve" smooth="yes"/>
      <point x="143" y="665"/>
      <point x="202" y="620"/>
      <point x="266" y="620" type="curve" smooth="yes"/>
      <point x="347" y="620"/>
      <point x="375" y="699"/>
      <point x="387" y="765" type="curve"/>
      <point x="338" y="765" type="line"/>
      <point x="329" y="736"/>
      <point x="315" y="725"/>
      <point x="290" y="725" type="curve" smooth="yes"/>
      <point x="257" y="725"/>
      <point x="179" y="770"/>
      <point x="127" y="770" type="curve" smooth="yes"/>
      <point x="55" y="770"/>
      <point x="21" y="707"/>
      <point x="6" y="627" type="curve"/>
    </contour>
    <contour>
      <point x="198" y="623" type="move" name="_top"/>
    </contour>
  </outline>
</glyph>
<glyph name="uni03BC" format="1">
  <advance width="749"/>
  <unicode hex="03BC"/>
  <outline>
    <contour>
      <point x="89" y="-176" type="line"/>
      <point x="89" y="-221"/>
      <point x="128" y="-249"/>
      <point x="183" y="-249" type="curve" smooth="yes"/>
      <point x="235" y="-249"/>
      <point x="270" y="-220"/>
      <point x="270" y="-176" type="curve" smooth="yes"/>
      <point x="270" y="-127"/>
      <point x="226" y="24"/>
      <point x="201" y="92" type="curve"/>
      <point x="203" y="93" type="line"/>
      <point x="236" y="32"/>
      <point x="282" y="-9"/>
      <point x="370" y="-9" type="curve"/>
      <point x="451" y="-9"/>
      <point x="478" y="21"/>
      <point x="503" y="61" type="curve"/>
      <point x="505" y="61" type="line"/>
      <point x="517" y="-10" type="line"/>
      <point x="747" y="1" type="line"/>
      <point x="747" y="41" type="line"/>
      <point x="682" y="41"/>
      <point x="670" y="46"/>
      <point x="664" y="78" type="curve" smooth="yes"/>
      <point x="658" y="99"/>
      <point x="656" y="140"/>
      <point x="656" y="219" type="curve" smooth="yes"/>
      <point x="656" y="508" type="line"/>
      <point x="374" y="508" type="line"/>
      <point x="374" y="467" type="line"/>
      <point x="454" y="460"/>
      <point x="459" y="452"/>
      <point x="459" y="348" type="curve" smooth="yes"/>
      <point x="459" y="200" type="line"/>
      <point x="459" y="102"/>
      <point x="455" y="55"/>
      <point x="383" y="55" type="curve"/>
      <point x="307" y="55"/>
      <point x="287" y="109"/>
      <point x="287" y="217" type="curve"/>
      <point x="287" y="508" type="line"/>
      <point x="7" y="508" type="line"/>
      <point x="7" y="467" type="line"/>
      <point x="85" y="458"/>
      <point x="89" y="455"/>
      <point x="89" y="348" type="curve" smooth="yes"/>
    </contour>
    <contour>
      <point x="371" y="623" type="move" name="top"/>
    </contour>
    <contour>
      <point x="337" y="19" type="move" name="bottom"/>
    </contour>
  </outline>
</glyph>
<glyph name="endash" format="1">
  <advance width="701"/>
  <unicode hex="2013"/>
  <outline>
    <contour>
      <point x="643" y="230" type="line"/>
      <point x="643" y="324" type="line"/>
      <point x="58" y="324" type="line"/>
      <point x="58" y="230" type="line"/>
    </contour>
  </outline>
</glyph>
<glyph name="quoteleft" format="1">
  <advance width="288"/>
  <unicode hex="2018"/>
  <outline>
    <contour>
      <point x="211" y="795" type="line"/>
      <point x="124" y="784"/>
      <point x="36" y="690"/>
      <point x="36" y="614" type="curve" smooth="yes"/>
      <point x="36" y="560"/>
      <point x="68" y="505"/>
      <point x="134" y="505" type="curve" smooth="yes"/>
      <point x="201" y="505"/>
      <point x="237" y="549"/>
      <point x="237" y="599" type="curve" smooth="yes"/>
      <point x="237" y="653"/>
      <point x="204" y="681"/>
      <point x="164" y="681" type="curve" smooth="yes"/>
      <point x="144" y="681"/>
      <point x="132" y="677"/>
      <point x="127" y="675" type="curve"/>
      <point x="127" y="690"/>
      <point x="164" y="726"/>
      <point x="243" y="747" type="curve"/>
    </contour>
  </outline>
</glyph>
<glyph name="apostrophe" format="1">
  <advance width="199"/>
  <unicode hex="2019"/>
  <outline>
    <contour>
      <point x="123" y="564" type="line"/>
      <point x="130" y="621"/>
      <point x="158" y="695"/>
      <point x="158" y="732" type="curve" smooth="yes"/>
      <point x="158" y="769"/>
      <point x="133" y="795"/>
      <point x="100" y="795" type="curve" smooth="yes"/>
      <point x="67" y="795"/>
      <point x="42" y="769"/>
      <point x="42" y="733" type="curve" smooth="yes"/>
      <point x="42" y="694"/>
      <point x="70" y="619"/>
      <point x="78" y="564" type="curve"/>
    </contour>
  </outline>
</glyph>
<glyph name="quoteright" format="1">
  <advance width="282"/>
  <unicode hex="2019"/>
  <outline>
    <contour>
      <point x="77" y="505" type="line"/>
      <point x="166" y="516"/>
      <point x="253" y="610"/>
      <point x="253" y="687" type="curve" smooth="yes"/>
      <point x="253" y="740"/>
      <point x="222" y="795"/>
      <point x="154" y="795" type="curve" smooth="yes"/>
      <point x="89" y="795"/>
      <point x="54" y="751"/>
      <point x="54" y="701" type="curve" smooth="yes"/>
      <point x="54" y="647"/>
      <point x="86" y="619"/>
      <point x="126" y="619" type="curve" smooth="yes"/>
      <point x="146" y="619"/>
      <point x="156" y="623"/>
      <point x="163" y="625" type="curve"/>
      <point x="163" y="610"/>
      <point x="126" y="574"/>
      <point x="47" y="553" type="curve"/>
    </contour>
  </outline>
</glyph>
<glyph name="quotesinglbase" format="1">
  <advance width="299"/>
  <unicode hex="201A"/>
  <outline>
    <contour>
      <point x="78" y="-144" type="line"/>
      <point x="194" y="-102"/>
      <point x="253" y="-12"/>
      <point x="253" y="65" type="curve" smooth="yes"/>
      <point x="253" y="118"/>
      <point x="223" y="174"/>
      <point x="155" y="174" type="curve" smooth="yes"/>
      <point x="90" y="174"/>
      <point x="54" y="130"/>
      <point x="54" y="80" type="curve" smooth="yes"/>
      <point x="54" y="27"/>
      <point x="87" y="-3"/>
      <point x="126" y="-3" type="curve" smooth="yes"/>
      <point x="147" y="-3"/>
      <point x="157" y="2"/>
      <point x="164" y="6" type="curve"/>
      <point x="164" y="-12"/>
      <point x="154" y="-45"/>
      <point x="48" y="-98" type="curve"/>
    </contour>
  </outline>
</glyph>
<glyph name="quotedblright" format="1">
  <advance width="510"/>
  <unicode hex="201D"/>
  <outline>
    <contour>
      <point x="77" y="505" type="line"/>
      <point x="166" y="516"/>
      <point x="253" y="610"/>
      <point x="253" y="687" type="curve" smooth="yes"/>
      <point x="253" y="740"/>
      <point x="222" y="795"/>
      <point x="154" y="795" type="curve" smooth="yes"/>
      <point x="89" y="795"/>
      <point x="54" y="751"/>
      <point x="54" y="701" type="curve" smooth="yes"/>
      <point x="54" y="647"/>
      <point x="86" y="619"/>
      <point x="126" y="619" type="curve" smooth="yes"/>
      <point x="146" y="619"/>
      <point x="156" y="623"/>
      <point x="163" y="625" type="curve"/>
      <point x="163" y="610"/>
      <point x="126" y="574"/>
      <point x="47" y="553" type="curve"/>
    </contour>
    <contour>
      <point x="308" y="505" type="line"/>
      <point x="395" y="516"/>
      <point x="481" y="610"/>
      <point x="481" y="687" type="curve" smooth="yes"/>
      <point x="481" y="740"/>
      <point x="451" y="795"/>
      <point x="385" y="795" type="curve" smooth="yes"/>
      <point x="318" y="795"/>
      <point x="282" y="751"/>
      <point x="282" y="701" type="curve" smooth="yes"/>
      <point x="282" y="647"/>
      <point x="315" y="619"/>
      <point x="354" y="619" type="curve" smooth="yes"/>
      <point x="375" y="619"/>
      <point x="385" y="623"/>
      <point x="392" y="625" type="curve"/>
      <point x="392" y="610"/>
      <point x="355" y="574"/>
      <point x="276" y="553" type="curve"/>
    </contour>
  </outline>
</glyph>
<glyph name="quotedblbase" format="1">
  <advance width="516"/>
  <unicode hex="201E"/>
  <outline>
    <contour>
      <point x="78" y="-144" type="line"/>
      <point x="194" y="-102"/>
      <point x="253" y="-12"/>
      <point x="253" y="65" type="curve" smooth="yes"/>
      <point x="253" y="118"/>
      <point x="223" y="174"/>
      <point x="155" y="174" type="curve" smooth="yes"/>
      <point x="90" y="174"/>
      <point x="54" y="130"/>
      <point x="54" y="80" type="curve" smooth="yes"/>
      <point x="54" y="27"/>
      <point x="87" y="-3"/>
      <point x="126" y="-3" type="curve" smooth="yes"/>
      <point x="147" y="-3"/>
      <point x="157" y="2"/>
      <point x="164" y="6" type="curve"/>
      <point x="164" y="-12"/>
      <point x="154" y="-45"/>
      <point x="48" y="-98" type="curve"/>
    </contour>
    <contour>
      <point x="295" y="-144" type="line"/>
      <point x="411" y="-102"/>
      <point x="470" y="-12"/>
      <point x="470" y="65" type="curve" smooth="yes"/>
      <point x="470" y="118"/>
      <point x="438" y="174"/>
      <point x="372" y="174" type="curve" smooth="yes"/>
      <point x="305" y="174"/>
      <point x="269" y="130"/>
      <point x="269" y="80" type="curve" smooth="yes"/>
      <point x="269" y="27"/>
      <point x="303" y="-3"/>
      <point x="342" y="-3" type="curve" smooth="yes"/>
      <point x="362" y="-3"/>
      <point x="373" y="2"/>
      <point x="379" y="6" type="curve"/>
      <point x="379" y="-12"/>
      <point x="369" y="-45"/>
      <point x="265" y="-98" type="curve"/>
    </contour>
  </outline>
</glyph>
<glyph name="daggerdbl" format="1">
  <advance width="571"/>
  <unicode hex="2021"/>
  <outline>
    <contour>
      <point x="386" y="250" type="curve"/>
      <point x="336" y="302"/>
      <point x="312" y="350"/>
      <point x="312" y="443" type="curve"/>
      <point x="393" y="433"/>
      <point x="419" y="396"/>
      <point x="461" y="396" type="curve" smooth="yes"/>
      <point x="505" y="396"/>
      <point x="538" y="428"/>
      <point x="538" y="470" type="curve" smooth="yes"/>
      <point x="538" y="513"/>
      <point x="505" y="544"/>
      <point x="461" y="544" type="curve" smooth="yes"/>
      <point x="419" y="544"/>
      <point x="394" y="507"/>
      <point x="312" y="498" type="curve"/>
      <point x="317" y="600"/>
      <point x="365" y="627"/>
      <point x="365" y="674" type="curve" smooth="yes"/>
      <point x="365" y="715"/>
      <point x="332" y="747"/>
      <point x="287" y="747" type="curve" smooth="yes"/>
      <point x="241" y="747"/>
      <point x="209" y="715"/>
      <point x="209" y="674" type="curve" smooth="yes"/>
      <point x="209" y="626"/>
      <point x="257" y="599"/>
      <point x="261" y="498" type="curve"/>
      <point x="178" y="506"/>
      <point x="151" y="544"/>
      <point x="111" y="544" type="curve" smooth="yes"/>
      <point x="67" y="544"/>
      <point x="34" y="513"/>
      <point x="34" y="470" type="curve" smooth="yes"/>
      <point x="34" y="428"/>
      <point x="67" y="396"/>
      <point x="111" y="396" type="curve" smooth="yes"/>
      <point x="153" y="396"/>
      <point x="179" y="433"/>
      <point x="262" y="443" type="curve"/>
      <point x="261" y="350"/>
      <point x="238" y="302"/>
      <point x="188" y="250" type="curve"/>
      <point x="237" y="195"/>
      <point x="258" y="148"/>
      <point x="259" y="56" type="curve"/>
      <point x="177" y="65"/>
      <point x="153" y="101"/>
      <point x="111" y="101" type="curve" smooth="yes"/>
      <point x="67" y="101"/>
      <point x="34" y="70"/>
      <point x="34" y="27" type="curve" smooth="yes"/>
      <point x="34" y="-14"/>
      <point x="67" y="-47"/>
      <point x="111" y="-47" type="curve" smooth="yes"/>
      <point x="151" y="-47"/>
      <point x="176" y="-9"/>
      <point x="258" y="1" type="curve"/>
      <point x="254" y="-102"/>
      <point x="209" y="-127"/>
      <point x="209" y="-175" type="curve" smooth="yes"/>
      <point x="209" y="-218"/>
      <point x="241" y="-249"/>
      <point x="287" y="-249" type="curve" smooth="yes"/>
      <point x="332" y="-249"/>
      <point x="365" y="-218"/>
      <point x="365" y="-175" type="curve" smooth="yes"/>
      <point x="365" y="-128"/>
      <point x="319" y="-103"/>
      <point x="314" y="1" type="curve"/>
      <point x="396" y="-10"/>
      <point x="419" y="-47"/>
      <point x="461" y="-47" type="curve" smooth="yes"/>
      <point x="505" y="-47"/>
      <point x="538" y="-14"/>
      <point x="538" y="27" type="curve" smooth="yes"/>
      <point x="538" y="70"/>
      <point x="505" y="101"/>
      <point x="461" y="101" type="curve" smooth="yes"/>
      <point x="419" y="101"/>
      <point x="395" y="65"/>
      <point x="314" y="56" type="curve"/>
      <point x="314" y="148"/>
      <point x="337" y="197"/>
    </contour>
  </outline>
</glyph>
<glyph name="bullet" format="1">
  <advance width="441"/>
  <unicode hex="2022"/>
  <outline>
    <contour>
      <point x="218" y="200" type="curve" smooth="yes"/>
      <point x="307" y="200"/>
      <point x="379" y="272"/>
      <point x="379" y="353" type="curve" smooth="yes"/>
      <point x="379" y="435"/>
      <point x="307" y="506"/>
      <point x="223" y="506" type="curve" smooth="yes"/>
      <point x="136" y="506"/>
      <point x="62" y="435"/>
      <point x="62" y="353" type="curve" smooth="yes"/>
      <point x="62" y="272"/>
      <point x="136" y="200"/>
    </contour>
  </outline>
</glyph>
<glyph name="ellipsis" format="1">
  <advance width="845"/>
  <unicode hex="2026"/>
  <outline>
    <contour>
      <point x="46" y="82" type="curve" smooth="yes"/>
      <point x="46" y="31"/>
      <point x="87" y="-9"/>
      <point x="138" y="-9" type="curve" smooth="yes"/>
      <point x="193" y="-9"/>
      <point x="234" y="31"/>
      <point x="234" y="82" type="curve" smooth="yes"/>
      <point x="234" y="135"/>
      <point x="193" y="177"/>
      <point x="138" y="177" type="curve" smooth="yes"/>
      <point x="87" y="177"/>
      <point x="46" y="135"/>
    </contour>
    <contour>
      <point x="330" y="82" type="curve" smooth="yes"/>
      <point x="330" y="31"/>
      <point x="369" y="-9"/>
      <point x="422" y="-9" type="curve" smooth="yes"/>
      <point x="477" y="-9"/>
      <point x="517" y="31"/>
      <point x="517" y="82" type="curve" smooth="yes"/>
      <point x="517" y="135"/>
      <point x="477" y="177"/>
      <point x="422" y="177" type="curve" smooth="yes"/>
      <point x="369" y="177"/>
      <point x="330" y="135"/>
    </contour>
    <contour>
      <point x="612" y="82" type="curve" smooth="yes"/>
      <point x="612" y="31"/>
      <point x="653" y="-9"/>
      <point x="704" y="-9" type="curve" smooth="yes"/>
      <point x="759" y="-9"/>
      <point x="800" y="31"/>
      <point x="800" y="82" type="curve" smooth="yes"/>
      <point x="800" y="135"/>
      <point x="759" y="177"/>
      <point x="704" y="177" type="curve" smooth="yes"/>
      <point x="653" y="177"/>
      <point x="612" y="135"/>
    </contour>
  </outline>
</glyph>
<glyph name="fraction" format="1">
  <advance width="39"/>
  <unicode hex="2044"/>
  <outline>
    <contour>
      <point x="342" y="737" type="line"/>
      <point x="264" y="737" type="line"/>
      <point x="-304" y="0" type="line"/>
      <point x="-216" y="0" type="line"/>
    </contour>
  </outline>
</glyph>
<glyph name="zerosuperior" format="1">
  <advance width="302"/>
  <unicode hex="2070"/>
  <outline>
    <contour>
      <point x="151" y="747" type="curve" smooth="yes"/>
      <point x="82" y="747"/>
      <point x="22" y="680"/>
      <point x="22" y="594" type="curve" smooth="yes"/>
      <point x="22" y="511"/>
      <point x="82" y="445"/>
      <point x="151" y="445" type="curve" smooth="yes"/>
      <point x="222" y="445"/>
      <point x="280" y="511"/>
      <point x="280" y="594" type="curve" smooth="yes"/>
      <point x="280" y="680"/>
      <point x="222" y="747"/>
    </contour>
    <contour>
      <point x="151" y="483" type="curve" smooth="yes"/>
      <point x="120" y="483"/>
      <point x="103" y="507"/>
      <point x="103" y="592" type="curve" smooth="yes"/>
      <point x="103" y="680"/>
      <point x="120" y="709"/>
      <point x="151" y="709" type="curve" smooth="yes"/>
      <point x="183" y="709"/>
      <point x="200" y="680"/>
      <point x="200" y="592" type="curve" smooth="yes"/>
      <point x="200" y="507"/>
      <point x="182" y="483"/>
    </contour>
  </outline>
</glyph>
<glyph name="sevensuperior" format="1">
  <advance width="218"/>
  <unicode hex="2077"/>
  <outline>
    <contour>
      <point x="112" y="601" type="line" smooth="yes"/>
      <point x="51" y="490"/>
      <point x="44" y="475"/>
      <point x="44" y="462" type="curve" smooth="yes"/>
      <point x="44" y="448"/>
      <point x="55" y="439"/>
      <point x="69" y="439" type="curve" smooth="yes"/>
      <point x="87" y="439"/>
      <point x="102" y="445"/>
      <point x="113" y="474" type="curve" smooth="yes"/>
      <point x="145" y="559"/>
      <point x="161" y="607"/>
      <point x="218" y="730" type="curve"/>
      <point x="218" y="737" type="line"/>
      <point x="92" y="737" type="line"/>
      <point x="67" y="737"/>
      <point x="60" y="739"/>
      <point x="60" y="748" type="curve" smooth="yes"/>
      <point x="60" y="751"/>
      <point x="61" y="758"/>
      <point x="62" y="760" type="curve"/>
      <point x="40" y="760" type="line"/>
      <point x="12" y="653" type="line"/>
      <point x="33" y="653" type="line"/>
      <point x="38" y="668" type="line"/>
      <point x="51" y="689"/>
      <point x="56" y="692"/>
      <point x="99" y="692" type="curve" smooth="yes"/>
      <point x="162" y="692" type="line"/>
    </contour>
  </outline>
</glyph>
<glyph name="ninesuperior" format="1">
  <advance width="288"/>
  <unicode hex="2079"/>
  <outline>
    <contour>
      <point x="23" y="641" type="curve" smooth="yes"/>
      <point x="23" y="594"/>
      <point x="67" y="556"/>
      <point x="120" y="556" type="curve" smooth="yes"/>
      <point x="147" y="556"/>
      <point x="173" y="566"/>
      <point x="189" y="590" type="curve"/>
      <point x="192" y="586" type="line"/>
      <point x="192" y="520"/>
      <point x="164" y="481"/>
      <point x="130" y="481" type="curve" smooth="yes"/>
      <point x="94" y="481"/>
      <point x="92" y="517"/>
      <point x="60" y="517" type="curve" smooth="yes"/>
      <point x="45" y="517"/>
      <point x="36" y="507"/>
      <point x="36" y="492" type="curve" smooth="yes"/>
      <point x="36" y="465"/>
      <point x="74" y="445"/>
      <point x="121" y="445" type="curve" smooth="yes"/>
      <point x="201" y="445"/>
      <point x="265" y="518"/>
      <point x="265" y="610" type="curve" smooth="yes"/>
      <point x="265" y="692"/>
      <point x="214" y="747"/>
      <point x="143" y="747" type="curve" smooth="yes"/>
      <point x="75" y="747"/>
      <point x="23" y="700"/>
    </contour>
    <contour>
      <point x="186" y="636" type="line"/>
      <point x="169" y="604"/>
      <point x="154" y="593"/>
      <point x="135" y="593" type="curve" smooth="yes"/>
      <point x="111" y="593"/>
      <point x="100" y="612"/>
      <point x="100" y="652" type="curve" smooth="yes"/>
      <point x="100" y="698"/>
      <point x="116" y="725"/>
      <point x="144" y="725" type="curve" smooth="yes"/>
      <point x="172" y="725"/>
      <point x="186" y="701"/>
      <point x="186" y="655" type="curve" smooth="yes"/>
    </contour>
  </outline>
</glyph>
<glyph name="zeroinferior" format="1">
  <advance width="305"/>
  <unicode hex="2080"/>
  <outline>
    <contour>
      <point x="153" y="294" type="curve" smooth="yes"/>
      <point x="84" y="294"/>
      <point x="24" y="227"/>
      <point x="24" y="140" type="curve" smooth="yes"/>
      <point x="24" y="57"/>
      <point x="84" y="-9"/>
      <point x="153" y="-9" type="curve" smooth="yes"/>
      <point x="222" y="-9"/>
      <point x="282" y="57"/>
      <point x="282" y="140" type="curve" smooth="yes"/>
      <point x="282" y="227"/>
      <point x="222" y="294"/>
    </contour>
    <contour>
      <point x="153" y="29" type="curve" smooth="yes"/>
      <point x="121" y="29"/>
      <point x="104" y="54"/>
      <point x="104" y="138" type="curve" smooth="yes"/>
      <point x="104" y="227"/>
      <point x="121" y="256"/>
      <point x="153" y="256" type="curve" smooth="yes"/>
      <point x="184" y="256"/>
      <point x="201" y="227"/>
      <point x="201" y="138" type="curve" smooth="yes"/>
      <point x="201" y="54"/>
      <point x="183" y="29"/>
    </contour>
  </outline>
</glyph>
<glyph name="fiveinferior" format="1">
  <advance width="255"/>
  <unicode hex="2085"/>
  <outline>
    <contour>
      <point x="110" y="241" type="line"/>
      <point x="143" y="241" type="line"/>
      <point x="187" y="241"/>
      <point x="218" y="259"/>
      <point x="225" y="294" type="curve"/>
      <point x="221" y="294" type="line"/>
      <point x="205" y="289"/>
      <point x="183" y="286"/>
      <point x="150" y="286" type="curve" smooth="yes"/>
      <point x="125" y="286"/>
      <point x="107" y="290"/>
      <point x="97" y="294" type="curve"/>
      <point x="53" y="132" type="line"/>
      <point x="52" y="130"/>
      <point x="52" y="130"/>
      <point x="52" y="128" type="curve" smooth="yes"/>
      <point x="52" y="121"/>
      <point x="58" y="118"/>
      <point x="66" y="118" type="curve" smooth="yes"/>
      <point x="75" y="118"/>
      <point x="78" y="122"/>
      <point x="83" y="135" type="curve" smooth="yes"/>
      <point x="90" y="151"/>
      <point x="108" y="161"/>
      <point x="127" y="161" type="curve" smooth="yes"/>
      <point x="142" y="161"/>
      <point x="155" y="142"/>
      <point x="155" y="117" type="curve" smooth="yes"/>
      <point x="155" y="56"/>
      <point x="135" y="27"/>
      <point x="96" y="27" type="curve" smooth="yes"/>
      <point x="66" y="27"/>
      <point x="61" y="44"/>
      <point x="57" y="56" type="curve" smooth="yes"/>
      <point x="58" y="61"/>
      <point x="56" y="80"/>
      <point x="32" y="80" type="curve" smooth="yes"/>
      <point x="16" y="80"/>
      <point x="7" y="71"/>
      <point x="7" y="56" type="curve" smooth="yes"/>
      <point x="7" y="19"/>
      <point x="47" y="-9"/>
      <point x="98" y="-9" type="curve" smooth="yes"/>
      <point x="172" y="-9"/>
      <point x="231" y="41"/>
      <point x="231" y="102" type="curve" smooth="yes"/>
      <point x="231" y="151"/>
      <point x="188" y="196"/>
      <point x="139" y="196" type="curve" smooth="yes"/>
      <point x="120" y="196"/>
      <point x="104" y="190"/>
      <point x="95" y="177" type="curve"/>
      <point x="95" y="182" type="line"/>
    </contour>
  </outline>
</glyph>
<glyph name="seveninferior" format="1">
  <advance width="218"/>
  <unicode hex="2087"/>
  <outline>
    <contour>
      <point x="113" y="151" type="line"/>
      <point x="51" y="42"/>
      <point x="44" y="26"/>
      <point x="44" y="13" type="curve" smooth="yes"/>
      <point x="44" y="1"/>
      <point x="49" y="-9"/>
      <point x="68" y="-9" type="curve" smooth="yes"/>
      <point x="86" y="-9"/>
      <point x="102" y="-3"/>
      <point x="113" y="26" type="curve" smooth="yes"/>
      <point x="145" y="112"/>
      <point x="161" y="160"/>
      <point x="218" y="281" type="curve"/>
      <point x="218" y="290" type="line"/>
      <point x="92" y="290" type="line"/>
      <point x="67" y="290"/>
      <point x="60" y="292"/>
      <point x="60" y="301" type="curve" smooth="yes"/>
      <point x="60" y="304"/>
      <point x="61" y="311"/>
      <point x="62" y="312" type="curve"/>
      <point x="40" y="312" type="line"/>
      <point x="12" y="205" type="line"/>
      <point x="33" y="205" type="line"/>
      <point x="38" y="221" type="line"/>
      <point x="51" y="242"/>
      <point x="56" y="243"/>
      <point x="99" y="243" type="curve" smooth="yes"/>
      <point x="162" y="243" type="line"/>
    </contour>
  </outline>
</glyph>
<glyph name="eightinferior" format="1">
  <advance width="271"/>
  <unicode hex="2088"/>
  <outline>
    <contour>
      <point x="147" y="112" type="line" smooth="yes"/>
      <point x="176" y="97"/>
      <point x="189" y="81"/>
      <point x="189" y="66" type="curve" smooth="yes"/>
      <point x="189" y="45"/>
      <point x="170" y="28"/>
      <point x="141" y="28" type="curve" smooth="yes"/>
      <point x="110" y="28"/>
      <point x="82" y="47"/>
      <point x="82" y="75" type="curve" smooth="yes"/>
      <point x="82" y="96"/>
      <point x="97" y="116"/>
      <point x="122" y="125" type="curve"/>
    </contour>
    <contour>
      <point x="182" y="160" type="curve"/>
      <point x="212" y="176"/>
      <point x="234" y="193"/>
      <point x="234" y="227" type="curve" smooth="yes"/>
      <point x="234" y="272"/>
      <point x="184" y="294"/>
      <point x="135" y="294" type="curve" smooth="yes"/>
      <point x="78" y="294"/>
      <point x="34" y="262"/>
      <point x="34" y="218" type="curve" smooth="yes"/>
      <point x="34" y="180"/>
      <point x="60" y="157"/>
      <point x="91" y="141" type="curve"/>
      <point x="55" y="125"/>
      <point x="24" y="103"/>
      <point x="24" y="68" type="curve"/>
      <point x="24" y="16"/>
      <point x="77" y="-8"/>
      <point x="135" y="-8" type="curve" smooth="yes"/>
      <point x="196" y="-8"/>
      <point x="248" y="24"/>
      <point x="248" y="76" type="curve" smooth="yes"/>
      <point x="248" y="117"/>
      <point x="218" y="143"/>
    </contour>
    <contour>
      <point x="133" y="188" type="line" smooth="yes"/>
      <point x="109" y="201"/>
      <point x="100" y="214"/>
      <point x="100" y="229" type="curve" smooth="yes"/>
      <point x="100" y="245"/>
      <point x="109" y="260"/>
      <point x="137" y="260" type="curve"/>
      <point x="164" y="260"/>
      <point x="179" y="245"/>
      <point x="179" y="227" type="curve" smooth="yes"/>
      <point x="179" y="208"/>
      <point x="170" y="186"/>
      <point x="156" y="176" type="curve"/>
    </contour>
  </outline>
</glyph>
<glyph name="servicemark" format="1">
  <advance width="777"/>
  <unicode hex="2120"/>
  <outline>
    <contour>
      <point x="59" y="452" type="line"/>
      <point x="75" y="452" type="line"/>
      <point x="87" y="471" type="line"/>
      <point x="108" y="451"/>
      <point x="129" y="445"/>
      <point x="153" y="445" type="curve"/>
      <point x="207" y="445"/>
      <point x="273" y="469"/>
      <point x="273" y="532" type="curve"/>
      <point x="273" y="581"/>
      <point x="252" y="605"/>
      <point x="166" y="640" type="curve" smooth="yes"/>
      <point x="127" y="655"/>
      <point x="118" y="666"/>
      <point x="118" y="686" type="curve" smooth="yes"/>
      <point x="118" y="709"/>
      <point x="140" y="715"/>
      <point x="158" y="715" type="curve" smooth="yes"/>
      <point x="188" y="715"/>
      <point x="204" y="705"/>
      <point x="219" y="665" type="curve"/>
      <point x="243" y="665" type="line"/>
      <point x="245" y="741" type="line"/>
      <point x="234" y="741" type="line"/>
      <point x="223" y="724" type="line"/>
      <point x="201" y="740"/>
      <point x="180" y="747"/>
      <point x="157" y="747" type="curve" smooth="yes"/>
      <point x="112" y="747"/>
      <point x="65" y="719"/>
      <point x="65" y="664" type="curve" smooth="yes"/>
      <point x="65" y="620"/>
      <point x="83" y="591"/>
      <point x="155" y="563" type="curve" smooth="yes"/>
      <point x="204" y="544"/>
      <point x="213" y="532"/>
      <point x="213" y="512" type="curve" smooth="yes"/>
      <point x="213" y="487"/>
      <point x="187" y="476"/>
      <point x="159" y="476" type="curve" smooth="yes"/>
      <point x="111" y="476"/>
      <point x="94" y="508"/>
      <point x="88" y="538" type="curve"/>
      <point x="62" y="538" type="line"/>
    </contour>
    <contour>
      <point x="505" y="544" type="line"/>
      <point x="588" y="737" type="line"/>
      <point x="715" y="737" type="line"/>
      <point x="715" y="712" type="line"/>
      <point x="679" y="712"/>
      <point x="673" y="699"/>
      <point x="673" y="653" type="curve" smooth="yes"/>
      <point x="673" y="527" type="line"/>
      <point x="673" y="476"/>
      <point x="680" y="470"/>
      <point x="719" y="468" type="curve"/>
      <point x="719" y="443" type="line"/>
      <point x="561" y="443" type="line"/>
      <point x="561" y="468" type="line"/>
      <point x="600" y="470"/>
      <point x="605" y="476"/>
      <point x="605" y="524" type="curve" smooth="yes"/>
      <point x="605" y="689" type="line"/>
      <point x="601" y="689" type="line"/>
      <point x="491" y="439" type="line"/>
      <point x="477" y="439" type="line"/>
      <point x="374" y="689" type="line"/>
      <point x="370" y="689" type="line"/>
      <point x="370" y="527" type="line"/>
      <point x="370" y="477"/>
      <point x="376" y="470"/>
      <point x="414" y="468" type="curve"/>
      <point x="414" y="443" type="line"/>
      <point x="287" y="443" type="line"/>
      <point x="287" y="468" type="line"/>
      <point x="326" y="470"/>
      <point x="332" y="477"/>
      <point x="332" y="524" type="curve" smooth="yes"/>
      <point x="332" y="656" type="line"/>
      <point x="332" y="698"/>
      <point x="326" y="712"/>
      <point x="292" y="712" type="curve"/>
      <point x="292" y="737" type="line"/>
      <point x="430" y="737" type="line"/>
      <point x="506" y="544" type="line"/>
    </contour>
  </outline>
</glyph>
<glyph name="trademark" format="1">
  <advance width="878"/>
  <unicode hex="2122"/>
  <outline>
    <contour>
      <point x="365" y="737" type="line"/>
      <point x="54" y="737" type="line"/>
      <point x="54" y="658" type="line"/>
      <point x="73" y="658" type="line"/>
      <point x="75" y="710"/>
      <point x="108" y="710"/>
      <point x="136" y="710" type="curve" smooth="yes"/>
      <point x="171" y="710"/>
      <point x="176" y="708"/>
      <point x="176" y="698" type="curve" smooth="yes"/>
      <point x="176" y="515" type="line"/>
      <point x="176" y="484"/>
      <point x="172" y="471"/>
      <point x="130" y="468" type="curve"/>
      <point x="130" y="443" type="line"/>
      <point x="290" y="443" type="line"/>
      <point x="290" y="468" type="line"/>
      <point x="248" y="471"/>
      <point x="246" y="483"/>
      <point x="246" y="515" type="curve" smooth="yes"/>
      <point x="246" y="698" type="line"/>
      <point x="246" y="708"/>
      <point x="249" y="710"/>
      <point x="293" y="710" type="curve" smooth="yes"/>
      <point x="331" y="710"/>
      <point x="340" y="695"/>
      <point x="344" y="658" type="curve"/>
      <point x="365" y="658" type="line"/>
    </contour>
    <contour>
      <point x="606" y="544" type="line"/>
      <point x="689" y="737" type="line"/>
      <point x="816" y="737" type="line"/>
      <point x="816" y="712" type="line"/>
      <point x="780" y="712"/>
      <point x="776" y="699"/>
      <point x="776" y="653" type="curve" smooth="yes"/>
      <point x="776" y="527" type="line"/>
      <point x="776" y="476"/>
      <point x="781" y="470"/>
      <point x="820" y="468" type="curve"/>
      <point x="820" y="443" type="line"/>
      <point x="662" y="443" type="line"/>
      <point x="662" y="468" type="line"/>
      <point x="701" y="470"/>
      <point x="706" y="476"/>
      <point x="706" y="524" type="curve" smooth="yes"/>
      <point x="706" y="689" type="line"/>
      <point x="704" y="689" type="line"/>
      <point x="592" y="439" type="line"/>
      <point x="578" y="439" type="line"/>
      <point x="475" y="689" type="line"/>
      <point x="471" y="689" type="line"/>
      <point x="471" y="527" type="line"/>
      <point x="471" y="477"/>
      <point x="477" y="470"/>
      <point x="517" y="468" type="curve"/>
      <point x="517" y="443" type="line"/>
      <point x="389" y="443" type="line"/>
      <point x="389" y="468" type="line"/>
      <point x="428" y="470"/>
      <point x="433" y="477"/>
      <point x="433" y="524" type="curve" smooth="yes"/>
      <point x="433" y="656" type="line"/>
      <point x="433" y="698"/>
      <point x="425" y="712"/>
      <point x="393" y="712" type="curve"/>
      <point x="393" y="737" type="line"/>
      <point x="531" y="737" type="line"/>
      <point x="607" y="544" type="line"/>
    </contour>
  </outline>
</glyph>
<glyph name="twothirds" format="1">
  <advance width="705"/>
  <unicode hex="2154"/>
  <outline>
    <contour>
      <point x="679" y="737" type="line"/>
      <point x="600" y="737" type="line"/>
      <point x="32" y="0" type="line"/>
      <point x="119" y="0" type="line"/>
    </contour>
    <component base="threeinferior" xOffset="368"/>
    <component base="twosuperior" xOffset="65"/>
  </outline>
</glyph>
<glyph name="threeeighths" format="1">
  <advance width="704"/>
  <unicode hex="215C"/>
  <outline>
    <contour>
      <point x="678" y="737" type="line"/>
      <point x="599" y="737" type="line"/>
      <point x="32" y="0" type="line"/>
      <point x="118" y="0" type="line"/>
    </contour>
    <component base="eightinferior" xOffset="368"/>
    <component base="threesuperior" xOffset="60"/>
  </outline>
</glyph>
<glyph name="uni2219" format="1">
  <advance width="267"/>
  <unicode hex="2219"/>
  <outline>
    <contour>
      <point x="57" y="262" type="curve" smooth="yes"/>
      <point x="57" y="221"/>
      <point x="90" y="188"/>
      <point x="133" y="188" type="curve" smooth="yes"/>
      <point x="179" y="188"/>
      <point x="213" y="221"/>
      <point x="213" y="262" type="curve" smooth="yes"/>
      <point x="213" y="306"/>
      <point x="179" y="341"/>
      <point x="133" y="341" type="curve" smooth="yes"/>
      <point x="90" y="341"/>
      <point x="57" y="306"/>
    </contour>
  </outline>
</glyph>
<glyph name=".notdef" format="1">
  <advance width="724"/>
  <outline>
    <contour>
      <point x="125" y="-249" type="line"/>
      <point x="599" y="-249" type="line"/>
      <point x="599" y="929" type="line"/>
      <point x="125" y="929" type="line"/>
    </contour>
    <contour>
      <point x="229" y="872" type="line"/>
      <point x="494" y="872" type="line"/>
      <point x="494" y="-191" type="line"/>
      <point x="229" y="-191" type="line"/>
    </contour>
  </outline>
</glyph>
<glyph name="caron.alt" format="1">
  <advance width="166"/>
  <outline>
    <contour>
      <point x="55" y="524" type="line"/>
      <point x="121" y="571"/>
      <point x="150" y="616"/>
      <point x="150" y="671" type="curve" smooth="yes"/>
      <point x="150" y="719"/>
      <point x="123" y="749"/>
      <point x="81" y="749" type="curve" smooth="yes"/>
      <point x="34" y="749"/>
      <point x="6" y="723"/>
      <point x="6" y="688" type="curve"/>
      <point x="6" y="655"/>
      <point x="26" y="634"/>
      <point x="54" y="634" type="curve" smooth="yes"/>
      <point x="65" y="634"/>
      <point x="75" y="637"/>
      <point x="80" y="641" type="curve"/>
      <point x="80" y="608"/>
      <point x="61" y="584"/>
      <point x="26" y="555" type="curve"/>
    </contour>
    <contour>
      <point x="81" y="623" type="move" name="_top"/>
    </contour>
  </outline>
</glyph>
<glyph name="dieresis.cap" format="1">
  <advance width="332"/>
  <outline>
    <contour>
      <point x="-9" y="862" type="curve" smooth="yes"/>
      <point x="-9" y="826"/>
      <point x="19" y="801"/>
      <point x="54" y="801" type="curve" smooth="yes"/>
      <point x="91" y="801"/>
      <point x="117" y="826"/>
      <point x="117" y="862" type="curve" smooth="yes"/>
      <point x="117" y="896"/>
      <point x="91" y="919"/>
      <point x="54" y="919" type="curve" smooth="yes"/>
      <point x="19" y="919"/>
      <point x="-9" y="896"/>
    </contour>
    <contour>
      <point x="215" y="862" type="curve" smooth="yes"/>
      <point x="215" y="826"/>
      <point x="241" y="801"/>
      <point x="279" y="801" type="curve" smooth="yes"/>
      <point x="313" y="801"/>
      <point x="342" y="826"/>
      <point x="342" y="862" type="curve" smooth="yes"/>
      <point x="342" y="896"/>
      <point x="313" y="919"/>
      <point x="279" y="919" type="curve" smooth="yes"/>
      <point x="241" y="919"/>
      <point x="215" y="896"/>
    </contour>
    <contour>
      <point x="165" y="795" type="move" name="_topcap"/>
    </contour>
  </outline>
</glyph>
<glyph name="dotaccent.cap" format="1">
  <advance width="169"/>
  <outline>
    <contour>
      <point x="15" y="850" type="curve" smooth="yes"/>
      <point x="15" y="814"/>
      <point x="48" y="785"/>
      <point x="84" y="785" type="curve" smooth="yes"/>
      <point x="126" y="785"/>
      <point x="158" y="814"/>
      <point x="158" y="850" type="curve" smooth="yes"/>
      <point x="158" y="888"/>
      <point x="126" y="918"/>
      <point x="84" y="918" type="curve" smooth="yes"/>
      <point x="48" y="918"/>
      <point x="15" y="888"/>
    </contour>
    <contour>
      <point x="84" y="795" type="move" name="_topcap"/>
    </contour>
  </outline>
</glyph>
<glyph name="dotbelow" format="1">
  <advance width="168"/>
  <outline>
    <contour>
      <point x="3" y="-157" type="curve" smooth="yes"/>
      <point x="3" y="-201"/>
      <point x="40" y="-237"/>
      <point x="84" y="-237" type="curve" smooth="yes"/>
      <point x="131" y="-237"/>
      <point x="167" y="-201"/>
      <point x="167" y="-157" type="curve" smooth="yes"/>
      <point x="167" y="-110"/>
      <point x="131" y="-75"/>
      <point x="84" y="-75" type="curve" smooth="yes"/>
      <point x="40" y="-75"/>
      <point x="3" y="-110"/>
    </contour>
    <contour>
      <point x="84" y="0" type="move" name="_bottom"/>
    </contour>
  </outline>
</glyph>
<glyph name="f_b" format="1">
  <advance width="1093"/>
  <outline>
    <contour>
      <point x="16" y="436" type="line"/>
      <point x="117" y="436" type="line"/>
      <point x="117" y="154" type="line"/>
      <point x="117" y="57"/>
      <point x="107" y="44"/>
      <point x="29" y="41" type="curve"/>
      <point x="29" y="0" type="line"/>
      <point x="375" y="0" type="line"/>
      <point x="375" y="41" type="line"/>
      <point x="323" y="43"/>
      <point x="313" y="65"/>
      <point x="313" y="162" type="curve" smooth="yes"/>
      <point x="313" y="436" type="line"/>
      <point x="409" y="436" type="line"/>
      <point x="409" y="493" type="line"/>
      <point x="313" y="493" type="line"/>
      <point x="313" y="623" type="line"/>
      <point x="313" y="698"/>
      <point x="338" y="734"/>
      <point x="389" y="734" type="curve"/>
      <point x="437" y="734"/>
      <point x="469" y="710"/>
      <point x="497" y="672" type="curve"/>
      <point x="534" y="672"/>
      <point x="614" y="679"/>
      <point x="614" y="718" type="curve" smooth="yes"/>
      <point x="614" y="764"/>
      <point x="492" y="795"/>
      <point x="389" y="795" type="curve" smooth="yes"/>
      <point x="238" y="795"/>
      <point x="117" y="735"/>
      <point x="117" y="575" type="curve" smooth="yes"/>
      <point x="117" y="493" type="line"/>
      <point x="16" y="493" type="line"/>
    </contour>
    <contour>
      <point x="685" y="263" type="line"/>
      <point x="685" y="374"/>
      <point x="698" y="450"/>
      <point x="771" y="450" type="curve" smooth="yes"/>
      <point x="844" y="450"/>
      <point x="854" y="387"/>
      <point x="854" y="254" type="curve" smooth="yes"/>
      <point x="854" y="115"/>
      <point x="839" y="49"/>
      <point x="769" y="49" type="curve" smooth="yes"/>
      <point x="698" y="49"/>
      <point x="685" y="120"/>
      <point x="685" y="215" type="curve" smooth="yes"/>
    </contour>
    <contour>
      <point x="683" y="795" type="line"/>
      <point x="409" y="756" type="line"/>
      <point x="409" y="742" type="line"/>
      <point x="488" y="730" type="line"/>
      <point x="488" y="0" type="line"/>
      <point x="521" y="0" type="line"/>
      <point x="655" y="64" type="line"/>
      <point x="717" y="5"/>
      <point x="757" y="-10"/>
      <point x="826" y="-10" type="curve" smooth="yes"/>
      <point x="960" y="-10"/>
      <point x="1061" y="87"/>
      <point x="1061" y="256" type="curve" smooth="yes"/>
      <point x="1061" y="416"/>
      <point x="973" y="517"/>
      <point x="839" y="517" type="curve" smooth="yes"/>
      <point x="773" y="517"/>
      <point x="714" y="488"/>
      <point x="686" y="443" type="curve"/>
      <point x="683" y="443" type="line"/>
    </contour>
  </outline>
</glyph>
<glyph name="f_f" format="1">
  <advance width="817"/>
  <outline>
    <contour>
      <point x="19" y="459" type="line"/>
      <point x="120" y="459" type="line"/>
      <point x="120" y="154" type="line"/>
      <point x="120" y="57"/>
      <point x="109" y="44"/>
      <point x="32" y="41" type="curve"/>
      <point x="32" y="0" type="line"/>
      <point x="375" y="0" type="line"/>
      <point x="375" y="41" type="line"/>
      <point x="331" y="43"/>
      <point x="316" y="65"/>
      <point x="316" y="162" type="curve" smooth="yes"/>
      <point x="316" y="459" type="line"/>
      <point x="473" y="459" type="line"/>
      <point x="473" y="515" type="line"/>
      <point x="316" y="515" type="line"/>
      <point x="316" y="585" type="line"/>
      <point x="316" y="664"/>
      <point x="340" y="699"/>
      <point x="390" y="699" type="curve"/>
      <point x="434" y="699"/>
      <point x="472" y="676"/>
      <point x="492" y="606" type="curve"/>
      <point x="560" y="665" type="line"/>
      <point x="564" y="726"/>
      <point x="494" y="756"/>
      <point x="378" y="756" type="curve"/>
      <point x="241" y="756"/>
      <point x="120" y="696"/>
      <point x="120" y="536" type="curve" smooth="yes"/>
      <point x="120" y="515" type="line"/>
      <point x="19" y="515" type="line"/>
    </contour>
    <contour>
      <point x="383" y="459" type="line"/>
      <point x="485" y="459" type="line"/>
      <point x="485" y="154" type="line"/>
      <point x="485" y="57"/>
      <point x="474" y="44"/>
      <point x="423" y="41" type="curve"/>
      <point x="423" y="0" type="line"/>
      <point x="789" y="0" type="line"/>
      <point x="789" y="41" type="line"/>
      <point x="704" y="43"/>
      <point x="682" y="65"/>
      <point x="682" y="162" type="curve" smooth="yes"/>
      <point x="682" y="459" type="line"/>
      <point x="833" y="459" type="line"/>
      <point x="833" y="515" type="line"/>
      <point x="682" y="515" type="line"/>
      <point x="682" y="623" type="line"/>
      <point x="682" y="702"/>
      <point x="703" y="737"/>
      <point x="740" y="737" type="curve" smooth="yes"/>
      <point x="774" y="737"/>
      <point x="784" y="713"/>
      <point x="793" y="695" type="curve" smooth="yes"/>
      <point x="805" y="674"/>
      <point x="817" y="638"/>
      <point x="865" y="638" type="curve" smooth="yes"/>
      <point x="902" y="638"/>
      <point x="928" y="660"/>
      <point x="928" y="699" type="curve" smooth="yes"/>
      <point x="928" y="757"/>
      <point x="860" y="795"/>
      <point x="756" y="795" type="curve" smooth="yes"/>
      <point x="635" y="795"/>
      <point x="534" y="755"/>
      <point x="497" y="657" type="curve"/>
      <point x="485" y="646" type="line"/>
      <point x="485" y="515" type="line"/>
      <point x="383" y="515" type="line"/>
    </contour>
  </outline>
</glyph>
<glyph name="f_f_b" format="1">
  <advance width="1460"/>
  <outline>
    <contour>
      <point x="383" y="436" type="line"/>
      <point x="485" y="436" type="line"/>
      <point x="485" y="154" type="line"/>
      <point x="485" y="57"/>
      <point x="485" y="44"/>
      <point x="423" y="41" type="curve"/>
      <point x="423" y="0" type="line"/>
      <point x="742" y="0" type="line"/>
      <point x="742" y="41" type="line"/>
      <point x="691" y="43"/>
      <point x="682" y="65"/>
      <point x="682" y="162" type="curve" smooth="yes"/>
      <point x="682" y="436" type="line"/>
      <point x="776" y="436" type="line"/>
      <point x="776" y="493" type="line"/>
      <point x="682" y="493" type="line"/>
      <point x="682" y="623" type="line"/>
      <point x="682" y="698"/>
      <point x="705" y="734"/>
      <point x="758" y="734" type="curve"/>
      <point x="807" y="734"/>
      <point x="837" y="709"/>
      <point x="864" y="672" type="curve"/>
      <point x="901" y="672"/>
      <point x="982" y="679"/>
      <point x="982" y="718" type="curve" smooth="yes"/>
      <point x="982" y="764"/>
      <point x="860" y="795"/>
      <point x="756" y="795" type="curve" smooth="yes"/>
      <point x="605" y="795"/>
      <point x="485" y="735"/>
      <point x="485" y="575" type="curve" smooth="yes"/>
      <point x="485" y="493" type="line"/>
      <point x="383" y="493" type="line"/>
    </contour>
    <contour>
      <point x="1053" y="263" type="line"/>
      <point x="1053" y="374"/>
      <point x="1065" y="450"/>
      <point x="1140" y="450" type="curve" smooth="yes"/>
      <point x="1211" y="450"/>
      <point x="1223" y="387"/>
      <point x="1223" y="254" type="curve" smooth="yes"/>
      <point x="1223" y="115"/>
      <point x="1206" y="49"/>
      <point x="1138" y="49" type="curve" smooth="yes"/>
      <point x="1065" y="49"/>
      <point x="1053" y="120"/>
      <point x="1053" y="215" type="curve" smooth="yes"/>
    </contour>
    <contour>
      <point x="1050" y="795" type="line"/>
      <point x="776" y="756" type="line"/>
      <point x="776" y="742" type="line"/>
      <point x="855" y="730" type="line"/>
      <point x="855" y="0" type="line"/>
      <point x="889" y="0" type="line"/>
      <point x="1024" y="64" type="line"/>
      <point x="1084" y="5"/>
      <point x="1124" y="-10"/>
      <point x="1193" y="-10" type="curve" smooth="yes"/>
      <point x="1327" y="-10"/>
      <point x="1430" y="87"/>
      <point x="1430" y="256" type="curve" smooth="yes"/>
      <point x="1430" y="416"/>
      <point x="1342" y="517"/>
      <point x="1208" y="517" type="curve" smooth="yes"/>
      <point x="1141" y="517"/>
      <point x="1083" y="488"/>
      <point x="1055" y="443" type="curve"/>
      <point x="1050" y="443" type="line"/>
    </contour>
    <contour>
      <point x="19" y="436" type="line"/>
      <point x="120" y="436" type="line"/>
      <point x="120" y="154" type="line"/>
      <point x="120" y="57"/>
      <point x="109" y="44"/>
      <point x="32" y="41" type="curve"/>
      <point x="32" y="0" type="line"/>
      <point x="375" y="0" type="line"/>
      <point x="375" y="41" type="line"/>
      <point x="331" y="43"/>
      <point x="316" y="65"/>
      <point x="316" y="162" type="curve" smooth="yes"/>
      <point x="316" y="436" type="line"/>
      <point x="473" y="436" type="line"/>
      <point x="473" y="493" type="line"/>
      <point x="316" y="493" type="line"/>
      <point x="316" y="585" type="line"/>
      <point x="316" y="664"/>
      <point x="340" y="699"/>
      <point x="390" y="699" type="curve"/>
      <point x="434" y="699"/>
      <point x="472" y="676"/>
      <point x="492" y="606" type="curve"/>
      <point x="560" y="665" type="line"/>
      <point x="564" y="726"/>
      <point x="494" y="756"/>
      <point x="378" y="756" type="curve"/>
      <point x="241" y="756"/>
      <point x="120" y="696"/>
      <point x="120" y="536" type="curve" smooth="yes"/>
      <point x="120" y="493" type="line"/>
      <point x="19" y="493" type="line"/>
    </contour>
  </outline>
</glyph>
<glyph name="f_f_i" format="1">
  <advance width="1130"/>
  <outline>
    <contour>
      <point x="19" y="436" type="line"/>
      <point x="120" y="436" type="line"/>
      <point x="120" y="154" type="line"/>
      <point x="120" y="57"/>
      <point x="109" y="44"/>
      <point x="32" y="41" type="curve"/>
      <point x="32" y="0" type="line"/>
      <point x="375" y="0" type="line"/>
      <point x="375" y="41" type="line"/>
      <point x="331" y="43"/>
      <point x="316" y="65"/>
      <point x="316" y="162" type="curve" smooth="yes"/>
      <point x="316" y="436" type="line"/>
      <point x="473" y="436" type="line"/>
      <point x="473" y="493" type="line"/>
      <point x="316" y="493" type="line"/>
      <point x="316" y="585" type="line"/>
      <point x="316" y="664"/>
      <point x="340" y="699"/>
      <point x="390" y="699" type="curve"/>
      <point x="434" y="699"/>
      <point x="472" y="676"/>
      <point x="492" y="606" type="curve"/>
      <point x="560" y="665" type="line"/>
      <point x="564" y="726"/>
      <point x="494" y="756"/>
      <point x="378" y="756" type="curve"/>
      <point x="241" y="756"/>
      <point x="120" y="696"/>
      <point x="120" y="536" type="curve" smooth="yes"/>
      <point x="120" y="493" type="line"/>
      <point x="19" y="493" type="line"/>
    </contour>
    <contour>
      <point x="383" y="436" type="line"/>
      <point x="485" y="436" type="line"/>
      <point x="485" y="154" type="line"/>
      <point x="485" y="57"/>
      <point x="462" y="44"/>
      <point x="423" y="41" type="curve"/>
      <point x="423" y="0" type="line"/>
      <point x="738" y="0" type="line"/>
      <point x="738" y="41" type="line"/>
      <point x="683" y="43"/>
      <point x="682" y="65"/>
      <point x="682" y="162" type="curve" smooth="yes"/>
      <point x="682" y="436" type="line"/>
      <point x="833" y="436" type="line"/>
      <point x="833" y="493" type="line"/>
      <point x="682" y="493" type="line"/>
      <point x="682" y="623" type="line"/>
      <point x="682" y="704"/>
      <point x="703" y="737"/>
      <point x="740" y="737" type="curve" smooth="yes"/>
      <point x="772" y="737"/>
      <point x="782" y="718"/>
      <point x="791" y="698" type="curve" smooth="yes"/>
      <point x="802" y="676"/>
      <point x="816" y="638"/>
      <point x="865" y="638" type="curve" smooth="yes"/>
      <point x="902" y="638"/>
      <point x="928" y="660"/>
      <point x="928" y="699" type="curve" smooth="yes"/>
      <point x="928" y="757"/>
      <point x="860" y="795"/>
      <point x="756" y="795" type="curve" smooth="yes"/>
      <point x="634" y="795"/>
      <point x="532" y="754"/>
      <point x="496" y="654" type="curve"/>
      <point x="485" y="640" type="line"/>
      <point x="485" y="493" type="line"/>
      <point x="383" y="493" type="line"/>
    </contour>
    <contour>
      <point x="1040" y="517" type="line"/>
      <point x="757" y="489" type="line"/>
      <point x="757" y="436" type="line"/>
      <point x="813" y="436"/>
      <point x="830" y="421"/>
      <point x="836" y="396" type="curve" smooth="yes"/>
      <point x="842" y="379"/>
      <point x="844" y="342"/>
      <point x="844" y="268" type="curve" smooth="yes"/>
      <point x="844" y="153" type="line"/>
      <point x="844" y="62"/>
      <point x="837" y="44"/>
      <point x="790" y="41" type="curve"/>
      <point x="790" y="0" type="line"/>
      <point x="1120" y="0" type="line"/>
      <point x="1120" y="41" type="line"/>
      <point x="1048" y="44"/>
      <point x="1040" y="57"/>
      <point x="1040" y="160" type="curve" smooth="yes"/>
    </contour>
  </outline>
</glyph>
<glyph name="f_f_j" format="1">
  <advance width="1125"/>
  <outline>
    <contour>
      <point x="383" y="436" type="line"/>
      <point x="485" y="436" type="line"/>
      <point x="485" y="154" type="line"/>
      <point x="485" y="57"/>
      <point x="462" y="44"/>
      <point x="423" y="41" type="curve"/>
      <point x="423" y="0" type="line"/>
      <point x="738" y="0" type="line"/>
      <point x="738" y="41" type="line"/>
      <point x="683" y="43"/>
      <point x="682" y="65"/>
      <point x="682" y="162" type="curve" smooth="yes"/>
      <point x="682" y="436" type="line"/>
      <point x="833" y="436" type="line"/>
      <point x="833" y="493" type="line"/>
      <point x="682" y="493" type="line"/>
      <point x="682" y="623" type="line"/>
      <point x="682" y="704"/>
      <point x="703" y="737"/>
      <point x="740" y="737" type="curve" smooth="yes"/>
      <point x="774" y="737"/>
      <point x="784" y="713"/>
      <point x="793" y="695" type="curve" smooth="yes"/>
      <point x="805" y="674"/>
      <point x="817" y="638"/>
      <point x="865" y="638" type="curve" smooth="yes"/>
      <point x="902" y="638"/>
      <point x="928" y="660"/>
      <point x="928" y="699" type="curve" smooth="yes"/>
      <point x="928" y="757"/>
      <point x="860" y="795"/>
      <point x="756" y="795" type="curve" smooth="yes"/>
      <point x="634" y="795"/>
      <point x="532" y="754"/>
      <point x="496" y="654" type="curve"/>
      <point x="485" y="640" type="line"/>
      <point x="485" y="493" type="line"/>
      <point x="383" y="493" type="line"/>
    </contour>
    <contour>
      <point x="19" y="436" type="line"/>
      <point x="120" y="436" type="line"/>
      <point x="120" y="154" type="line"/>
      <point x="120" y="57"/>
      <point x="109" y="44"/>
      <point x="32" y="41" type="curve"/>
      <point x="32" y="0" type="line"/>
      <point x="375" y="0" type="line"/>
      <point x="375" y="41" type="line"/>
      <point x="331" y="43"/>
      <point x="316" y="65"/>
      <point x="316" y="162" type="curve" smooth="yes"/>
      <point x="316" y="436" type="line"/>
      <point x="473" y="436" type="line"/>
      <point x="473" y="493" type="line"/>
      <point x="316" y="493" type="line"/>
      <point x="316" y="585" type="line"/>
      <point x="316" y="664"/>
      <point x="340" y="699"/>
      <point x="390" y="699" type="curve"/>
      <point x="434" y="699"/>
      <point x="472" y="676"/>
      <point x="492" y="606" type="curve"/>
      <point x="560" y="665" type="line"/>
      <point x="564" y="726"/>
      <point x="494" y="756"/>
      <point x="378" y="756" type="curve"/>
      <point x="241" y="756"/>
      <point x="120" y="696"/>
      <point x="120" y="536" type="curve" smooth="yes"/>
      <point x="120" y="493" type="line"/>
      <point x="19" y="493" type="line"/>
    </contour>
    <contour>
      <point x="1046" y="517" type="line"/>
      <point x="765" y="492" type="line"/>
      <point x="765" y="436" type="line"/>
      <point x="822" y="436"/>
      <point x="837" y="422"/>
      <point x="843" y="397" type="curve" smooth="yes"/>
      <point x="847" y="382"/>
      <point x="852" y="350"/>
      <point x="852" y="282" type="curve" smooth="yes"/>
      <point x="852" y="-80" type="line"/>
      <point x="852" y="-161"/>
      <point x="821" y="-193"/>
      <point x="782" y="-193" type="curve" smooth="yes"/>
      <point x="752" y="-193"/>
      <point x="743" y="-167"/>
      <point x="740" y="-152" type="curve" smooth="yes"/>
      <point x="733" y="-124"/>
      <point x="726" y="-85"/>
      <point x="674" y="-85" type="curve"/>
      <point x="627" y="-85"/>
      <point x="594" y="-119"/>
      <point x="594" y="-154" type="curve"/>
      <point x="594" y="-222"/>
      <point x="650" y="-249"/>
      <point x="775" y="-249" type="curve" smooth="yes"/>
      <point x="951" y="-249"/>
      <point x="1046" y="-172"/>
      <point x="1046" y="13" type="curve" smooth="yes"/>
    </contour>
  </outline>
</glyph>
<glyph name="f_f_k" format="1">
  <advance width="1500"/>
  <outline>
    <contour>
      <point x="382" y="436" type="line"/>
      <point x="483" y="436" type="line"/>
      <point x="483" y="154" type="line"/>
      <point x="483" y="57"/>
      <point x="474" y="44"/>
      <point x="423" y="41" type="curve"/>
      <point x="423" y="0" type="line"/>
      <point x="741" y="0" type="line"/>
      <point x="741" y="41" type="line"/>
      <point x="689" y="43"/>
      <point x="680" y="65"/>
      <point x="680" y="162" type="curve" smooth="yes"/>
      <point x="680" y="436" type="line"/>
      <point x="775" y="436" type="line"/>
      <point x="775" y="493" type="line"/>
      <point x="680" y="493" type="line"/>
      <point x="680" y="623" type="line"/>
      <point x="680" y="698"/>
      <point x="704" y="734"/>
      <point x="757" y="734" type="curve"/>
      <point x="805" y="734"/>
      <point x="835" y="709"/>
      <point x="863" y="672" type="curve"/>
      <point x="899" y="672"/>
      <point x="982" y="679"/>
      <point x="982" y="718" type="curve" smooth="yes"/>
      <point x="982" y="776"/>
      <point x="858" y="795"/>
      <point x="755" y="795" type="curve" smooth="yes"/>
      <point x="604" y="795"/>
      <point x="483" y="735"/>
      <point x="483" y="575" type="curve" smooth="yes"/>
      <point x="483" y="493" type="line"/>
      <point x="382" y="493" type="line"/>
    </contour>
    <contour>
      <point x="19" y="436" type="line"/>
      <point x="120" y="436" type="line"/>
      <point x="120" y="154" type="line"/>
      <point x="120" y="57"/>
      <point x="109" y="44"/>
      <point x="32" y="41" type="curve"/>
      <point x="32" y="0" type="line"/>
      <point x="375" y="0" type="line"/>
      <point x="375" y="41" type="line"/>
      <point x="331" y="43"/>
      <point x="316" y="65"/>
      <point x="316" y="162" type="curve" smooth="yes"/>
      <point x="316" y="436" type="line"/>
      <point x="473" y="436" type="line"/>
      <point x="473" y="493" type="line"/>
      <point x="316" y="493" type="line"/>
      <point x="316" y="585" type="line"/>
      <point x="316" y="664"/>
      <point x="340" y="699"/>
      <point x="390" y="699" type="curve"/>
      <point x="434" y="699"/>
      <point x="472" y="676"/>
      <point x="492" y="606" type="curve"/>
      <point x="560" y="665" type="line"/>
      <point x="564" y="726"/>
      <point x="494" y="756"/>
      <point x="378" y="756" type="curve"/>
      <point x="241" y="756"/>
      <point x="120" y="696"/>
      <point x="120" y="536" type="curve" smooth="yes"/>
      <point x="120" y="493" type="line"/>
      <point x="19" y="493" type="line"/>
    </contour>
    <contour>
      <point x="1074" y="264" type="line"/>
      <point x="1161" y="137" type="line"/>
      <point x="1189" y="95"/>
      <point x="1211" y="58"/>
      <point x="1211" y="52" type="curve" smooth="yes"/>
      <point x="1211" y="42"/>
      <point x="1196" y="41"/>
      <point x="1148" y="41" type="curve"/>
      <point x="1148" y="0" type="line"/>
      <point x="1509" y="0" type="line"/>
      <point x="1509" y="41" type="line"/>
      <point x="1464" y="41"/>
      <point x="1444" y="53"/>
      <point x="1416" y="93" type="curve" smooth="yes"/>
      <point x="1225" y="364" type="line"/>
    </contour>
    <contour>
      <point x="1103" y="0" type="line"/>
      <point x="1103" y="41" type="line"/>
      <point x="1067" y="40"/>
      <point x="1055" y="59"/>
      <point x="1055" y="160" type="curve"/>
      <point x="1055" y="186" type="line"/>
      <point x="1300" y="409" type="line"/>
      <point x="1345" y="449"/>
      <point x="1395" y="467"/>
      <point x="1444" y="467" type="curve"/>
      <point x="1444" y="508" type="line"/>
      <point x="1149" y="508" type="line"/>
      <point x="1149" y="467" type="line"/>
      <point x="1220" y="467"/>
      <point x="1236" y="462"/>
      <point x="1235" y="442" type="curve" smooth="yes"/>
      <point x="1234" y="428"/>
      <point x="1223" y="402"/>
      <point x="1154" y="346" type="curve" smooth="yes"/>
      <point x="1055" y="265" type="line"/>
      <point x="1055" y="795" type="line"/>
      <point x="781" y="758" type="line"/>
      <point x="781" y="743" type="line"/>
      <point x="858" y="702" type="line"/>
      <point x="858" y="153" type="line"/>
      <point x="858" y="58"/>
      <point x="835" y="43"/>
      <point x="794" y="41" type="curve"/>
      <point x="794" y="0" type="line"/>
    </contour>
  </outline>
</glyph>
<glyph name="f_i" format="1">
  <advance width="764"/>
  <outline>
    <contour>
      <point x="17" y="436" type="line"/>
      <point x="118" y="436" type="line"/>
      <point x="118" y="154" type="line"/>
      <point x="118" y="57"/>
      <point x="108" y="44"/>
      <point x="30" y="41" type="curve"/>
      <point x="30" y="0" type="line"/>
      <point x="376" y="0" type="line"/>
      <point x="376" y="41" type="line"/>
      <point x="325" y="43"/>
      <point x="314" y="65"/>
      <point x="314" y="162" type="curve" smooth="yes"/>
      <point x="314" y="436" type="line"/>
      <point x="467" y="436" type="line"/>
      <point x="467" y="493" type="line"/>
      <point x="314" y="493" type="line"/>
      <point x="314" y="623" type="line"/>
      <point x="314" y="701"/>
      <point x="337" y="737"/>
      <point x="374" y="737" type="curve" smooth="yes"/>
      <point x="411" y="737"/>
      <point x="419" y="712"/>
      <point x="431" y="689" type="curve" smooth="yes"/>
      <point x="442" y="668"/>
      <point x="456" y="638"/>
      <point x="499" y="638" type="curve" smooth="yes"/>
      <point x="536" y="638"/>
      <point x="560" y="660"/>
      <point x="560" y="699" type="curve" smooth="yes"/>
      <point x="560" y="757"/>
      <point x="494" y="795"/>
      <point x="390" y="795" type="curve" smooth="yes"/>
      <point x="239" y="795"/>
      <point x="118" y="735"/>
      <point x="118" y="575" type="curve" smooth="yes"/>
      <point x="118" y="493" type="line"/>
      <point x="17" y="493" type="line"/>
    </contour>
    <contour>
      <point x="673" y="517" type="line"/>
      <point x="390" y="489" type="line"/>
      <point x="390" y="436" type="line"/>
      <point x="446" y="436"/>
      <point x="463" y="421"/>
      <point x="470" y="396" type="curve" smooth="yes"/>
      <point x="476" y="379"/>
      <point x="476" y="342"/>
      <point x="476" y="268" type="curve" smooth="yes"/>
      <point x="476" y="153" type="line"/>
      <point x="476" y="62"/>
      <point x="477" y="44"/>
      <point x="429" y="41" type="curve"/>
      <point x="429" y="0" type="line"/>
      <point x="754" y="0" type="line"/>
      <point x="754" y="41" type="line"/>
      <point x="681" y="44"/>
      <point x="673" y="57"/>
      <point x="673" y="160" type="curve" smooth="yes"/>
    </contour>
  </outline>
</glyph>
<glyph name="f_j" format="1">
  <advance width="759"/>
  <outline>
    <contour>
      <point x="17" y="436" type="line"/>
      <point x="118" y="436" type="line"/>
      <point x="118" y="154" type="line"/>
      <point x="118" y="57"/>
      <point x="108" y="44"/>
      <point x="30" y="41" type="curve"/>
      <point x="30" y="0" type="line"/>
      <point x="376" y="0" type="line"/>
      <point x="376" y="41" type="line"/>
      <point x="325" y="43"/>
      <point x="314" y="65"/>
      <point x="314" y="162" type="curve" smooth="yes"/>
      <point x="314" y="436" type="line"/>
      <point x="467" y="436" type="line"/>
      <point x="467" y="493" type="line"/>
      <point x="314" y="493" type="line"/>
      <point x="314" y="623" type="line"/>
      <point x="314" y="704"/>
      <point x="337" y="737"/>
      <point x="374" y="737" type="curve" smooth="yes"/>
      <point x="406" y="737"/>
      <point x="418" y="715"/>
      <point x="427" y="696" type="curve" smooth="yes"/>
      <point x="437" y="674"/>
      <point x="451" y="638"/>
      <point x="499" y="638" type="curve" smooth="yes"/>
      <point x="536" y="638"/>
      <point x="560" y="660"/>
      <point x="560" y="699" type="curve" smooth="yes"/>
      <point x="560" y="757"/>
      <point x="494" y="795"/>
      <point x="390" y="795" type="curve" smooth="yes"/>
      <point x="239" y="795"/>
      <point x="118" y="735"/>
      <point x="118" y="575" type="curve" smooth="yes"/>
      <point x="118" y="493" type="line"/>
      <point x="17" y="493" type="line"/>
    </contour>
    <contour>
      <point x="680" y="517" type="line"/>
      <point x="399" y="492" type="line"/>
      <point x="399" y="436" type="line"/>
      <point x="455" y="436"/>
      <point x="469" y="422"/>
      <point x="477" y="397" type="curve" smooth="yes"/>
      <point x="481" y="382"/>
      <point x="484" y="350"/>
      <point x="484" y="282" type="curve" smooth="yes"/>
      <point x="484" y="-80" type="line"/>
      <point x="484" y="-161"/>
      <point x="455" y="-193"/>
      <point x="416" y="-193" type="curve" smooth="yes"/>
      <point x="384" y="-193"/>
      <point x="377" y="-167"/>
      <point x="374" y="-152" type="curve" smooth="yes"/>
      <point x="367" y="-124"/>
      <point x="360" y="-85"/>
      <point x="306" y="-85" type="curve"/>
      <point x="261" y="-85"/>
      <point x="227" y="-119"/>
      <point x="227" y="-154" type="curve"/>
      <point x="227" y="-222"/>
      <point x="284" y="-249"/>
      <point x="407" y="-249" type="curve" smooth="yes"/>
      <point x="585" y="-249"/>
      <point x="680" y="-172"/>
      <point x="680" y="13" type="curve" smooth="yes"/>
    </contour>
  </outline>
</glyph>
<glyph name="grave.cap" format="1">
  <advance width="314"/>
  <outline>
    <contour>
      <point x="294" y="786" type="line"/>
      <point x="175" y="887" type="line" smooth="yes"/>
      <point x="155" y="904"/>
      <point x="120" y="920"/>
      <point x="84" y="920" type="curve" smooth="yes"/>
      <point x="42" y="920"/>
      <point x="20" y="900"/>
      <point x="20" y="879" type="curve" smooth="yes"/>
      <point x="20" y="847"/>
      <point x="57" y="825"/>
      <point x="110" y="812" type="curve" smooth="yes"/>
      <point x="218" y="786" type="line"/>
    </contour>
    <contour>
      <point x="173" y="795" type="move" name="_topcap"/>
    </contour>
  </outline>
</glyph>
<glyph name="ring.cap" format="1">
  <advance width="174"/>
  <outline>
    <contour>
      <point x="87" y="919" type="curve"/>
      <point x="48" y="919"/>
      <point x="20" y="892"/>
      <point x="20" y="857" type="curve" smooth="yes"/>
      <point x="20" y="821"/>
      <point x="48" y="795"/>
      <point x="87" y="795" type="curve"/>
      <point x="126" y="795"/>
      <point x="154" y="821"/>
      <point x="154" y="857" type="curve" smooth="yes"/>
      <point x="154" y="892"/>
      <point x="126" y="919"/>
    </contour>
    <contour>
      <point x="87" y="879" type="curve"/>
      <point x="102.0" y="879.0"/>
      <point x="108.0" y="868.0"/>
      <point x="108" y="857" type="curve" smooth="yes"/>
      <point x="108.0" y="843.105263158"/>
      <point x="102.0" y="833.0"/>
      <point x="87" y="833" type="curve"/>
      <point x="72.0" y="833.0"/>
      <point x="66.0" y="843.105263158"/>
      <point x="66" y="857" type="curve" smooth="yes"/>
      <point x="66.0" y="868.0"/>
      <point x="72.0" y="879.0"/>
    </contour>
    <contour>
      <point x="87" y="795" type="move" name="_topcap"/>
    </contour>
  </outline>
</glyph>
